<svg xmlns="http://www.w3.org/2000/svg" width="26.021" height="32.885" viewBox="0 0 26.021 32.885"><defs><style>.a{fill:#27a5f0;}</style></defs><path class="a" d="M78.918,26.17a5.109,5.109,0,0,1-1.553-2.114c-1.338-2.831-1.619-6.82-1.619-9.667,0-.012,0-.025,0-.037a9.331,9.331,0,0,0-5.493-8.463V3.663A3.664,3.664,0,0,0,66.6,0h-.3a3.664,3.664,0,0,0-3.657,3.663V5.889a9.331,9.331,0,0,0-5.493,8.5c0,2.847-.281,6.836-1.619,9.667a5.109,5.109,0,0,1-1.553,2.114.937.937,0,0,0-.514,1.065.98.98,0,0,0,.966.753h7.062a4.96,4.96,0,0,0,9.92,0h7.062a.98.98,0,0,0,.966-.753A.937.937,0,0,0,78.918,26.17ZM64.563,3.663a1.734,1.734,0,0,1,1.73-1.733h.3a1.734,1.734,0,0,1,1.73,1.733v1.6a9.331,9.331,0,0,0-3.764,0v-1.6Zm1.882,27.292a3.04,3.04,0,0,1-3.033-2.967h6.066A3.04,3.04,0,0,1,66.445,30.955Zm3.879-4.9H56.619a10.094,10.094,0,0,0,.5-.886C58.415,22.626,59.07,19,59.07,14.389a7.375,7.375,0,1,1,14.75,0c0,.012,0,.024,0,.036,0,4.591.658,8.206,1.946,10.745a10.1,10.1,0,0,0,.5.886Z" transform="translate(-53.434 0)"/></svg>