<svg xmlns="http://www.w3.org/2000/svg" xmlns:xlink="http://www.w3.org/1999/xlink" width="64.939" height="64.939" viewBox="0 0 64.939 64.939"><defs><style>.a{fill:#27a5f0;}.b{fill:#fff;}.c{filter:url(#a);}</style><filter id="a" x="0" y="0" width="64.939" height="64.939" filterUnits="userSpaceOnUse"><feOffset dy="3" input="SourceAlpha"/><feGaussianBlur stdDeviation="3" result="b"/><feFlood flood-opacity="0.161"/><feComposite operator="in" in2="b"/><feComposite in="SourceGraphic"/></filter></defs><g transform="translate(9 6)"><g class="c" transform="matrix(1, 0, 0, 1, -9, -6)"><path class="a" d="M46.939,23.47A23.47,23.47,0,1,1,23.47,0,23.469,23.469,0,0,1,46.939,23.47Zm0,0" transform="translate(9 6)"/></g><path class="b" d="M113.357,85.271a6.419,6.419,0,0,0-9.078,0L86.762,102.787a1.372,1.372,0,0,0-.352.6l-2.752,9.884a1.375,1.375,0,0,0,1.7,1.692l9.885-2.808a1.375,1.375,0,0,0,.6-2.294l-6.125-6.144,14.306-14.306,5.186,5.186L98.2,105.58a1.375,1.375,0,0,0,1.942,1.947l13.215-13.178a6.419,6.419,0,0,0,0-9.078ZM92.243,110.152l-5.278,1.5,1.478-5.311Zm19.17-17.75-.258.257-5.188-5.188.256-.256a3.669,3.669,0,0,1,5.19,5.187Zm0,0" transform="translate(-75.943 -75.746)"/></g></svg>