<svg xmlns="http://www.w3.org/2000/svg" width="140.451" height="127.088" viewBox="0 0 140.451 127.088"><defs><style>.a,.l{fill:#27a5f0;}.b,.i,.k,.m{fill:#fff;}.b{opacity:0.9;}.c{fill:#f5f5f5;}.d{fill:#ffc3bd;}.e,.f,.h{fill:#4d4d4d;}.e{opacity:0.4;}.f,.k{opacity:0.3;}.g{fill:#263238;}.h,.l{opacity:0.2;}.j{fill:#ed847e;}.m{opacity:0.1;}.n{fill:#f0f0f0;}.o{fill:#e0e0e0;}</style></defs><g transform="translate(-56.11 -60.472)"><g transform="translate(56.295 83.811)"><path class="a" d="M187.317,132.156c-5.352-3.642-16.86-5.508-23.341-3.358-8.278,2.749-7.987,8.78-14.011,12.512-16.272,10.071-32.789,3.3-49.985-1.039-38.107-9.628-61.971,27.039-24.546,49.58,22.5,13.547,69.76,23.445,75.082-12.463,2.3-15.524-6-16.7,13.294-20.08C171.427,155.968,211.566,148.66,187.317,132.156Z" transform="translate(-56.643 -127.886)"/><path class="b" d="M187.317,132.156c-5.352-3.642-16.86-5.508-23.341-3.358-8.278,2.749-7.987,8.78-14.011,12.512-16.272,10.071-32.789,3.3-49.985-1.039-38.107-9.628-61.971,27.039-24.546,49.58,22.5,13.547,69.76,23.445,75.082-12.463,2.3-15.524-6-16.7,13.294-20.08C171.427,155.968,211.566,148.66,187.317,132.156Z" transform="translate(-56.643 -127.886)"/></g><g transform="translate(56.11 179.722)"><ellipse class="c" cx="67.126" cy="3.919" rx="67.126" ry="3.919"/></g><g transform="translate(99.616 60.472)"><path class="d" d="M310.294,158.251c-.062,1.039-.184,1.991-.319,2.977s-.318,1.953-.526,2.922a32.545,32.545,0,0,1-1.748,5.737l-.315.692-.076.173-.028.09-.055.111a2.771,2.771,0,0,1-.4.6,2.392,2.392,0,0,1-.665.523,2.347,2.347,0,0,1-.789.249,3.019,3.019,0,0,1-1.257-.132,6.118,6.118,0,0,1-1.606-.831,12.659,12.659,0,0,1-1.229-.987,28.39,28.39,0,0,1-3.912-4.476l1.146-.973c.692.64,1.385,1.288,2.077,1.9a27.573,27.573,0,0,0,2.153,1.731,11.433,11.433,0,0,0,1.094.692,3.808,3.808,0,0,0,.976.419c.118.024.2,0,.163,0a.381.381,0,0,0-.218.1h0l.111-.287.242-.63a36.467,36.467,0,0,0,1.4-5.318c.184-.907.312-1.831.45-2.749s.235-1.863.315-2.738Z" transform="translate(-257.35 -124.268)"/><path class="a" d="M324.495,147.217c-1.291.329-2.195,5.64-2.195,5.64l3.556,2.423s3.41-5.356,2.423-6.775C327.24,147.02,326.378,146.739,324.495,147.217Z" transform="translate(-273.65 -117.046)"/><path class="a" d="M324.495,147.217c-1.291.329-2.195,5.64-2.195,5.64l3.556,2.423s3.41-5.356,2.423-6.775C327.24,147.02,326.378,146.739,324.495,147.217Z" transform="translate(-273.65 -117.046)"/><path class="e" d="M324.495,147.217c-1.291.329-2.195,5.64-2.195,5.64l3.556,2.423s3.41-5.356,2.423-6.775C327.24,147.02,326.378,146.739,324.495,147.217Z" transform="translate(-273.65 -117.046)"/><path class="f" d="M327.1,151.05l-.99,5.349,2,1.357Z" transform="translate(-276.141 -119.691)"/><path class="d" d="M295.868,172.243l-1.679-2.673-.959,3.036s1.385,1.454,2.642,1.108Z" transform="translate(-254.644 -131.8)"/><path class="d" d="M287.545,167.02l-.665,2.583,2.185,1.336.959-3.036Z" transform="translate(-250.492 -130.133)"/><path class="d" d="M342.491,392.06h-3.13l-.211-7.25h3.133Z" transform="translate(-284.666 -272.522)"/><path class="d" d="M413.775,354.551l-2.385,2.029-5.46-4.875,2.385-2.025Z" transform="translate(-328.326 -249.555)"/><path class="g" d="M417.567,363.739l2.316-2.652a.249.249,0,0,1,.325-.045l2.358,1.527a.5.5,0,0,1,.09.744c-.824.911-1.267,1.309-2.285,2.472-.623.717-1.464,1.831-2.33,2.818s-1.89.19-1.617-.3a6.133,6.133,0,0,0,.945-4.044A.817.817,0,0,1,417.567,363.739Z" transform="translate(-335.158 -256.957)"/><path class="g" d="M329.808,404.71h3.517a.249.249,0,0,1,.249.215l.4,2.77a.5.5,0,0,1-.516.578c-1.226-.021-1.818-.093-3.365-.093-.952,0-2.919.1-4.234.1s-1.385-1.3-.834-1.416a8.5,8.5,0,0,0,4.244-1.953A.817.817,0,0,1,329.808,404.71Z" transform="translate(-275.22 -285.533)"/><path class="h" d="M339.16,384.82l.107,3.736h3.13l-.107-3.736Z" transform="translate(-284.673 -272.529)"/><path class="h" d="M408.319,349.68l-2.389,2.025,2.818,2.513,2.385-2.029Z" transform="translate(-328.326 -249.555)"/><path class="a" d="M327.936,145.909s-1.492.526,1.5,18.9h12.713c-.211-5.176-.218-8.368,2.254-18.986a37.855,37.855,0,0,0-5.4-.713,40.624,40.624,0,0,0-5.775,0C330.748,145.348,327.936,145.909,327.936,145.909Z" transform="translate(-277.091 -115.738)"/><path class="e" d="M327.936,145.909s-1.492.526,1.5,18.9h12.713c-.211-5.176-.218-8.368,2.254-18.986a37.855,37.855,0,0,0-5.4-.713,40.624,40.624,0,0,0-5.775,0C330.748,145.348,327.936,145.909,327.936,145.909Z" transform="translate(-277.091 -115.738)"/><path class="i" d="M347.426,145.106a40.624,40.624,0,0,0-5.775,0c-.312.028-.63.062-.945.1a1.541,1.541,0,0,0-.173,1.35c.405,1.007,1.866,1.125,2.932,1.125,3.936,0,4.6-2.3,4.629-2.4l.038-.138C347.911,145.134,347.661,145.116,347.426,145.106Z" transform="translate(-285.516 -115.738)"/><path class="d" d="M348.188,126.53c-.367,1.856-.727,5.259.571,6.5,0,0-.509,1.887-3.961,1.887-3.808,0-1.814-1.883-1.814-1.883,2.077-.5,2.018-2.032,1.658-3.462Z" transform="translate(-286.832 -103.66)"/><path class="h" d="M350.808,130.09l-2.1,1.79a6.006,6.006,0,0,1,.18,1.039,2.563,2.563,0,0,0,1.963-1.811A2.75,2.75,0,0,0,350.808,130.09Z" transform="translate(-290.916 -105.988)"/><path class="g" d="M352.281,78.32c-.322-1.091-.592-2.808,1.347-3.583a3.014,3.014,0,0,1,0-3.708,2.5,2.5,0,0,1,2.354-.654s.415-2.531,3.493-2.077,1.707,2.479,1.707,2.479,4.2-.831,4.48,3.116-2.129,3.462-2.129,3.462,1.873,1.572.834,3.3-3.438,1.132-3.438,1.132-1.129,3.054-3.787,1.316A22.014,22.014,0,0,1,352.281,78.32Z" transform="translate(-293.103 -65.553)"/><path class="g" d="M333.578,100.172a2.349,2.349,0,0,0,.346,3.462c2.233,1.426,5.463-4.556,4.622-5.273S334.617,98.825,333.578,100.172Z" transform="translate(-280.635 -85.102)"/><path class="a" d="M355.026,94.32a2.756,2.756,0,0,0-3.421.921c-1.132,2.178,4.009,6.1,5.5,3.379C357.986,97,356.539,94.929,355.026,94.32Z" transform="translate(-292.704 -82.449)"/><path class="d" d="M343.511,106.18c.107,3.116.218,4.418-1.191,6.152-2.115,2.607-5.955,2.06-6.986-.952-.928-2.711-.945-7.333,1.96-8.849a4.238,4.238,0,0,1,6.218,3.649Z" transform="translate(-281.808 -87.649)"/><path class="g" d="M343.733,103.536a2.49,2.49,0,0,1-1.509-2.77c-.692-.028-2.205-.277-2.77-1.136-1.08.692-3.362,1.385-3.607.232s3.2-4.116,5.8-4.345c3.1-.27,6.149,2.77,5.363,5.681A2.787,2.787,0,0,1,343.733,103.536Z" transform="translate(-282.498 -83.374)"/><path class="g" d="M328.7,202.2s-2.468,24.113-2.264,33.662c.215,9.929,3.853,32.574,3.853,32.574h4.231s-.668-22.067-.294-31.816c.409-10.632,3.784-34.42,3.784-34.42Z" transform="translate(-276.347 -153.133)"/><path class="a" d="M340.762,390.606H335.8l-.367-1.582,5.564-.194Z" transform="translate(-282.234 -275.151)"/><path class="h" d="M345.945,216.713c-3.116,6.28-.627,17.74.478,22,.564-6.4,1.52-14.233,2.264-19.98C348.216,215.491,347.4,213.816,345.945,216.713Z" transform="translate(-288.12 -161.647)"/><path class="g" d="M342.66,202.187s2.88,25.069,5.055,33.118c2.583,9.555,18.622,22.417,18.622,22.417l3.254-2.77s-11.626-13.973-13.6-19.007c-4.213-10.732-.606-26.755-3.974-33.765Z" transform="translate(-286.961 -153.12)"/><path class="a" d="M411.476,350.944l-4.037,3.427-1.509-.9,4.566-4.248Z" transform="translate(-328.326 -249.254)"/><path class="g" d="M345.551,116.954c.024.253-.09.467-.253.485s-.319-.177-.346-.426.09-.471.256-.485S345.527,116.691,345.551,116.954Z" transform="translate(-288.457 -97.121)"/><path class="g" d="M337.343,117.744c.024.249-.09.467-.256.485s-.315-.177-.346-.429.09-.467.253-.481S337.319,117.492,337.343,117.744Z" transform="translate(-283.088 -97.638)"/><path class="g" d="M336.54,117.118l-.62-.118S336.294,117.443,336.54,117.118Z" transform="translate(-282.554 -97.43)"/><path class="j" d="M339.371,119.59a6.754,6.754,0,0,1-.741,1.689,1.1,1.1,0,0,0,.914.083Z" transform="translate(-284.326 -99.123)"/><path class="g" d="M344.358,125.125a2.441,2.441,0,0,1-.419.076.073.073,0,0,1-.08-.066.076.076,0,0,1,.066-.083,2.008,2.008,0,0,0,1.551-.931.069.069,0,0,1,.1-.031.076.076,0,0,1,.031.1A2.077,2.077,0,0,1,344.358,125.125Z" transform="translate(-287.745 -102.058)"/><path class="d" d="M357.977,117.935a2.271,2.271,0,0,1-.859,1.506c-.634.485-1.243,0-1.316-.758-.062-.692.187-1.731.942-1.932a1.039,1.039,0,0,1,1.233,1.184Z" transform="translate(-295.547 -97.253)"/><path class="g" d="M344.934,111.677a.149.149,0,0,1-.114-.017,1.181,1.181,0,0,0-1.066-.1.156.156,0,0,1-.2-.069.149.149,0,0,1,.069-.2,1.471,1.471,0,0,1,1.35.118.145.145,0,0,1,.048.2A.152.152,0,0,1,344.934,111.677Z" transform="translate(-287.535 -93.623)"/><path class="g" d="M334.118,113.232a.156.156,0,0,1-.111,0,.152.152,0,0,1-.059-.2,1.464,1.464,0,0,1,1.1-.793.145.145,0,0,1,.159.135.149.149,0,0,1-.135.159,1.184,1.184,0,0,0-.862.637A.135.135,0,0,1,334.118,113.232Z" transform="translate(-281.254 -94.316)"/><path class="d" d="M371.761,157.11a50.192,50.192,0,0,1,1.824,5.287,33.2,33.2,0,0,1,1.149,5.539c.059.478.076.98.1,1.475v.28a1.965,1.965,0,0,1-.031.294,4.337,4.337,0,0,1-.118.512,5.042,5.042,0,0,1-.346.834,12.182,12.182,0,0,1-1.752,2.455,30.078,30.078,0,0,1-4.154,3.784l-1-1.111a52.305,52.305,0,0,0,3.3-4.154,11.291,11.291,0,0,0,1.212-2.077,3.234,3.234,0,0,0,.138-.436,1.064,1.064,0,0,0,.017-.152.187.187,0,0,0,0-.045h0v-.048c-.045-.409-.076-.817-.152-1.236a37.818,37.818,0,0,0-1.243-5.051c-.53-1.676-1.122-3.375-1.731-5Z" transform="translate(-303.155 -123.653)"/><path class="a" d="M369.562,147.227c1.274.388,2.8,4.774,2.8,4.774l-4.947,3.531s-1.8-3.659-1.267-5.307C366.726,148.512,368.111,146.784,369.562,147.227Z" transform="translate(-302.254 -117.146)"/><path class="e" d="M369.562,147.227c1.274.388,2.8,4.774,2.8,4.774l-4.947,3.531s-1.8-3.659-1.267-5.307C366.726,148.512,368.111,146.784,369.562,147.227Z" transform="translate(-302.254 -117.146)"/><path class="a" d="M416.582,371.1a.426.426,0,0,1-.329-.17.256.256,0,0,1-.062-.249c.118-.381,1.2-.692,1.329-.727a.066.066,0,0,1,.076.024.073.073,0,0,1,0,.08c-.194.37-.578.994-.973,1.039Zm.8-.952c-.429.138-.99.377-1.039.578a.107.107,0,0,0,.031.107.277.277,0,0,0,.249.118C416.828,370.925,417.109,370.628,417.385,370.147Z" transform="translate(-335.029 -262.806)"/><path class="a" d="M416.851,369.134a1.281,1.281,0,0,1-.907-.256.26.26,0,0,1,0-.322.381.381,0,0,1,.28-.173c.45-.055,1.132.533,1.16.557a.076.076,0,0,1-.024.128A1.73,1.73,0,0,1,416.851,369.134Zm-.55-.606h-.048a.246.246,0,0,0-.177.107c-.052.08-.035.121,0,.149a1.574,1.574,0,0,0,1.125.173,1.88,1.88,0,0,0-.9-.429Z" transform="translate(-334.837 -261.78)"/><path class="a" d="M334.36,404.817a1.17,1.17,0,0,1-.758-.194.419.419,0,0,1-.135-.346.242.242,0,0,1,.128-.2c.384-.211,1.631.426,1.773.5a.076.076,0,0,1,.038.076.073.073,0,0,1-.059.062A5.426,5.426,0,0,1,334.36,404.817Zm-.557-.647a.274.274,0,0,0-.138.028.087.087,0,0,0-.048.08.27.27,0,0,0,.087.235,1.948,1.948,0,0,0,1.385.087A3.984,3.984,0,0,0,333.8,404.169Z" transform="translate(-280.949 -285.093)"/><path class="a" d="M336.83,403.333H336.8c-.374-.17-1.111-.845-1.039-1.2,0-.083.073-.19.277-.211a.547.547,0,0,1,.412.128,2.109,2.109,0,0,1,.467,1.208.072.072,0,0,1-.031.066.066.066,0,0,1-.055.007Zm-.748-1.271h-.042c-.138,0-.145.069-.149.087-.035.211.467.744.848.973a1.731,1.731,0,0,0-.4-.966.4.4,0,0,0-.256-.1Z" transform="translate(-282.447 -283.71)"/><path class="a" d="M345.118,199.822l.325,1.139c.045.087-.059.177-.208.177H332.152c-.114,0-.211-.055-.218-.128l-.114-1.136c0-.08.09-.145.218-.145h12.875A.229.229,0,0,1,345.118,199.822Z" transform="translate(-279.874 -151.517)"/><path class="k" d="M345.118,199.822l.325,1.139c.045.087-.059.177-.208.177H332.152c-.114,0-.211-.055-.218-.128l-.114-1.136c0-.08.09-.145.218-.145h12.875A.229.229,0,0,1,345.118,199.822Z" transform="translate(-279.874 -151.517)"/><path class="g" d="M364.683,201.108h.346c.066,0,.118-.035.114-.08l-.163-1.478c0-.042-.062-.08-.132-.08H364.5c-.069,0-.121.038-.114.08l.159,1.478C364.555,201.073,364.6,201.108,364.683,201.108Z" transform="translate(-301.167 -151.348)"/><path class="g" d="M335.024,201.108h.346c.069,0,.121-.035.118-.08l-.163-1.478c0-.042-.066-.08-.132-.08h-.346c-.069,0-.121.038-.118.08l.163,1.478C334.9,201.073,334.955,201.108,335.024,201.108Z" transform="translate(-281.776 -151.348)"/><path class="g" d="M349.86,201.108h.346c.069,0,.121-.035.118-.08l-.163-1.478c0-.042-.062-.08-.132-.08h-.346c-.069,0-.121.038-.114.08l.149,1.489C349.718,201.073,349.79,201.108,349.86,201.108Z" transform="translate(-291.477 -151.348)"/><path class="g" d="M344.75,116.328l-.62-.118S344.483,116.653,344.75,116.328Z" transform="translate(-287.922 -96.913)"/><path class="l" d="M230.962,127.784A31.816,31.816,0,1,1,249.1,86.6a31.816,31.816,0,0,1-18.134,41.181Z" transform="translate(-185.594 -64.284)"/><path class="m" d="M235.145,66.845l-24.954,56.674c-.384-.291-.765-.592-1.139-.9a31.438,31.438,0,0,1-6.232-6.955h0l21.555-48.953a31.484,31.484,0,0,1,10.77.132Z" transform="translate(-195.534 -64.291)"/><path class="m" d="M276.578,80.834l-23.462,53.284a31.775,31.775,0,0,1-14.056-3.261L264.679,72.67a31.851,31.851,0,0,1,11.9,8.164Z" transform="translate(-219.228 -68.447)"/><path class="a" d="M189.428,72.883a33.845,33.845,0,1,1,4.757,47.627,33.845,33.845,0,0,1-4.757-47.627ZM239.669,114a31.075,31.075,0,1,0-43.733,4.373A31.075,31.075,0,0,0,239.669,114Z" transform="translate(-181.775 -60.472)"/><path class="a" d="M351.875,214.195c3.334,1.991,6.505,4.179,9.621,6.436s6.152,4.608,9.14,7.021,5.92,4.9,8.749,7.5q2.126,1.953,4.154,4.009c1.357,1.385,2.69,2.77,3.947,4.272a1.949,1.949,0,0,1-2.423,2.964c-1.731-.935-3.351-1.966-4.968-3.022s-3.2-2.157-4.753-3.289c-3.116-2.257-6.131-4.636-9.084-7.09s-5.861-4.965-8.69-7.575-5.6-5.283-8.212-8.157a2,2,0,0,1,2.513-3.071Z" transform="translate(-290.993 -160.786)"/><path class="d" d="M362.074,212l-3.344.509,2.392,2.1s1.89-.692,2.077-1.973Z" transform="translate(-297.467 -159.54)"/><path class="d" d="M353.51,215.4l2.1,1.648,2.565-1.676-2.86-1.887Z" transform="translate(-294.055 -160.514)"/></g><g transform="translate(64.974 115.355)"><path class="a" d="M180.174,224.1h0a4.4,4.4,0,0,1,4.054-2.884h27.714a3.275,3.275,0,0,1,3.365,3.732l-7.16,60.07a4.355,4.355,0,0,1-4.248,3.715H115.963a3.268,3.268,0,0,1-3.362-3.715l6-50.47a4.355,4.355,0,0,1,4.248-3.715h47.853A10.272,10.272,0,0,0,180.174,224.1Z" transform="translate(-101.887 -220.447)"/><path class="n" d="M117.23,291.5h91.886l5.235-61.825H122.468Z" transform="translate(-104.933 -225.976)"/><path class="o" d="M117.23,291.5h91.886L212.9,229.67H122.468Z" transform="translate(-104.933 -225.976)"/><path class="n" d="M117.23,287.788h91.886L212.274,224H120.391Z" transform="translate(-104.933 -222.269)"/><path class="o" d="M117.23,287.788h91.886L210.366,224H120.391Z" transform="translate(-104.933 -222.269)"/><path class="n" d="M117.23,284.519h91.886L209.663,219H117.78Z" transform="translate(-104.933 -219)"/><path class="o" d="M114.791,286.86h91.886l-1.887-64.28H113.5Z" transform="translate(-102.495 -221.341)"/><path class="n" d="M112.085,287.788h91.886L201.243,224H109.36Z" transform="translate(-99.788 -222.269)"/><path class="o" d="M109.031,289.606h91.886l-4.345-62.826H104.69Z" transform="translate(-96.735 -224.087)"/><path class="n" d="M107.724,290.619H199.61l-5.037-62.289H102.69Z" transform="translate(-95.427 -225.1)"/><path class="a" d="M140.023,235.237h0a2.995,2.995,0,0,1,3.133-2.953H170.87a4.847,4.847,0,0,1,4.549,3.808l10.95,56.085a3.047,3.047,0,0,1-3.064,3.808H95.369a4.846,4.846,0,0,1-4.553-3.808l-9.033-46.236a3.047,3.047,0,0,1,3.064-3.808H132.7A6.991,6.991,0,0,0,140.023,235.237Z" transform="translate(-81.712 -227.683)"/><path class="h" d="M140.023,235.237h0a2.995,2.995,0,0,1,3.133-2.953H170.87a4.847,4.847,0,0,1,4.549,3.808l10.95,56.085a3.047,3.047,0,0,1-3.064,3.808H95.369a4.846,4.846,0,0,1-4.553-3.808l-9.033-46.236a3.047,3.047,0,0,1,3.064-3.808H132.7A6.991,6.991,0,0,0,140.023,235.237Z" transform="translate(-81.712 -227.683)"/></g></g></svg>