<svg xmlns="http://www.w3.org/2000/svg" width="27.297" height="26.303" viewBox="0 0 27.297 26.303"><defs><style>.a{fill:#27a5f0;}</style></defs><g transform="translate(0 -3.306)"><path class="a" d="M27.14,13.939a1.144,1.144,0,0,1-1.011.692,1.02,1.02,0,0,1-.582-.186l-11.9-8.155-11.9,8.155a1.071,1.071,0,0,1-1.593-.507,1.533,1.533,0,0,1,.427-1.891L13.066,3.492a1.006,1.006,0,0,1,1.166,0l12.482,8.555A1.535,1.535,0,0,1,27.14,13.939Zm-2.953,1.439V28.226a1.29,1.29,0,0,1-1.166,1.384H18.312a1.29,1.29,0,0,1-1.166-1.384V24.149c0-2.288-1.57-4.152-3.5-4.152s-3.5,1.864-3.5,4.152v4.077A1.29,1.29,0,0,1,8.985,29.61H4.275a1.29,1.29,0,0,1-1.166-1.384V15.377a1.449,1.449,0,0,1,.583-1.2l9.374-6.423a1.009,1.009,0,0,1,1.166,0L23.6,14.179A1.45,1.45,0,0,1,24.188,15.377Zm-2.332.8-8.207-5.624L5.441,16.176V26.842H7.819V24.15c0-3.817,2.615-6.921,5.829-6.921s5.829,3.1,5.829,6.921v2.693h2.378Z" transform="translate(0 0)"/></g></svg>