<svg xmlns="http://www.w3.org/2000/svg" width="19.747" height="18" viewBox="0 0 19.747 18"><defs><style>.a{fill:#4f4f4f;}</style></defs><g transform="translate(0 -3.306)"><path class="a" d="M19.633,10.582a.829.829,0,0,1-.732.474.767.767,0,0,1-.421-.128L9.873,5.348,1.265,10.928a.8.8,0,0,1-1.152-.347A1.013,1.013,0,0,1,.422,9.288l9.03-5.854a.762.762,0,0,1,.843,0l9.03,5.854A1.015,1.015,0,0,1,19.633,10.582Zm-2.136.984v8.792a.9.9,0,0,1-.843.947H13.247a.9.9,0,0,1-.843-.947v-2.79a2.7,2.7,0,0,0-2.53-2.842,2.7,2.7,0,0,0-2.53,2.842v2.79a.9.9,0,0,1-.843.947H3.092a.9.9,0,0,1-.843-.947V11.567a.974.974,0,0,1,.422-.82l6.781-4.4a.764.764,0,0,1,.843,0l6.78,4.4A.975.975,0,0,1,17.5,11.567Zm-1.687.547L9.873,8.265,3.936,12.114v7.3H5.656V17.57a4.5,4.5,0,0,1,4.217-4.736A4.5,4.5,0,0,1,14.09,17.57v1.843h1.72Z"/></g></svg>