<svg xmlns="http://www.w3.org/2000/svg" width="135.345" height="127.624" viewBox="0 0 135.345 127.624"><defs><style>.a,.j{fill:#27a5f0;}.b,.d,.f,.k{fill:#fff;}.b{opacity:0.9;}.c{fill:#f5f5f5;}.d{opacity:0.6;}.e,.g,.h{fill:#4d4d4d;}.e,.k{opacity:0.1;}.f{opacity:0.3;}.g,.j{opacity:0.2;}.h,.o{opacity:0.4;}.i{fill:#7f3e3b;}.l{fill:#263238;}.m{fill:#630f0f;}.n{fill:#2c6bdb;}.o{fill:#fafafa;}</style></defs><g transform="translate(-56.11 -60.3)"><g transform="translate(61.232 72.541)"><path class="a" d="M172.4,102.609c-21.285-15.985-28.148-.8-46.566,5.511-14.689,5.032-35.821-1.435-48.011,10.363-10.623,10.276-7.85,32.342-.087,43.289,9.463,13.334,26.664,14.943,41.8,8.531,11.534-4.893,19.286-24.082,32.13-23.495,14.779.7,15.46,19.179,30.9,18.154C222.736,162.289,187.183,113.7,172.4,102.609Z" transform="translate(-70.849 -95.525)"/><path class="b" d="M172.4,102.609c-21.285-15.985-28.148-.8-46.566,5.511-14.689,5.032-35.821-1.435-48.011,10.363-10.623,10.276-7.85,32.342-.087,43.289,9.463,13.334,26.664,14.943,41.8,8.531,11.534-4.893,19.286-24.082,32.13-23.495,14.779.7,15.46,19.179,30.9,18.154C222.736,162.289,187.183,113.7,172.4,102.609Z" transform="translate(-70.849 -95.525)"/></g><g transform="translate(56.11 180.057)"><ellipse class="c" cx="67.378" cy="3.934" rx="67.378" ry="3.934"/></g><g transform="translate(65.802 60.3)"><rect class="a" width="22.313" height="9.939" rx="1.56" transform="translate(33.524 70.345)"/><rect class="d" width="22.313" height="9.939" rx="1.56" transform="translate(33.524 70.345)"/><path class="e" d="M202.218,262.73H180.982a.542.542,0,0,0-.542.542v2.839l11.051,2.175a.511.511,0,0,0,.205,0l11.054-2.175v-2.839a.542.542,0,0,0-.532-.542Z" transform="translate(-146.927 -192.385)"/><path class="a" d="M201.855,247.044h-6.484v-1.088a1.7,1.7,0,0,0-1.7-1.7h-5.793a1.7,1.7,0,0,0-1.7,1.7v1.088h-6.481a.535.535,0,0,0-.535.535v5.355a.539.539,0,0,0,.431.525l11.075,2.179a.675.675,0,0,0,.205,0l11.075-2.179a.542.542,0,0,0,.434-.525v-5.355A.535.535,0,0,0,201.855,247.044Zm-14.38-1.088a.414.414,0,0,1,.407-.41h5.793a.414.414,0,0,1,.407.41v1.088h-6.6Z" transform="translate(-146.098 -180.333)"/><path class="d" d="M201.855,247.044h-6.484v-1.088a1.7,1.7,0,0,0-1.7-1.7h-5.793a1.7,1.7,0,0,0-1.7,1.7v1.088h-6.481a.535.535,0,0,0-.535.535v5.355a.539.539,0,0,0,.431.525l11.075,2.179a.675.675,0,0,0,.205,0l11.075-2.179a.542.542,0,0,0,.434-.525v-5.355A.535.535,0,0,0,201.855,247.044Zm-14.38-1.088a.414.414,0,0,1,.407-.41h5.793a.414.414,0,0,1,.407.41v1.088h-6.6Z" transform="translate(-146.098 -180.333)"/><rect class="a" width="3.315" height="2.474" rx="1.237" transform="translate(43.024 73.841)"/><rect class="f" width="3.315" height="2.474" rx="1.237" transform="translate(43.024 73.841)"/><rect class="a" width="22.313" height="9.939" rx="1.56" transform="translate(33.524 6.418)"/><rect class="d" width="22.313" height="9.939" rx="1.56" transform="translate(33.524 6.418)"/><path class="e" d="M202.218,78.77H180.982a.542.542,0,0,0-.542.542v2.839l11.051,2.175a.511.511,0,0,0,.205,0l11.054-2.175V79.312a.542.542,0,0,0-.532-.542Z" transform="translate(-146.927 -72.352)"/><path class="a" d="M201.855,63.084h-6.484V62a1.7,1.7,0,0,0-1.7-1.7h-5.793a1.7,1.7,0,0,0-1.7,1.7v1.088h-6.481a.535.535,0,0,0-.535.535v5.355a.535.535,0,0,0,.431.525l11.075,2.165a.511.511,0,0,0,.205,0l11.075-2.179a.539.539,0,0,0,.438-.511V63.619a.535.535,0,0,0-.539-.535ZM187.475,62a.41.41,0,0,1,.407-.41h5.793a.41.41,0,0,1,.407.407V63.08h-6.6Z" transform="translate(-146.098 -60.3)"/><path class="d" d="M201.855,63.084h-6.484V62a1.7,1.7,0,0,0-1.7-1.7h-5.793a1.7,1.7,0,0,0-1.7,1.7v1.088h-6.481a.535.535,0,0,0-.535.535v5.355a.535.535,0,0,0,.431.525l11.075,2.165a.511.511,0,0,0,.205,0l11.075-2.179a.539.539,0,0,0,.438-.511V63.619a.535.535,0,0,0-.539-.535ZM187.475,62a.41.41,0,0,1,.407-.41h5.793a.41.41,0,0,1,.407.407V63.08h-6.6Z" transform="translate(-146.098 -60.3)"/><rect class="a" width="3.315" height="2.474" rx="1.237" transform="translate(43.024 9.918)"/><rect class="f" width="3.315" height="2.474" rx="1.237" transform="translate(43.024 9.918)"/><rect class="a" width="22.313" height="9.939" rx="1.56" transform="translate(0.455 70.345)"/><rect class="d" width="22.313" height="9.939" rx="1.56" transform="translate(0.455 70.345)"/><path class="e" d="M107.1,262.73H85.852a.542.542,0,0,0-.542.542v2.839l11.051,2.175a.527.527,0,0,0,.209,0l11.054-2.175v-2.839A.542.542,0,0,0,107.1,262.73Z" transform="translate(-84.855 -192.385)"/><path class="a" d="M106.685,247.044H100.2v-1.088a1.7,1.7,0,0,0-1.7-1.7H92.715a1.7,1.7,0,0,0-1.7,1.7v1.088H84.535a.535.535,0,0,0-.535.535v5.355a.539.539,0,0,0,.431.525l11.075,2.179a.694.694,0,0,0,.209,0l11.075-2.179a.539.539,0,0,0,.431-.525v-5.355A.535.535,0,0,0,106.685,247.044Zm-14.38-1.088a.417.417,0,0,1,.41-.41H98.5a.417.417,0,0,1,.41.41v1.088h-6.6Z" transform="translate(-84 -180.333)"/><path class="d" d="M106.685,247.044H100.2v-1.088a1.7,1.7,0,0,0-1.7-1.7H92.715a1.7,1.7,0,0,0-1.7,1.7v1.088H84.535a.535.535,0,0,0-.535.535v5.355a.539.539,0,0,0,.431.525l11.075,2.179a.694.694,0,0,0,.209,0l11.075-2.179a.539.539,0,0,0,.431-.525v-5.355A.535.535,0,0,0,106.685,247.044Zm-14.38-1.088a.417.417,0,0,1,.41-.41H98.5a.417.417,0,0,1,.41.41v1.088h-6.6Z" transform="translate(-84 -180.333)"/><rect class="a" width="3.315" height="2.474" rx="1.237" transform="translate(9.953 73.841)"/><rect class="f" width="3.315" height="2.474" rx="1.237" transform="translate(9.953 73.841)"/><rect class="a" width="22.313" height="9.939" rx="1.56" transform="translate(0.455 6.418)"/><rect class="d" width="22.313" height="9.939" rx="1.56" transform="translate(0.455 6.418)"/><path class="e" d="M107.1,78.77H85.852a.542.542,0,0,0-.542.542v2.839l11.051,2.175a.525.525,0,0,0,.209,0l11.054-2.175V79.312A.542.542,0,0,0,107.1,78.77Z" transform="translate(-84.855 -72.352)"/><path class="a" d="M106.685,63.084H100.2V62a1.7,1.7,0,0,0-1.7-1.7H92.715a1.7,1.7,0,0,0-1.7,1.7v1.088H84.535a.535.535,0,0,0-.535.535v5.355a.535.535,0,0,0,.431.525l11.075,2.165a.524.524,0,0,0,.209,0l11.075-2.179a.535.535,0,0,0,.431-.525V63.619a.535.535,0,0,0-.535-.535ZM92.305,62a.414.414,0,0,1,.41-.41H98.5a.414.414,0,0,1,.41.407V63.08h-6.6Z" transform="translate(-84 -60.3)"/><path class="d" d="M106.685,63.084H100.2V62a1.7,1.7,0,0,0-1.7-1.7H92.715a1.7,1.7,0,0,0-1.7,1.7v1.088H84.535a.535.535,0,0,0-.535.535v5.355a.535.535,0,0,0,.431.525l11.075,2.165a.524.524,0,0,0,.209,0l11.075-2.179a.535.535,0,0,0,.431-.525V63.619a.535.535,0,0,0-.535-.535ZM92.305,62a.414.414,0,0,1,.41-.41H98.5a.414.414,0,0,1,.41.407V63.08h-6.6Z" transform="translate(-84 -60.3)"/><rect class="a" width="3.315" height="2.474" rx="1.237" transform="translate(9.953 9.918)"/><rect class="f" width="3.315" height="2.474" rx="1.237" transform="translate(9.953 9.918)"/><path class="a" d="M104.308,180.689H85.846a.546.546,0,0,1-.546-.546v-8.851a.539.539,0,0,1,.045-.212.747.747,0,0,1,.049-.09.383.383,0,0,1,.069-.08.542.542,0,0,1,.382-.16h17.476a22.789,22.789,0,0,0-.142,3.656,3.719,3.719,0,0,0,.031.591c.024.365.052.733.094,1.1A23.283,23.283,0,0,0,104.308,180.689Z" transform="translate(-84.848 -132.368)"/><path class="d" d="M104.308,180.689H85.846a.546.546,0,0,1-.546-.546v-8.851a.539.539,0,0,1,.045-.212.747.747,0,0,1,.049-.09.383.383,0,0,1,.069-.08.542.542,0,0,1,.382-.16h17.476a22.789,22.789,0,0,0-.142,3.656,3.719,3.719,0,0,0,.031.591c.024.365.052.733.094,1.1A23.283,23.283,0,0,0,104.308,180.689Z" transform="translate(-84.848 -132.368)"/><path class="e" d="M103.328,170.75a22.788,22.788,0,0,0-.142,3.656,3.719,3.719,0,0,0,.031.591l-5.094,1-1.557.306a.41.41,0,0,1-.205,0l-1.553-.3-9.5-1.87v-2.843a.588.588,0,0,1,.042-.209.748.748,0,0,1,.049-.09.383.383,0,0,1,.07-.08.542.542,0,0,1,.382-.16Z" transform="translate(-84.855 -132.368)"/><path class="a" d="M103.2,155.063h-3v-1.088a1.7,1.7,0,0,0-1.7-1.7H92.715a1.7,1.7,0,0,0-1.7,1.7v1.088H84.535A.535.535,0,0,0,84,155.6v5.352a.539.539,0,0,0,.434.528h.021l9.5,1.873,1.553.3a.511.511,0,0,0,.205,0l1.557-.306,5.063-1a22.79,22.79,0,0,1,.142-3.656,23.055,23.055,0,0,1,.726-3.631Zm-10.894-1.088a.414.414,0,0,1,.41-.407H98.5a.41.41,0,0,1,.407.407v1.088h-6.6Z" transform="translate(-84 -120.317)"/><path class="d" d="M103.2,155.063h-3v-1.088a1.7,1.7,0,0,0-1.7-1.7H92.715a1.7,1.7,0,0,0-1.7,1.7v1.088H84.535A.535.535,0,0,0,84,155.6v5.352a.539.539,0,0,0,.434.528h.021l9.5,1.873,1.553.3a.511.511,0,0,0,.205,0l1.557-.306,5.063-1a22.79,22.79,0,0,1,.142-3.656,23.055,23.055,0,0,1,.726-3.631Zm-10.894-1.088a.414.414,0,0,1,.41-.407H98.5a.41.41,0,0,1,.407.407v1.088h-6.6Z" transform="translate(-84 -120.317)"/><rect class="a" width="3.315" height="2.474" rx="1.237" transform="translate(9.953 41.878)"/><rect class="f" width="3.315" height="2.474" rx="1.237" transform="translate(9.953 41.878)"/><rect class="a" width="22.313" height="9.939" rx="1.56" transform="translate(88.905 80.28) rotate(180)"/><rect class="d" width="22.313" height="9.939" rx="1.56" transform="translate(88.905 80.28) rotate(180)"/><path class="e" d="M276.156,262.73h21.226a.542.542,0,0,1,.542.542v2.839l-11.065,2.175a.512.512,0,0,1-.205,0L275.6,266.111v-2.839a.542.542,0,0,1,.556-.542Z" transform="translate(-209.018 -192.384)"/><path class="a" d="M274.839,247.044h6.484v-1.088a1.7,1.7,0,0,1,1.7-1.7h5.793a1.7,1.7,0,0,1,1.7,1.7v1.088h6.481a.535.535,0,0,1,.535.535v5.355a.539.539,0,0,1-.431.525L286,255.637a.694.694,0,0,1-.208,0l-11.075-2.179a.539.539,0,0,1-.431-.525v-5.355a.535.535,0,0,1,.549-.535Zm14.38-1.088a.414.414,0,0,0-.407-.41h-5.793a.417.417,0,0,0-.41.41v1.088h6.6Z" transform="translate(-208.163 -180.333)"/><path class="d" d="M274.839,247.044h6.484v-1.088a1.7,1.7,0,0,1,1.7-1.7h5.793a1.7,1.7,0,0,1,1.7,1.7v1.088h6.481a.535.535,0,0,1,.535.535v5.355a.539.539,0,0,1-.431.525L286,255.637a.694.694,0,0,1-.208,0l-11.075-2.179a.539.539,0,0,1-.431-.525v-5.355a.535.535,0,0,1,.549-.535Zm14.38-1.088a.414.414,0,0,0-.407-.41h-5.793a.417.417,0,0,0-.41.41v1.088h6.6Z" transform="translate(-208.163 -180.333)"/><rect class="a" width="3.315" height="2.474" rx="1.237" transform="translate(79.408 76.315) rotate(180)"/><rect class="f" width="3.315" height="2.474" rx="1.237" transform="translate(79.408 76.315) rotate(180)"/><rect class="a" width="22.313" height="9.939" rx="1.56" transform="translate(88.905 16.354) rotate(180)"/><rect class="d" width="22.313" height="9.939" rx="1.56" transform="translate(88.905 16.354) rotate(180)"/><path class="e" d="M276.182,78.77h21.226a.542.542,0,0,1,.542.542v2.839l-11.065,2.175a.511.511,0,0,1-.205,0l-11.04-2.175V79.312a.542.542,0,0,1,.542-.542Z" transform="translate(-209.044 -72.352)"/><path class="a" d="M274.839,63.083h6.484V62a1.7,1.7,0,0,1,1.7-1.7h5.793a1.7,1.7,0,0,1,1.71,1.7v1.088H297a.535.535,0,0,1,.535.535v5.355a.535.535,0,0,1-.431.525L286,71.663a.525.525,0,0,1-.208,0l-11.075-2.179a.535.535,0,0,1-.431-.525V63.619a.535.535,0,0,1,.549-.535ZM289.219,62a.41.41,0,0,0-.407-.41h-5.793a.414.414,0,0,0-.41.407V63.08h6.6Z" transform="translate(-208.163 -60.3)"/><path class="d" d="M274.839,63.083h6.484V62a1.7,1.7,0,0,1,1.7-1.7h5.793a1.7,1.7,0,0,1,1.71,1.7v1.088H297a.535.535,0,0,1,.535.535v5.355a.535.535,0,0,1-.431.525L286,71.663a.525.525,0,0,1-.208,0l-11.075-2.179a.535.535,0,0,1-.431-.525V63.619a.535.535,0,0,1,.549-.535ZM289.219,62a.41.41,0,0,0-.407-.41h-5.793a.414.414,0,0,0-.41.407V63.08h6.6Z" transform="translate(-208.163 -60.3)"/><rect class="a" width="3.315" height="2.474" rx="1.237" transform="translate(79.408 12.389) rotate(180)"/><rect class="f" width="3.315" height="2.474" rx="1.237" transform="translate(79.408 12.389) rotate(180)"/><path class="a" d="M285.19,180.689h18.452a.546.546,0,0,0,.542-.546v-8.851a.539.539,0,0,0-.045-.212.451.451,0,0,0-.049-.09.383.383,0,0,0-.07-.08.535.535,0,0,0-.382-.16H286.166a22.788,22.788,0,0,1,.142,3.656,3.722,3.722,0,0,1-.031.591c-.021.365-.052.733-.094,1.1a23.283,23.283,0,0,1-.994,4.594Z" transform="translate(-215.276 -132.368)"/><path class="d" d="M285.19,180.689h18.452a.546.546,0,0,0,.542-.546v-8.851a.539.539,0,0,0-.045-.212.451.451,0,0,0-.049-.09.383.383,0,0,0-.07-.08.535.535,0,0,0-.382-.16H286.166a22.788,22.788,0,0,1,.142,3.656,3.722,3.722,0,0,1-.031.591c-.021.365-.052.733-.094,1.1a23.283,23.283,0,0,1-.994,4.594Z" transform="translate(-215.276 -132.368)"/><path class="e" d="M288,170.75a22.8,22.8,0,0,1,.142,3.656,3.719,3.719,0,0,1-.031.591l5.1,1,1.557.306a.41.41,0,0,0,.205,0l1.553-.3,9.5-1.87v-2.843a.588.588,0,0,0-.042-.209.453.453,0,0,0-.049-.09.382.382,0,0,0-.069-.08.535.535,0,0,0-.382-.16Z" transform="translate(-217.109 -132.368)"/><path class="a" d="M285.874,155.063h3v-1.088a1.7,1.7,0,0,1,1.7-1.7h5.789a1.7,1.7,0,0,1,1.7,1.7v1.088h6.481a.535.535,0,0,1,.535.535v5.352a.539.539,0,0,1-.431.528h-.024l-9.5,1.873-1.567.3a.51.51,0,0,1-.205,0l-1.557-.306-5.063-1a23.282,23.282,0,0,0-.869-7.3Zm10.894-1.088a.414.414,0,0,0-.41-.407h-5.789a.41.41,0,0,0-.407.407v1.088h6.6Z" transform="translate(-215.713 -120.317)"/><path class="d" d="M285.874,155.063h3v-1.088a1.7,1.7,0,0,1,1.7-1.7h5.789a1.7,1.7,0,0,1,1.7,1.7v1.088h6.481a.535.535,0,0,1,.535.535v5.352a.539.539,0,0,1-.431.528h-.024l-9.5,1.873-1.567.3a.51.51,0,0,1-.205,0l-1.557-.306-5.063-1a23.282,23.282,0,0,0-.869-7.3Zm10.894-1.088a.414.414,0,0,0-.41-.407h-5.789a.41.41,0,0,0-.407.407v1.088h6.6Z" transform="translate(-215.713 -120.317)"/><rect class="a" width="3.315" height="2.474" rx="1.237" transform="translate(79.408 44.355) rotate(180)"/><rect class="f" width="3.315" height="2.474" rx="1.237" transform="translate(79.408 44.355) rotate(180)"/><rect class="a" width="32.061" height="14.279" rx="2.24" transform="translate(29.774 36.224)"/><path class="a" d="M207.683,145.048H199.36a2.384,2.384,0,0,1-2.38-2.38V140.53a2.384,2.384,0,0,1,2.38-2.38h8.323a2.38,2.38,0,0,1,2.38,2.38v2.127a2.38,2.38,0,0,1-2.38,2.391Zm-8.323-5.15a.643.643,0,0,0-.636.632v2.127a.643.643,0,0,0,.643.643h8.323a.643.643,0,0,0,.643-.643V140.53a.643.643,0,0,0-.643-.643Z" transform="translate(-157.719 -111.097)"/><path class="g" d="M200.959,164.54h-30.5a.778.778,0,0,0-.782.778V169.4l15.881,3.128a.7.7,0,0,0,.3,0l15.884-3.128v-4.083a.778.778,0,0,0-.782-.778Z" transform="translate(-139.906 -128.316)"/><path class="a" d="M200.515,158.722,184.6,161.849a.861.861,0,0,1-.3,0l-15.912-3.128a.771.771,0,0,1-.622-.754v-7.68a.768.768,0,0,1,.768-.768h31.838a.768.768,0,0,1,.768.768v7.694a.768.768,0,0,1-.629.74Z" transform="translate(-138.66 -118.516)"/><rect class="a" width="4.764" height="3.555" rx="1.777" transform="translate(43.424 41.252)"/><rect class="h" width="4.764" height="3.555" rx="1.777" transform="translate(43.424 41.252)"/></g><g transform="translate(82.727 71.708)"><path class="i" d="M374.277,187.21c.4.824.695,1.6,1.043,2.415s.6,1.623.872,2.453a31.332,31.332,0,0,1,1.213,5.164c.035.219.052.455.076.695l.035.348v.407a7.3,7.3,0,0,1-.136,1.571,16.848,16.848,0,0,1-.733,2.641,28.842,28.842,0,0,1-2.21,4.709l-1.765-.747c.393-1.585.789-3.2,1.088-4.761a19.981,19.981,0,0,0,.309-2.262,5.275,5.275,0,0,0-.021-.931l-.038-.219-.049-.278c-.038-.184-.063-.368-.108-.556a35.453,35.453,0,0,0-1.341-4.518c-.264-.754-.556-1.5-.848-2.259s-.615-1.512-.914-2.207Z" transform="translate(-288.028 -154.517)"/><path class="i" d="M373.955,242.44l-1.355,1.321,2.957,1.39a2.975,2.975,0,0,0,.222-2.384Z" transform="translate(-289.235 -190.554)"/><path class="i" d="M369.46,248.21l2.5,1.022,1.553-1.616-2.957-1.376Z" transform="translate(-287.187 -193.033)"/><path class="j" d="M171.6,154.138a25.02,25.02,0,1,0-27.651-22.091A25.02,25.02,0,0,0,171.6,154.138Z" transform="translate(-139.938 -100.386)"/><path class="k" d="M171.42,112.01,209.472,142.4c.163-.348.316-.7.466-1.043a24.7,24.7,0,0,0,1.807-7.117h0L178.877,108a24.808,24.808,0,0,0-7.457,4.01Z" transform="translate(-157.966 -102.832)"/><path class="k" d="M146.16,139.032l35.772,28.582a25.02,25.02,0,0,0,8.611-7.395L151.477,129A25.02,25.02,0,0,0,146.16,139.032Z" transform="translate(-141.484 -116.535)"/><path class="a" d="M223.218,150.117a3.711,3.711,0,0,0-.6-1.772,2.565,2.565,0,0,0-1.025-.907l-2.373-1.164c-1.578-.782-3.166-1.543-4.754-2.3s-3.187-1.508-4.778-2.262-3.2-1.487-4.806-2.207q-4.816-2.182-9.7-4.247c-1.626-.7-3.256-1.362-4.9-2.016h0a2.033,2.033,0,0,1-1.192-2.509,28.867,28.867,0,1,0-3.864,7.822,2.036,2.036,0,0,1,2.721-.58h0q2.28,1.355,4.58,2.665,4.6,2.62,9.264,5.108c1.553.841,3.128,1.651,4.674,2.474s3.128,1.626,4.7,2.433,3.128,1.6,4.723,2.373l2.367,1.175a2.551,2.551,0,0,0,1.345.264,3.677,3.677,0,0,0,1.769-.6A3.916,3.916,0,0,0,223.218,150.117ZM151.5,142.43A22.775,22.775,0,1,1,182,132.088,22.775,22.775,0,0,1,151.5,142.43Z" transform="translate(-132.705 -93.129)"/><path class="l" d="M342.276,155.6c0,.205-.108.372-.243.372s-.243-.167-.243-.372.108-.375.243-.375S342.276,155.387,342.276,155.6Z" transform="translate(-269.132 -133.643)"/><path class="m" d="M341.09,157.37a7.351,7.351,0,0,1-.98,1.762,1.185,1.185,0,0,0,.983.184Z" transform="translate(-268.036 -135.046)"/><path class="l" d="M343.21,152.134a.122.122,0,0,0,.07-.219,1.213,1.213,0,0,0-1.088-.188.122.122,0,1,0,.087.226h0a.97.97,0,0,1,.862.156A.108.108,0,0,0,343.21,152.134Z" transform="translate(-269.336 -131.328)"/><path class="i" d="M352.62,160.76c-.368,1.87-.733,5.292.573,6.537,0,0-.511,1.894-3.979,1.894-3.823,0-1.824-1.894-1.824-1.894,2.085-.5,2.029-2.043,1.665-3.475Z" transform="translate(-272.445 -137.258)"/><path class="l" d="M354.334,175.947c.288.094-.087,1.81-.087,1.81s-.476,1.2-6.391.782c-.455-.035-.281-1.682.153-1.922A13.416,13.416,0,0,1,354.334,175.947Z" transform="translate(-272.916 -147.08)"/><path class="a" d="M401.068,381.073c.32-.031.785-.619.917-.834a.059.059,0,0,0,0-.063.056.056,0,0,0-.059-.028c-.035,0-.876.16-1.081.486a.292.292,0,0,0-.035.233c.045.153.132.195.2.205Zm.733-.775c-.226.313-.6.678-.775.653-.017,0-.07,0-.1-.118a.16.16,0,0,1,.021-.136A1.637,1.637,0,0,1,401.8,380.3Z" transform="translate(-307.636 -280.407)"/><path class="a" d="M401.6,379.454a1.117,1.117,0,0,0,.184-.031.06.06,0,0,0,.021-.1c-.021-.021-.584-.5-.966-.462h0a.327.327,0,0,0-.236.125.191.191,0,0,0-.024.247C400.7,379.426,401.25,379.488,401.6,379.454Zm.028-.122c-.348.042-.855-.028-.952-.17a.1.1,0,0,1,.021-.108.229.229,0,0,1,.156-.08h0A1.466,1.466,0,0,1,401.625,379.332Z" transform="translate(-307.467 -279.563)"/><path class="a" d="M331.345,407.956a4.666,4.666,0,0,0,.785-.069.07.07,0,0,0,.049-.049.059.059,0,0,0-.031-.063c-.038-.024-.928-.532-1.355-.417a.313.313,0,0,0-.191.142.229.229,0,0,0,0,.264C330.713,407.918,331.019,407.956,331.345,407.956Zm.591-.16c-.476.066-1.122.063-1.241-.1-.017-.021-.031-.059,0-.135a.177.177,0,0,1,.118-.083A2.159,2.159,0,0,1,331.936,407.8Z" transform="translate(-261.804 -298.151)"/><path class="a" d="M333.293,406.758a.046.046,0,0,0,.063-.056,1.722,1.722,0,0,0-.4-.983.462.462,0,0,0-.348-.1c-.167.017-.212.1-.226.17-.045.288.566.841.872.98Zm-.622-1.043a.347.347,0,0,1,.212.08,1.442,1.442,0,0,1,.348.785c-.316-.188-.73-.622-.7-.8,0,0,0-.056.118-.066Z" transform="translate(-262.994 -297.023)"/><path class="i" d="M337.848,397.635H335.3l-.257-5.915h2.554Z" transform="translate(-264.728 -287.958)"/><path class="i" d="M397.378,368.427l-1.991,1.6-5.067-3.517,1.995-1.6Z" transform="translate(-300.798 -270.465)"/><path class="l" d="M400.577,375.42l2.036-2.019a.226.226,0,0,1,.278-.028l1.956,1.258a.372.372,0,0,1,.052.584c-.723.695-1.109.994-2.005,1.88-.549.549-1.894,2.182-2.655,2.936s-1.609.1-1.362-.278a8.544,8.544,0,0,0,1.515-3.93A.629.629,0,0,1,400.577,375.42Z" transform="translate(-306.353 -275.964)"/><path class="l" d="M324.23,407.89h2.78a.219.219,0,0,1,.215.174l.5,2.269a.368.368,0,0,1-.365.452c-1.008,0-2.46-.073-3.725-.073-1.477,0-2.752.08-4.486.08-1.043,0-1.338-1.06-.9-1.157,2-.434,3.628-.483,5.352-1.546A1.2,1.2,0,0,1,324.23,407.89Z" transform="translate(-253.646 -298.509)"/><path class="a" d="M372.022,181.227c2.214,1.043,3.128,8.187,3.128,8.187l-5.091,2a40.728,40.728,0,0,1-1.915-5.96C367.431,182.228,369.746,180.143,372.022,181.227Z" transform="translate(-286.242 -150.424)"/><path class="f" d="M372.022,181.227c2.214,1.043,3.128,8.187,3.128,8.187l-5.091,2a40.728,40.728,0,0,1-1.915-5.96C367.431,182.228,369.746,180.143,372.022,181.227Z" transform="translate(-286.242 -150.424)"/><path class="g" d="M368.746,187.428a2.842,2.842,0,0,0-.542-.2,4.678,4.678,0,0,0-.021,2.328,40.478,40.478,0,0,0,1.911,5.96l1.678-.657C371.463,193,370.515,188.276,368.746,187.428Z" transform="translate(-286.264 -154.53)"/><path class="a" d="M334.715,180.122s-2.717,3.068-.153,22.067h13.657c.094-2.085-1.223-12.322.8-22.2a35.743,35.743,0,0,0-4.573-.577,50.482,50.482,0,0,0-5.8,0,25.541,25.541,0,0,0-3.927.709Z" transform="translate(-263.697 -149.375)"/><path class="f" d="M334.715,180.122s-2.717,3.068-.153,22.067h13.657c.094-2.085-1.223-12.322.8-22.2a35.743,35.743,0,0,0-4.573-.577,50.482,50.482,0,0,0-5.8,0,25.541,25.541,0,0,0-3.927.709Z" transform="translate(-263.697 -149.375)"/><path class="g" d="M337.484,189.761c-.619-1.856-2.106-2.45-3.621-1.348a43.319,43.319,0,0,0-.275,9.3l2.665-.024S338.4,192.523,337.484,189.761Z" transform="translate(-263.711 -154.941)"/><path class="i" d="M318.543,190.181c-.111.931-.264,1.776-.434,2.655s-.368,1.738-.594,2.6a29.841,29.841,0,0,1-1.814,5.15c-.2.427-.427.848-.671,1.268-.125.212-.25.424-.393.632a4.393,4.393,0,0,1-.65.8,4.612,4.612,0,0,1-1.668.99,7.521,7.521,0,0,1-1.553.365,12.828,12.828,0,0,1-2.846.035,13.364,13.364,0,0,1-1.355-.177c-.452-.08-.879-.163-1.345-.285l.226-1.9a22.678,22.678,0,0,0,4.7-.7,5.348,5.348,0,0,0,.907-.361,1.3,1.3,0,0,0,.487-.386c-.028.024.226-.4.375-.7s.316-.695.459-1.043c.292-.716.542-1.473.771-2.248s.431-1.564.619-2.363.348-1.605.521-2.433.3-1.647.424-2.415Z" transform="translate(-245.27 -156.122)"/><path class="a" d="M331.217,183.2c.719,2.332-2.2,9.282-2.2,9.282l-6.147-1.546a28.433,28.433,0,0,1,1.887-6.391C326.738,180.2,330.352,180.384,331.217,183.2Z" transform="translate(-256.787 -150.575)"/><path class="f" d="M331.217,183.2c.719,2.332-2.2,9.282-2.2,9.282l-6.147-1.546a28.433,28.433,0,0,1,1.887-6.391C326.738,180.2,330.352,180.384,331.217,183.2Z" transform="translate(-256.787 -150.575)"/><path class="i" d="M300.691,225.933l-2.891-.073,1.39,3.006s1.175.156,2.141-1.432l1.018-1.213-1.171-.236A2.853,2.853,0,0,0,300.691,225.933Z" transform="translate(-240.429 -179.736)"/><path class="i" d="M292.55,226.419l1.658,2.492,1.56-.045-1.393-3.006Z" transform="translate(-237.003 -179.736)"/><path class="g" d="M335.05,391.73l.129,3.048h2.554l-.132-3.048Z" transform="translate(-264.734 -287.965)"/><path class="g" d="M392.315,364.91l-1.995,1.6,2.613,1.814,1.995-1.6Z" transform="translate(-300.798 -270.465)"/><path class="i" d="M349.368,148.015c-.153,2.53-.111,4.017-1.39,5.317a3.365,3.365,0,0,1-5.647-1.738c-.546-2.273-.2-6.026,2.273-7.037a3.454,3.454,0,0,1,4.764,3.458Z" transform="translate(-269.339 -126.515)"/><path class="l" d="M351.834,142.107a1.461,1.461,0,0,1,.914,1.915c-.629,2.307-2.109,4.962-4.021,5.129-2.38.212-3.454-2.245-3.767-4.785-1.425-.976-2.481-1.89-2.141-2.905.521-1.564,2.412-2.912,5.421-2.565S352.748,141.19,351.834,142.107Z" transform="translate(-269.762 -122.956)"/><path class="i" d="M349.565,154.241a2.863,2.863,0,0,1-.716,1.692c-.556.612-1.14.229-1.237-.514-.087-.674.094-1.8.775-2.141S349.61,153.483,349.565,154.241Z" transform="translate(-272.918 -132.309)"/><path class="a" d="M350.155,245.11s-.862,17.208.817,24.5c2.658,11.544,14.345,20.795,14.345,20.795l3.753-3.006s-9.615-7.155-10.481-16.767c-.775-8.632.372-18.546.372-25.521Z" transform="translate(-274.446 -192.296)"/><path class="g" d="M350.155,245.11s-.862,17.208.817,24.5c2.658,11.544,14.345,20.795,14.345,20.795l3.753-3.006s-9.615-7.155-10.481-16.767c-.775-8.632.372-18.546.372-25.521Z" transform="translate(-274.446 -192.296)"/><path class="g" d="M351.448,259.534c-.347-.671-1.025,1.327-1.5,3.892,0,3.538.063,7.562.372,10.971C352.681,270.036,352.181,260.924,351.448,259.534Z" transform="translate(-274.456 -201.622)"/><path class="n" d="M389.3,366.586l1.425,1.105,4.333-3.513-1.3-1.178Z" transform="translate(-300.132 -269.219)"/><path class="o" d="M389.3,366.586l1.425,1.105,4.333-3.513-1.3-1.178Z" transform="translate(-300.132 -269.219)"/><path class="a" d="M328.865,245.11s-3.843,16.3-4.114,24.082c-.3,8.733,2.742,29.326,2.742,29.326h4.326s.532-20.753.726-28.707c.208-8.67,5.3-24.7,5.3-24.7Z" transform="translate(-258 -192.296)"/><path class="g" d="M328.865,245.11s-3.843,16.3-4.114,24.082c-.3,8.733,2.742,29.326,2.742,29.326h4.326s.532-20.753.726-28.707c.208-8.67,5.3-24.7,5.3-24.7Z" transform="translate(-258 -192.296)"/><path class="n" d="M330.288,393.84c-.021,0,.243,1.8.243,1.8h5.261l.142-1.6Z" transform="translate(-261.626 -289.342)"/><path class="o" d="M330.288,393.84c-.021,0,.243,1.8.243,1.8h5.261l.142-1.6Z" transform="translate(-261.626 -289.342)"/></g></g></svg>