<svg xmlns="http://www.w3.org/2000/svg" width="32.213" height="28.312" viewBox="0 0 32.213 28.312"><defs><style>.a{fill:#fff;}</style></defs><g transform="translate(0 0)"><path class="a" d="M29.382,38.556H27.436a12.276,12.276,0,0,0-22.653,0H2.831A2.834,2.834,0,0,0,0,41.388v3.775a2.834,2.834,0,0,0,2.831,2.831H6.7l-.4-1.237a10.4,10.4,0,1,1,9.828,6.9,2.831,2.831,0,1,0,2.817,2.831V55.213a12.316,12.316,0,0,0,8.494-7.219h1.95a2.834,2.834,0,0,0,2.831-2.831V41.388a2.834,2.834,0,0,0-2.831-2.831ZM4.157,46.106H2.831a.945.945,0,0,1-.944-.944V41.388a.945.945,0,0,1,.944-.944H4.168q-.05.212-.093.426A12.455,12.455,0,0,0,4.157,46.106ZM17.05,56.488a.944.944,0,0,1-1.887,0,.954.954,0,0,1,.961-.944q.466,0,.927-.036ZM30.326,45.163a.945.945,0,0,1-.944.944H28.045a12.359,12.359,0,0,0,.169-4.845q-.066-.411-.162-.817h1.331a.945.945,0,0,1,.944.944Z" transform="translate(0 -31.007)"/><path class="a" d="M181,210.993h1.888v1.887H181Z" transform="translate(-169.612 -199.669)"/><path class="a" d="M241,210.993h1.888v1.887H241Z" transform="translate(-225.837 -199.669)"/><path class="a" d="M301,210.993h1.888v1.887H301Z" transform="translate(-282.062 -199.669)"/><path class="a" d="M121,106.093v1.888h8.494a8.493,8.493,0,1,0-6.68-3.247A1.877,1.877,0,0,1,121,106.093Zm8.494-13.212a6.606,6.606,0,1,1,0,13.212H124.27a3.759,3.759,0,0,0,.489-1.54l.037-.4-.268-.3a6.606,6.606,0,0,1,4.965-10.964Z" transform="translate(-113.387 -87.219)"/></g></svg>