<svg xmlns="http://www.w3.org/2000/svg" width="142.539" height="120.383" viewBox="0 0 142.539 120.383"><defs><style>.a{fill:#27a5f0;}.b,.d,.h,.o{fill:#fff;}.b{opacity:0.9;}.c{fill:#f5f5f5;}.d,.l{opacity:0.6;}.e,.f,.g,.l,.n{fill:#4d4d4d;}.e{opacity:0.2;}.f,.o{opacity:0.4;}.g{opacity:0.3;}.h{opacity:0.5;}.i{fill:#e4897b;}.j{fill:#263238;}.k{fill:#de5753;}.m{fill:#ce6f64;}.n{opacity:0.1;}</style></defs><g transform="translate(-48.86 -93.933)"><g transform="translate(62.013 94.777)"><path class="a" d="M105.586,118.589c-27.748,16.194-29.408,70.871,10.06,69.825,17.648-.469,22.8-18.976,38.732-25.471,14.953-6.1,27.845,6.134,42.939-7.722,17.785-16.31,20.34-56.2-6.094-58.866-11.511-1.162-15.949,10.331-26.005,12.874C144.83,114.389,126.2,106.562,105.586,118.589Z" transform="translate(-85.311 -96.272)"/><path class="b" d="M105.586,118.589c-27.748,16.194-29.408,70.871,10.06,69.825,17.648-.469,22.8-18.976,38.732-25.471,14.953-6.1,27.845,6.134,42.939-7.722,17.785-16.31,20.34-56.2-6.094-58.866-11.511-1.162-15.949,10.331-26.005,12.874C144.83,114.389,126.2,106.562,105.586,118.589Z" transform="translate(-85.311 -96.272)"/></g><g transform="translate(51.476 206.147)"><ellipse class="c" cx="69.962" cy="4.085" rx="69.962" ry="4.085" transform="translate(0 0)"/></g><g transform="translate(48.86 93.933)"><path class="a" d="M48.86,150.56,131.119,162.4l11.038,11.139Z" transform="translate(-48.86 -130.127)"/><path class="d" d="M48.86,150.56,131.119,162.4l11.038,11.139Z" transform="translate(-48.86 -130.127)"/><path class="a" d="M48.86,150.56,131.119,162.4,127.3,178.51Z" transform="translate(-48.86 -130.127)"/><path class="e" d="M48.86,150.56,131.119,162.4,127.3,178.51Z" transform="translate(-48.86 -130.127)"/><path class="a" d="M178.2,95.725l4.774,22.372a2.255,2.255,0,0,1-1.732,2.674l-42.607,9.093a2.259,2.259,0,0,1-2.674-1.732l-4.777-22.372a2.259,2.259,0,0,1,1.736-2.674l42.607-9.093a2.259,2.259,0,0,1,2.674,1.736Z" transform="translate(-101.447 -93.94)"/><path class="f" d="M178.2,95.725l4.774,22.372a2.255,2.255,0,0,1-1.732,2.674l-42.607,9.093a2.259,2.259,0,0,1-2.674-1.732l-4.777-22.372a2.259,2.259,0,0,1,1.736-2.674l42.607-9.093a2.259,2.259,0,0,1,2.674,1.736Z" transform="translate(-101.447 -93.94)"/><path class="a" d="M177.876,94.253l-14.235,17.475a9.176,9.176,0,0,1-11.24,2.4L132.27,103.989a2.244,2.244,0,0,1,1.375-.913l42.607-9.093A2.248,2.248,0,0,1,177.876,94.253Z" transform="translate(-102.173 -93.933)"/><path class="a" d="M48.86,150.56l67.847,16.126L127.3,178.51Z" transform="translate(-48.86 -130.127)"/><path class="d" d="M48.86,150.56l67.847,16.126L127.3,178.51Z" transform="translate(-48.86 -130.127)"/><rect class="a" width="0.361" height="8.75" transform="matrix(0.505, -0.863, 0.863, 0.505, 24.567, 36.287)"/><rect class="a" width="0.361" height="3.146" transform="matrix(0.505, -0.863, 0.863, 0.505, 35.451, 42.659)"/><path class="a" d="M48.86,150.56l67.847,16.126L103.519,182.58Z" transform="translate(-48.86 -130.127)"/><path class="a" d="M279.507,244.956a.721.721,0,0,1-.267-.051l-11.049-4.373a.722.722,0,1,1,.53-1.342l11.052,4.373a.722.722,0,0,1-.267,1.393Z" transform="translate(-188.758 -186.745)"/><path class="g" d="M279.507,244.956a.721.721,0,0,1-.267-.051l-11.049-4.373a.722.722,0,1,1,.53-1.342l11.052,4.373a.722.722,0,0,1-.267,1.393Z" transform="translate(-188.758 -186.745)"/><path class="a" d="M286.76,230.95a.689.689,0,0,1-.263-.054l-5.936-2.363a.722.722,0,0,1,.53-1.342l5.936,2.353a.731.731,0,0,1-.267,1.407Z" transform="translate(-196.664 -179.074)"/><path class="h" d="M286.76,230.95a.689.689,0,0,1-.263-.054l-5.936-2.363a.722.722,0,0,1,.53-1.342l5.936,2.353a.731.731,0,0,1-.267,1.407Z" transform="translate(-196.664 -179.074)"/><path class="a" d="M243.793,244.862a.758.758,0,0,1-.263-.051l-10.778-4.279a.722.722,0,1,1,.53-1.342l10.778,4.265a.722.722,0,0,1-.267,1.393Z" transform="translate(-166.105 -186.745)"/><path class="g" d="M243.793,244.862a.758.758,0,0,1-.263-.051l-10.778-4.279a.722.722,0,1,1,.53-1.342l10.778,4.265a.722.722,0,0,1-.267,1.393Z" transform="translate(-166.105 -186.745)"/></g><g transform="translate(125.288 99.54)"><path class="i" d="M365.934,164.82c.956,1.865,1.833,3.735,2.667,5.647s1.609,3.85,2.288,5.882l.245.769c.043.137.1.361.141.52s.069.339.087.491a12.742,12.742,0,0,1,.126,1.757,31.485,31.485,0,0,1-.151,3.247,52.018,52.018,0,0,1-.981,6.214l-1.981-.22c-.025-2.031-.043-4.085-.115-6.087-.032-1-.09-2-.191-2.934a11.015,11.015,0,0,0-.217-1.31c-.018-.1-.047-.177-.069-.26s-.043-.112-.079-.22l-.274-.682c-.754-1.826-1.6-3.666-2.468-5.5l-2.62-5.5Z" transform="translate(-325.654 -144.848)"/><path class="i" d="M377.5,230.42l-.924,1.728,2.952.823a3.079,3.079,0,0,0-.108-2.486Z" transform="translate(-334.756 -186.777)"/><path class="i" d="M373.45,237.7l2.713.216,1.368-1.883-2.952-.823Z" transform="translate(-332.755 -189.839)"/><path class="j" d="M336.973,129.493c-.04.213-.188.361-.325.332s-.213-.22-.17-.429.188-.361.325-.332S337.02,129.284,336.973,129.493Z" transform="translate(-309.117 -121.991)"/><path class="k" d="M334.988,131.26a7.7,7.7,0,0,1-1.368,1.591,1.241,1.241,0,0,0,.963.39Z" transform="translate(-307.297 -123.397)"/><path class="j" d="M338.775,126.347a.13.13,0,0,1-.09-.04,1,1,0,0,0-.841-.339.126.126,0,0,1-.043-.245,1.227,1.227,0,0,1,1.083.415.126.126,0,0,1,0,.177A.13.13,0,0,1,338.775,126.347Z" transform="translate(-309.916 -119.852)"/><path class="i" d="M343.834,138.43c-.379,1.941-.758,5.492.6,6.787,0,0-.53,1.967-4.135,1.967-3.969,0-1.891-1.967-1.891-1.967,2.165-.516,2.1-2.122,1.728-3.626Z" transform="translate(-310.009 -127.98)"/><path class="j" d="M345.064,155.633c.285-.949.6-2.035-.051-2.378-.722-.361-4.644-.758-6-.054s-.967,2.634-.967,2.634Z" transform="translate(-310.096 -137.173)"/><path class="a" d="M379.429,408.883a.848.848,0,0,1-.635-.173.256.256,0,0,1,0-.3.3.3,0,0,1,.2-.148c.39-.087,1.119.411,1.151.433a.072.072,0,0,1,.025.065.058.058,0,0,1-.047.047A3.368,3.368,0,0,1,379.429,408.883Zm-.332-.505h-.076a.17.17,0,0,0-.115.087c-.058.1-.022.144,0,.159.112.152.653.152,1.05.087a2.085,2.085,0,0,0-.859-.325Z" transform="translate(-336.14 -300.442)"/><path class="a" d="M381.133,407.707H381.1c-.274-.152-.8-.722-.751-1.025a.206.206,0,0,1,.2-.166.361.361,0,0,1,.267.079c.307.253.361,1.018.361,1.05a.058.058,0,0,1-.029.058A.051.051,0,0,1,381.133,407.707Zm-.534-1.082h-.014c-.083,0-.09.051-.094.065-.032.177.307.613.577.819a1.512,1.512,0,0,0-.31-.83.231.231,0,0,0-.173-.047Z" transform="translate(-337.165 -299.331)"/><path class="a" d="M335.072,408.87c-.339,0-.668-.047-.779-.2a.238.238,0,0,1,0-.274.317.317,0,0,1,.2-.148c.437-.119,1.368.408,1.407.429a.065.065,0,0,1,.029.065.061.061,0,0,1-.051.05A4.385,4.385,0,0,1,335.072,408.87Zm-.422-.512a.418.418,0,0,0-.119,0,.184.184,0,0,0-.123.087c-.047.079-.029.115,0,.137.119.166.79.177,1.288.108a2.84,2.84,0,0,0-1.046-.325Z" transform="translate(-307.7 -300.429)"/><path class="a" d="M337.1,407.7h-.025c-.321-.141-.953-.722-.906-1.014,0-.072.061-.159.235-.177a.44.44,0,0,1,.361.108,1.771,1.771,0,0,1,.411,1.021.055.055,0,0,1-.076.061Zm-.646-1.082h-.04c-.112,0-.119.058-.123.072-.029.18.4.631.722.826a1.444,1.444,0,0,0-.361-.815.314.314,0,0,0-.184-.076Z" transform="translate(-308.923 -299.326)"/><path class="i" d="M341.665,398.768h-2.652l-.263-6.138H341.4Z" transform="translate(-310.576 -290.457)"/><path class="i" d="M383.884,398.768h-2.652L379.9,392.63h2.649Z" transform="translate(-336.878 -290.457)"/><path class="j" d="M375.738,408.79h2.977a.234.234,0,0,1,.227.184l.523,2.356a.39.39,0,0,1-.39.469c-1.039-.018-1.544-.079-2.854-.079-.8,0-2.465.087-3.579.087s-1.256-1.082-.8-1.2a6.585,6.585,0,0,0,3.464-1.649A.642.642,0,0,1,375.738,408.79Z" transform="translate(-331.572 -300.786)"/><path class="j" d="M328.176,408.79h2.887a.234.234,0,0,1,.227.184l.523,2.356a.386.386,0,0,1-.383.469c-1.043-.018-2.551-.079-3.864-.079-1.534,0-2.861.087-4.662.087-1.082,0-1.389-1.082-.935-1.2,2.075-.455,3.767-.5,5.56-1.606a1.212,1.212,0,0,1,.646-.209Z" transform="translate(-299.721 -300.786)"/><path class="i" d="M294.39,147.168a61.042,61.042,0,0,1-6.607-.877c-1.083-.209-2.187-.444-3.284-.74a26.389,26.389,0,0,1-3.305-1.083c-.278-.115-.559-.242-.837-.361a7.385,7.385,0,0,1-.9-.527c-.52-.343-.967-.7-1.411-1.054-.884-.722-1.7-1.443-2.526-2.183-1.613-1.494-3.143-3.038-4.619-4.662l1.328-1.483,5.236,3.763c.862.621,1.736,1.23,2.594,1.8.426.285.862.552,1.263.779a4.382,4.382,0,0,0,.52.253c.213.083.429.166.657.245a38.97,38.97,0,0,0,5.965,1.335c2.06.325,4.189.592,6.246.808Z" transform="translate(-267.209 -125.277)"/><path class="a" d="M363.086,158.757c2.486.57,5,7.834,5,7.834l-5.113,3.67s-1.443-3.385-2.836-6.343C358.676,160.817,360.545,158.176,363.086,158.757Z" transform="translate(-323.917 -140.921)"/><path class="f" d="M363.086,158.757c2.486.57,5,7.834,5,7.834l-5.113,3.67s-1.443-3.385-2.836-6.343C358.676,160.817,360.545,158.176,363.086,158.757Z" transform="translate(-323.917 -140.921)"/><path class="a" d="M363.454,169.9l-1.014,2.27c1.05,2.266,2.01,4.51,2.266,5.109C364.67,174.6,364.161,171.271,363.454,169.9Z" transform="translate(-325.718 -148.095)"/><path class="l" d="M363.454,169.9l-1.014,2.27c1.05,2.266,2.01,4.51,2.266,5.109C364.67,174.6,364.161,171.271,363.454,169.9Z" transform="translate(-325.718 -148.095)"/><path class="a" d="M325.763,157.823s-2.822,3.186-.159,22.913h14.177c.1-2.165-1.267-12.8.83-23.05a37,37,0,0,0-4.745-.6,52.416,52.416,0,0,0-6.026,0,26.521,26.521,0,0,0-4.077.736Z" transform="translate(-301.443 -139.85)"/><path class="f" d="M325.763,157.823s-2.822,3.186-.159,22.913h14.177c.1-2.165-1.267-12.8.83-23.05a37,37,0,0,0-4.745-.6,52.416,52.416,0,0,0-6.026,0,26.521,26.521,0,0,0-4.077.736Z" transform="translate(-301.443 -139.85)"/><path class="a" d="M324.783,169.9c-.094.747-.166,1.631-.213,2.674a14.823,14.823,0,0,0,3.948-1.855Z" transform="translate(-301.513 -148.095)"/><path class="l" d="M324.783,169.9c-.094.747-.166,1.631-.213,2.674a14.823,14.823,0,0,0,3.948-1.855Z" transform="translate(-301.513 -148.095)"/><path class="a" d="M325.382,161.253c-1.9,1.681-9.143,1.512-9.143,1.512L316,155.75a53.463,53.463,0,0,0,7.386.534C327.424,156.2,327.453,159.4,325.382,161.253Z" transform="translate(-296.035 -139.051)"/><path class="f" d="M325.382,161.253c-1.9,1.681-9.143,1.512-9.143,1.512L316,155.75a53.463,53.463,0,0,0,7.386.534C327.424,156.2,327.453,159.4,325.382,161.253Z" transform="translate(-296.035 -139.051)"/><path class="i" d="M268.129,130.475l-1.8-2.125-1.945,2.165s1.2,2.013,3.1,1.7Z" transform="translate(-263.041 -121.537)"/><path class="i" d="M261.37,121.48l-.7,2.775,1.324,1.855,1.945-2.151Z" transform="translate(-260.67 -117.146)"/><path class="m" d="M338.75,392.64l.137,3.161h2.652l-.137-3.161Z" transform="translate(-310.576 -290.463)"/><path class="m" d="M382.552,392.64H379.9l.686,3.161h2.652Z" transform="translate(-336.878 -290.463)"/><path class="j" d="M340.17,114.352c-2.378-1.082-3.128-5.892,3.713-4.691,0,0-1.032,1.14,1.061,1.862S345.287,116.7,340.17,114.352Z" transform="translate(-310.402 -109.47)"/><path class="i" d="M343.466,124.924c-.682,2.526-.949,4.063-2.526,5.12a3.5,3.5,0,0,1-5.387-2.93c-.083-2.421,1.046-6.17,3.771-6.683a3.587,3.587,0,0,1,4.142,4.492Z" transform="translate(-308.53 -116.433)"/><path class="j" d="M347.685,112.793c1.62.9,3.814,1.443,3.608,2.728-.271,1.57,1.324.588.953,2.923-.242,1.526-3.056,6.152-5.052,5.928-2.98-.361-2.6-4.893-2.612-7.282C344.575,115.68,344.51,111.015,347.685,112.793Z" transform="translate(-314.297 -111.339)"/><path class="j" d="M342.263,119.11c-.722.17-1.678,4.33,1.119,4.712C346.6,124.259,342.263,119.11,342.263,119.11Z" transform="translate(-312.335 -115.632)"/><path class="j" d="M339.095,118.617c-.884.079-2.887-.985-2.641-2.587A9.429,9.429,0,0,0,339.095,118.617Z" transform="translate(-309.095 -113.663)"/><path class="i" d="M343.26,130.669a2.963,2.963,0,0,1-1.31,1.389c-.761.4-1.191-.18-1.018-.945.155-.686.74-1.721,1.523-1.8S343.574,129.947,343.26,130.669Z" transform="translate(-311.947 -122.146)"/><path class="j" d="M358.45,120.315a3.554,3.554,0,0,0,2.086-2.645S361.726,120.979,358.45,120.315Z" transform="translate(-323.168 -114.711)"/><path class="j" d="M363.735,123.5a1.829,1.829,0,0,0-1.725-.17S363.121,121.891,363.735,123.5Z" transform="translate(-325.443 -117.951)"/><path class="a" d="M341.57,222.754s3.009,20.257,4.658,27.845c1.8,8.3,8.624,36,8.624,36h4.853s-4.492-27.015-5.524-35.257c-1.119-8.931-3.464-28.6-3.464-28.6Z" transform="translate(-312.379 -181.869)"/><path class="h" d="M341.57,222.754s3.009,20.257,4.658,27.845c1.8,8.3,8.624,36,8.624,36h4.853s-4.492-27.015-5.524-35.257c-1.119-8.931-3.464-28.6-3.464-28.6Z" transform="translate(-312.379 -181.869)"/><path class="a" d="M376.229,394.75c-.022,0,.5,1.865.5,1.865h5.463l-.1-1.663Z" transform="translate(-334.531 -291.812)"/><path class="n" d="M376.229,394.75c-.022,0,.5,1.865.5,1.865h5.463l-.1-1.663Z" transform="translate(-334.531 -291.812)"/><path class="a" d="M345.453,242.73c3.478.682,3.11,13.654,2.692,20.326-1-4.716-2.472-13.791-3.475-20.232A1.187,1.187,0,0,1,345.453,242.73Z" transform="translate(-314.36 -194.627)"/><path class="o" d="M345.453,242.73c3.478.682,3.11,13.654,2.692,20.326-1-4.716-2.472-13.791-3.475-20.232A1.187,1.187,0,0,1,345.453,242.73Z" transform="translate(-314.36 -194.627)"/><path class="a" d="M327.3,222.78s-.361,19.817-.076,27.9c.3,8.407,3.248,35.939,3.248,35.939h4.489s.166-27.041.361-35.3c.22-9,1.306-28.545,1.306-28.545Z" transform="translate(-303.14 -181.894)"/><path class="h" d="M327.3,222.78s-.361,19.817-.076,27.9c.3,8.407,3.248,35.939,3.248,35.939h4.489s.166-27.041.361-35.3c.22-9,1.306-28.545,1.306-28.545Z" transform="translate(-303.14 -181.894)"/><path class="a" d="M333.614,286.017a.043.043,0,0,1-.043-.04c-.794-7.621-2.659-26.059-2.887-32.673-.242-6.751-.022-21.9.051-26.38a.043.043,0,0,1,.043-.043h0a.047.047,0,0,1,.047.043c-.072,4.482-.292,19.629-.051,26.377.234,6.614,2.1,25.045,2.887,32.666a.05.05,0,0,1-.043.05Z" transform="translate(-305.35 -184.515)"/><path class="o" d="M333.614,286.017a.043.043,0,0,1-.043-.04c-.794-7.621-2.659-26.059-2.887-32.673-.242-6.751-.022-21.9.051-26.38a.043.043,0,0,1,.043-.043h0a.047.047,0,0,1,.047.043c-.072,4.482-.292,19.629-.051,26.377.234,6.614,2.1,25.045,2.887,32.666a.05.05,0,0,1-.043.05Z" transform="translate(-305.35 -184.515)"/><path class="a" d="M334,394.75c-.018,0,.256,1.865.256,1.865h5.459l.148-1.663Z" transform="translate(-307.539 -291.812)"/><path class="n" d="M334,394.75c-.018,0,.256,1.865.256,1.865h5.459l.148-1.663Z" transform="translate(-307.539 -291.812)"/></g></g></svg>