<svg xmlns="http://www.w3.org/2000/svg" width="545.606" height="298.883" viewBox="0 0 545.606 298.883"><defs><style>.a{fill:#f5f5f5;}.b{fill:#e0e0e0;}.c{fill:#ebebeb;}.d{fill:#fafafa;}.e{fill:#fff;}.f{fill:#263238;}.g{fill:#27a5f0;}.h{fill:#455a64;}.i{fill:#ffbe9d;}.j{fill:#eb996e;}.k{opacity:0.6;}.l{opacity:0.2;}.m{fill:#4d4d4d;}</style></defs><g transform="translate(-58.64 -70.85)"><g transform="translate(58.64 70.85)"><rect class="a" width="48.819" height="66.806" transform="translate(151.716 37.145) rotate(-12.19)"/><rect class="a" width="162.636" height="105.758" transform="translate(263.986)"/><circle class="b" cx="22.128" cy="22.128" r="22.128" transform="translate(318.62 64.788) rotate(-76.57)"/><path class="a" d="M466.453,126l-5.777,3.332-5.786,3.341V119.33l5.786,3.332Z" transform="translate(-113.714 -77.588)"/><rect class="b" width="162.636" height="19.003" transform="translate(263.986 86.764)"/><path class="a" d="M382.833,182.214l-2.342,1.36-2.351,1.352V179.51l2.351,1.352Z" transform="translate(-103.047 -85.952)"/><rect class="a" width="119.965" height="0.861" transform="translate(293.269 95.831)"/><path class="a" d="M401.492,182.362a1.791,1.791,0,1,1-1.791-1.782,1.791,1.791,0,0,1,1.791,1.782Z" transform="translate(-105.795 -86.101)"/><rect class="a" width="166.502" height="150.057" rx="5.49" transform="translate(379.103 76.174)"/><path class="c" d="M504.459,159.32H659.923a5.519,5.519,0,0,1,5.519,5.519v11.236H498.94V164.839A5.519,5.519,0,0,1,504.459,159.32Z" transform="translate(-119.837 -83.146)"/><circle class="d" cx="1.317" cy="1.317" r="1.317" transform="translate(387.946 83.26)"/><path class="d" d="M520.995,168.869a1.317,1.317,0,1,1-1.317-1.309,1.317,1.317,0,0,1,1.317,1.309Z" transform="translate(-122.536 -84.292)"/><circle class="d" cx="1.317" cy="1.317" r="1.317" transform="translate(403.703 83.26)"/><rect class="d" width="62.871" height="2.273" transform="translate(462.708 106.438)"/><rect class="d" width="62.871" height="2.273" transform="translate(462.708 115.797)"/><rect class="d" width="62.871" height="2.273" transform="translate(462.708 125.165)"/><rect class="d" width="62.871" height="2.273" transform="translate(462.708 134.533)"/><rect class="d" width="31.436" height="2.273" transform="translate(462.708 143.892)"/><rect class="d" width="62.871" height="2.273" transform="translate(458.799 164.591) rotate(180)"/><rect class="d" width="62.871" height="2.273" transform="translate(458.799 173.95) rotate(180)"/><rect class="d" width="62.871" height="2.273" transform="translate(458.799 183.318) rotate(180)"/><rect class="d" width="62.871" height="2.273" transform="translate(458.799 192.677) rotate(180)"/><rect class="d" width="31.436" height="2.273" transform="translate(458.799 202.045) rotate(180)"/><rect class="d" width="53.805" height="44.764" transform="translate(469.665 159.795)"/><path class="c" d="M604.02,289.788l15.894-11.142,11.1,7.68,17.444-14.766,9.454,9.368v22.378h-53.8Z" transform="translate(-134.441 -98.746)"/><circle class="c" cx="4.503" cy="4.503" r="4.503" transform="translate(492.998 168.311)"/><rect class="d" width="53.805" height="44.764" transform="translate(395.936 105.061)"/><path class="c" d="M518.38,226.218l15.894-11.142,11.1,7.672,17.444-14.758,9.454,9.359v22.386h-53.8Z" transform="translate(-122.539 -89.911)"/><circle class="c" cx="4.503" cy="4.503" r="4.503" transform="translate(419.261 113.576)"/><path class="a" d="M58.64,240.54H258.946V345.032a4,4,0,0,1-4,4H62.644a4,4,0,0,1-4-4Z" transform="translate(-58.64 -94.435)"/><rect class="c" width="200.306" height="20.156" transform="translate(0 146.105)"/><circle class="d" cx="1.584" cy="1.584" r="1.584" transform="translate(10.633 154.638)"/><circle class="d" cx="1.584" cy="1.584" r="1.584" transform="translate(20.113 154.638)"/><circle class="d" cx="1.584" cy="1.584" r="1.584" transform="translate(29.593 154.638)"/><rect class="c" width="75.64" height="2.738" transform="translate(100.583 182.517)"/><rect class="c" width="75.64" height="2.738" transform="translate(100.583 193.779)"/><rect class="c" width="75.64" height="2.738" transform="translate(100.583 205.041)"/><rect class="c" width="75.64" height="2.738" transform="translate(100.583 216.312)"/><rect class="c" width="37.816" height="2.738" transform="translate(100.583 227.574)"/><rect class="d" width="64.722" height="53.856" transform="translate(16.661 180.597)"/><path class="c" d="M77.86,320.72l19.132-13.406,13.346,9.239L131.32,298.79l11.374,11.262v26.932H77.972Z" transform="translate(-61.311 -102.531)"/><path class="c" d="M121.419,297.914A5.424,5.424,0,1,1,116,292.49,5.424,5.424,0,0,1,121.419,297.914Z" transform="translate(-65.858 -101.655)"/></g><g transform="translate(204.151 109.251)"><rect class="e" width="48.819" height="66.806" transform="translate(0.194 10.529) rotate(-12.19)"/><path class="f" d="M289.641,180.982l-.077-.319c-.052-.215-.121-.525-.207-.921-.189-.861-.456-2.015-.8-3.556-.68-3.125-1.679-7.663-2.945-13.406-2.506-11.486-6.027-27.776-10.263-47.054l.241.155-47.709,10.332h0l.172-.267c5.252,24.392,10.117,46.977,14.06,65.308l-.215-.146,34.673-7.387,9.652-2.041,2.583-.525.861-.172s-.276.077-.861.207l-2.506.56-9.592,2.118-34.742,7.6h-.181V191.3c-3.969-18.331-8.86-40.907-14.146-65.291v-.224h.215l47.717-10.332h.2l.043.2c4.133,19.356,7.629,35.706,10.091,47.226,1.214,5.734,2.178,10.263,2.833,13.38.327,1.533.568,2.721.74,3.53l.181.9q0,.147-.017.293Z" transform="translate(-227.64 -115.45)"/><path class="f" d="M261.257,135.608c0,.129-5.166,1.343-11.546,2.729s-11.615,2.4-11.641,2.282,5.166-1.335,11.546-2.721S261.257,135.488,261.257,135.608Z" transform="translate(-229.09 -118.25)"/><path class="f" d="M275.232,139.059c0,.121-7.956,1.946-17.814,4.073s-17.892,3.763-17.918,3.642,7.956-1.946,17.823-4.073S275.232,138.938,275.232,139.059Z" transform="translate(-229.288 -118.731)"/><path class="f" d="M276.741,145.929c0,.121-7.947,1.946-17.814,4.081s-17.883,3.728-17.926,3.642,7.947-1.946,17.814-4.081S276.715,145.808,276.741,145.929Z" transform="translate(-229.497 -119.685)"/><path class="f" d="M278.232,152.809c0,.121-7.956,1.946-17.814,4.073s-17.892,3.763-17.918,3.642,7.947-1.946,17.823-4.073S278.232,152.688,278.232,152.809Z" transform="translate(-229.705 -120.642)"/><path class="f" d="M279.715,159.679c0,.121-7.947,1.946-17.814,4.081S244,167.523,244,167.4s7.947-1.946,17.814-4.081S279.689,159.558,279.715,159.679Z" transform="translate(-229.914 -121.596)"/><path class="f" d="M281.232,166.559c0,.121-7.956,1.946-17.814,4.073s-17.892,3.763-17.918,3.642,7.947-1.946,17.823-4.081S281.18,166.438,281.232,166.559Z" transform="translate(-230.122 -122.553)"/><path class="f" d="M282.689,173.429c0,.121-7.947,1.946-17.814,4.081S247,181.273,247,181.152s7.947-1.946,17.814-4.081S282.663,173.308,282.689,173.429Z" transform="translate(-230.331 -123.508)"/><path class="f" d="M267.649,184.448c0,.121-4.253,1.154-9.557,2.3s-9.626,1.972-9.652,1.851,4.253-1.145,9.557-2.29S267.623,184.328,267.649,184.448Z" transform="translate(-230.531 -125.038)"/></g><g transform="translate(458.838 260.712)"><path class="g" d="M542.57,309.85,554.779,341.2l5.1-8.223,7.052,9.265,8.412-8-8.016-7.732,7.4-5Z" transform="translate(-526.099 -293.93)"/><path class="f" d="M535.754,315.23a32.871,32.871,0,0,1-4.451,3.091,32.251,32.251,0,0,1-4.693,2.7,34.02,34.02,0,0,1,4.451-3.082A32.835,32.835,0,0,1,535.754,315.23Z" transform="translate(-523.881 -294.678)"/><path class="f" d="M536.26,307.06a8.162,8.162,0,0,1-1.963-.517c-1.188-.379-2.824-.956-4.589-1.722s-3.349-1.421-4.477-1.954a9.2,9.2,0,0,1-1.791-.947,9.1,9.1,0,0,1,1.911.654l4.52,1.834,4.538,1.8A9.473,9.473,0,0,1,536.26,307.06Z" transform="translate(-523.44 -292.828)"/><path class="f" d="M542.61,291.36a6.814,6.814,0,0,1,.448,1.722c.207,1.076.456,2.583.663,4.245s.344,3.186.4,4.305a6.767,6.767,0,0,1,0,1.791,59.226,59.226,0,0,1-.861-6.027A56.924,56.924,0,0,1,542.61,291.36Z" transform="translate(-526.104 -291.36)"/><path class="f" d="M560.722,299.51c.052.121-2.2,1.093-4.753,2.729s-4.563,3.057-4.641,2.945.422-.465,1.214-1.076a38.321,38.321,0,0,1,3.186-2.247A16.557,16.557,0,0,1,560.722,299.51Z" transform="translate(-527.315 -292.493)"/></g><g transform="translate(159.724 266.166)"><path class="f" d="M207.527,313.5a25.484,25.484,0,0,0-.577-3.8,15.172,15.172,0,0,0-1.722-4.116,15.6,15.6,0,0,0-3.952-4.383,15.438,15.438,0,0,0-14.637-2.187,14.781,14.781,0,0,0-3.9,2.1,14.016,14.016,0,0,0-3.255,3.28,15.317,15.317,0,0,0,0,18.2,14.208,14.208,0,0,0,3.255,3.272,14.543,14.543,0,0,0,3.9,2.1,15.438,15.438,0,0,0,14.637-2.187,15.7,15.7,0,0,0,3.952-4.374,15.2,15.2,0,0,0,1.722-4.124,25.476,25.476,0,0,0,.577-3.788s0,.086,0,.25v.749a6.612,6.612,0,0,1-.1,1.205,10.406,10.406,0,0,1-.293,1.627,14.637,14.637,0,0,1-1.722,4.2,15.712,15.712,0,0,1-18.916,6.828,15.869,15.869,0,0,1-7.362-5.5,15.731,15.731,0,0,1,0-18.727,19.906,19.906,0,0,1,1.558-1.834,18.949,18.949,0,0,1,1.8-1.524,15.137,15.137,0,0,1,4-2.144,15.742,15.742,0,0,1,18.916,6.828,14.741,14.741,0,0,1,1.722,4.2,10.409,10.409,0,0,1,.293,1.627,6.759,6.759,0,0,1,.1,1.214v.74A1.579,1.579,0,0,1,207.527,313.5Z" transform="translate(-176.041 -297.694)"/><path class="f" d="M194.42,322.628a69.8,69.8,0,0,1-.224-7.844,69.8,69.8,0,0,1,.224-7.844,66.185,66.185,0,0,1,.232,7.844A66.192,66.192,0,0,1,194.42,322.628Z" transform="translate(-178.56 -298.979)"/><path class="f" d="M201.039,316.009a69.564,69.564,0,0,1-7.835.224,69.651,69.651,0,0,1-7.844-.224,67.287,67.287,0,0,1,7.844-.224,67.207,67.207,0,0,1,7.835.224Z" transform="translate(-177.336 -300.205)"/></g><g transform="translate(207.954 214.295)"><path class="f" d="M483.262,362.59c-.1.06-10.918-16.661-24.151-37.359s-23.884-37.54-23.781-37.6,10.909,16.678,24.117,37.342S483.323,362.521,483.262,362.59Z" transform="translate(-260.309 -244.424)"/><circle class="e" cx="25.098" cy="25.098" r="25.098" transform="translate(202.513 104.492)"/><path class="f" d="M467.26,383.912v-.4c0-.267,0-.689.043-1.2v-.861a9.061,9.061,0,0,1,.138-1.05,18.624,18.624,0,0,1,.491-2.583,23.755,23.755,0,0,1,2.738-6.733A25.262,25.262,0,0,1,487.7,359.038a24.163,24.163,0,0,1,3.194-.379c.542,0,1.094-.077,1.645-.069l1.679.086a11.365,11.365,0,0,1,1.722.181c.56.086,1.137.155,1.722.267a28.291,28.291,0,0,1,6.673,2.428c.534.293,1.05.629,1.584.938a12.958,12.958,0,0,1,1.524,1.05,22.886,22.886,0,0,1,5.355,5.373,24.16,24.16,0,0,1,3.625,6.966,25.125,25.125,0,0,1,0,15.98,24.583,24.583,0,0,1-3.625,6.983,29.152,29.152,0,0,1-2.488,2.927,27.436,27.436,0,0,1-2.876,2.437,12.972,12.972,0,0,1-1.524,1.05c-.534.319-1.05.654-1.584.938a25.89,25.89,0,0,1-3.3,1.446,26.954,26.954,0,0,1-3.384.982c-.56.121-1.137.181-1.722.276a11.353,11.353,0,0,1-1.722.181l-1.679.077c-.551,0-1.1-.043-1.645-.069a23.071,23.071,0,0,1-3.2-.379,25.3,25.3,0,0,1-16.988-11.951,23.952,23.952,0,0,1-2.738-6.733,19.1,19.1,0,0,1-.491-2.583c-.052-.387-.112-.732-.138-1.059s0-.611,0-.861a9.265,9.265,0,0,0-.043-1.2.91.91,0,0,1,0-.4,2.856,2.856,0,0,0,.043.4c.043.267.043.68.077,1.188l.06.861a8.876,8.876,0,0,0,.155,1.05,19.514,19.514,0,0,0,.534,2.583,23.857,23.857,0,0,0,2.781,6.647,25.09,25.09,0,0,0,16.841,11.718,23.686,23.686,0,0,0,3.151.362c.542,0,1.076.069,1.627.06l1.645-.086a10.779,10.779,0,0,0,1.662-.181c.56-.095,1.119-.155,1.679-.276a27.406,27.406,0,0,0,3.315-.973,26.385,26.385,0,0,0,3.246-1.429c.525-.284,1.033-.62,1.55-.93a12.631,12.631,0,0,0,1.507-1.033,26.312,26.312,0,0,0,2.815-2.4,27.194,27.194,0,0,0,2.445-2.884,24.106,24.106,0,0,0,3.556-6.888,24.728,24.728,0,0,0,0-15.7,24.109,24.109,0,0,0-3.556-6.888,27.118,27.118,0,0,0-2.437-2.884,28.409,28.409,0,0,0-2.816-2.4,12.616,12.616,0,0,0-1.507-1.033c-.517-.31-1.025-.637-1.55-.93a25.071,25.071,0,0,0-3.246-1.421,25.991,25.991,0,0,0-3.315-.982c-.56-.112-1.119-.181-1.679-.267a10.8,10.8,0,0,0-1.662-.189l-1.645-.086c-.542,0-1.085.052-1.627.069a22.065,22.065,0,0,0-3.143.362,24.969,24.969,0,0,0-16.85,11.718,23.75,23.75,0,0,0-2.781,6.647,18.94,18.94,0,0,0-.534,2.583c-.052.379-.121.723-.155,1.05s-.043.611-.06.861c0,.508-.06.861-.078,1.2A2.062,2.062,0,0,1,467.26,383.912Z" transform="translate(-264.747 -254.287)"/><path class="f" d="M487.905,377.25l-3.435,19.631,10.281-1.412,10.281,1.412L500.89,377.25Z" transform="translate(-267.139 -256.881)"/><path class="f" d="M500.042,376.812c-.078,0-.284-.706-.861-1.722a5.485,5.485,0,0,0-1.231-1.593,4.121,4.121,0,0,0-1.008-.586,3.8,3.8,0,0,0-1.231-.207,4.3,4.3,0,0,0-2.342.56,3.736,3.736,0,0,0-1.283,1.507c-.517,1.05-.689,1.782-.766,1.765a4.735,4.735,0,0,1,.482-1.9,3.814,3.814,0,0,1,1.343-1.722,4.434,4.434,0,0,1,2.583-.663,4.071,4.071,0,0,1,1.378.25,3.935,3.935,0,0,1,1.119.68,5.357,5.357,0,0,1,1.248,1.765A4.908,4.908,0,0,1,500.042,376.812Z" transform="translate(-268.091 -256.185)"/><path class="f" d="M380.054,364.178c-.129,0-.224-17.281-.224-38.6s.095-38.6.224-38.6.224,17.272.224,38.6S380.174,364.178,380.054,364.178Z" transform="translate(-252.595 -244.334)"/><circle class="e" cx="25.098" cy="25.098" r="25.098" transform="translate(101.843 105.052)"/><path class="f" d="M350.34,384.536v-2.462a9.232,9.232,0,0,1,.146-1.05,16.6,16.6,0,0,1,.491-2.583,23.694,23.694,0,0,1,2.738-6.733A25.21,25.21,0,0,1,370.7,359.748a24.347,24.347,0,0,1,3.194-.379c.551,0,1.1-.069,1.653-.069l1.67.086a11.114,11.114,0,0,1,1.722.181c.568.086,1.137.155,1.722.267a26.879,26.879,0,0,1,3.392.93,26.48,26.48,0,0,1,3.306,1.438c.534.293,1.05.629,1.576.938a14.206,14.206,0,0,1,1.576,1.068,30.539,30.539,0,0,1,2.876,2.437,29.02,29.02,0,0,1,2.48,2.936,24.644,24.644,0,0,1,3.625,6.974,25.047,25.047,0,0,1,0,15.98,24.212,24.212,0,0,1-3.625,6.974,27.991,27.991,0,0,1-2.48,2.927,29.281,29.281,0,0,1-2.876,2.437,13.048,13.048,0,0,1-1.533,1.05c-.525.319-1.042.654-1.576.938a26.552,26.552,0,0,1-3.306,1.447,26.857,26.857,0,0,1-3.375.982c-.568.121-1.137.181-1.722.276a11.121,11.121,0,0,1-1.722.181l-1.67.078c-.56,0-1.1-.043-1.653-.069a22.8,22.8,0,0,1-3.194-.379,25.245,25.245,0,0,1-16.988-11.951,23.7,23.7,0,0,1-2.738-6.733,16.782,16.782,0,0,1-.491-2.583c-.052-.387-.112-.732-.146-1.059a7.14,7.14,0,0,1,0-.861v-1.6a3.766,3.766,0,0,1,.043.4c0,.284.052.68.086,1.188a7.83,7.83,0,0,0,.052.861,7.483,7.483,0,0,0,.164,1.05,19.358,19.358,0,0,0,.525,2.583,24.178,24.178,0,0,0,2.79,6.647,25.09,25.09,0,0,0,16.781,11.658,23.684,23.684,0,0,0,3.151.362c.534,0,1.076.069,1.619.06l1.653-.086a11.021,11.021,0,0,0,1.662-.181c.551-.095,1.119-.155,1.67-.276a26.054,26.054,0,0,0,3.323-.973,26.364,26.364,0,0,0,3.246-1.429c.525-.284,1.025-.62,1.55-.921a13.7,13.7,0,0,0,1.5-1.042,27.333,27.333,0,0,0,2.824-2.394,28.278,28.278,0,0,0,2.437-2.893,24,24,0,0,0,3.556-6.888,24.651,24.651,0,0,0,0-15.7,24.107,24.107,0,0,0-3.556-6.888,29.132,29.132,0,0,0-2.437-2.884,28.536,28.536,0,0,0-2.824-2.4,12.518,12.518,0,0,0-1.5-1.033c-.525-.31-1.025-.637-1.55-.921a24,24,0,0,0-3.246-1.429,26.108,26.108,0,0,0-3.323-.982c-.551-.112-1.119-.181-1.67-.267a9.916,9.916,0,0,0-1.662-.181l-1.645-.086c-.551,0-1.093.043-1.627.06a22.329,22.329,0,0,0-3.151.362A25.09,25.09,0,0,0,354,371.69a24.109,24.109,0,0,0-2.79,6.647,18.846,18.846,0,0,0-.525,2.583c-.06.379-.129.723-.164,1.05s0,.611-.052.861a11.452,11.452,0,0,1-.086,1.2A3.748,3.748,0,0,1,350.34,384.536Z" transform="translate(-248.497 -254.386)"/><path class="f" d="M377.733,375.55l-10.883,9.893v12.545h8.472v-7.517h5.4v7.517h7.9V385.443Z" transform="translate(-250.791 -256.644)"/><path class="f" d="M267.25,363.426c-.1-.06,10.7-17.151,24.108-38.151s24.41-37.988,24.513-37.884-10.7,17.143-24.108,38.16S267.353,363.495,267.25,363.426Z" transform="translate(-236.948 -244.391)"/><circle class="e" cx="25.098" cy="25.098" r="25.098" transform="translate(1.139 104.733)"/><path class="f" d="M283.539,384.158a3.773,3.773,0,0,1-.043-.4c0-.293-.052-.689-.086-1.2a5.116,5.116,0,0,0-.052-.861c-.052-.31-.1-.672-.164-1.05a17.639,17.639,0,0,0-.525-2.583,23.807,23.807,0,0,0-2.79-6.647A25.09,25.09,0,0,0,263.039,359.7a22.337,22.337,0,0,0-3.151-.362c-.534,0-1.076-.069-1.619-.06l-1.653.086a10,10,0,0,0-1.662.181c-.551.086-1.119.155-1.67.267a26.105,26.105,0,0,0-3.324.982,24.968,24.968,0,0,0-3.246,1.429c-.525.284-1.025.611-1.55.921a13.257,13.257,0,0,0-1.5,1.033,29.556,29.556,0,0,0-2.824,2.4,29.147,29.147,0,0,0-2.437,2.884,24.109,24.109,0,0,0-3.556,6.888,24.651,24.651,0,0,0,0,15.7,24.006,24.006,0,0,0,3.556,6.888,28.279,28.279,0,0,0,2.437,2.893,27.336,27.336,0,0,0,2.824,2.394,12.612,12.612,0,0,0,1.5,1.042c.525.3,1.025.637,1.55.921a27.553,27.553,0,0,0,3.246,1.429,24.728,24.728,0,0,0,3.324.973c.551.121,1.119.181,1.67.276a11.013,11.013,0,0,0,1.662.181l1.653.086a14.455,14.455,0,0,0,1.619-.06,23.362,23.362,0,0,0,3.151-.362,25.03,25.03,0,0,0,16.841-11.718,23.909,23.909,0,0,0,2.79-6.647,18.083,18.083,0,0,0,.525-2.583c.06-.379.129-.732.164-1.05l.052-.861c0-.508.069-.861.086-1.188a3.765,3.765,0,0,1,.043-.4v2.462a9.36,9.36,0,0,1-.146,1.059,17.759,17.759,0,0,1-.482,2.583,23.748,23.748,0,0,1-2.747,6.733,25.245,25.245,0,0,1-17.014,11.9,22.8,22.8,0,0,1-3.194.379c-.542,0-1.093.077-1.653.069l-1.67-.078a11.116,11.116,0,0,1-1.722-.181c-.568-.095-1.137-.155-1.722-.276a26.84,26.84,0,0,1-3.375-.982,26.547,26.547,0,0,1-3.306-1.446c-.534-.284-1.05-.62-1.576-.938a13.051,13.051,0,0,1-1.533-1.05,29.274,29.274,0,0,1-2.876-2.437,28,28,0,0,1-2.48-2.927,24.643,24.643,0,0,1-3.625-6.974,25.047,25.047,0,0,1,0-15.98,24.643,24.643,0,0,1,3.625-6.974,29.1,29.1,0,0,1,2.488-2.936,29.4,29.4,0,0,1,2.867-2.437,14.209,14.209,0,0,1,1.533-1.05c.534-.31,1.042-.646,1.576-.939a26.494,26.494,0,0,1,3.306-1.438,25.463,25.463,0,0,1,3.375-.982c.568-.121,1.137-.189,1.722-.276a11.109,11.109,0,0,1,1.722-.181l1.67-.086c.56,0,1.1.052,1.653.069a24.159,24.159,0,0,1,3.194.379,25.21,25.21,0,0,1,16.988,11.959,23.748,23.748,0,0,1,2.747,6.733,17.552,17.552,0,0,1,.482,2.583c.052.379.121.732.146,1.05s0,.62,0,.861v1.2A3.247,3.247,0,0,0,283.539,384.158Z" transform="translate(-232.203 -254.326)"/><rect class="f" width="19.709" height="26.132" transform="translate(16.242 116.762)"/><path class="h" d="M262.426,377.874a23.463,23.463,0,0,1-6.466,0A23.46,23.46,0,0,1,262.426,377.874Z" transform="translate(-235.379 -256.936)"/><path class="h" d="M268.011,382.14a47.633,47.633,0,0,1-6.475.224,47.458,47.458,0,0,1-6.466-.224,47.468,47.468,0,0,1,6.466-.224,47.644,47.644,0,0,1,6.475.224Z" transform="translate(-235.255 -257.525)"/><path class="h" d="M268.011,384.738a47.643,47.643,0,0,1-6.475.224,47.458,47.458,0,0,1-6.466-.224,45.015,45.015,0,0,1,6.466-.233A45.179,45.179,0,0,1,268.011,384.738Z" transform="translate(-235.255 -257.885)"/><path class="h" d="M268.011,387.33a47.638,47.638,0,0,1-6.475.224,47.458,47.458,0,0,1-6.466-.224,47.468,47.468,0,0,1,6.466-.224,47.639,47.639,0,0,1,6.475.224Z" transform="translate(-235.255 -258.247)"/><path class="h" d="M268.011,389.958a47.638,47.638,0,0,1-6.475.224,47.453,47.453,0,0,1-6.466-.224,45.006,45.006,0,0,1,6.466-.233A45.179,45.179,0,0,1,268.011,389.958Z" transform="translate(-235.255 -258.61)"/><path class="h" d="M268.011,392.52a47.643,47.643,0,0,1-6.475.224,47.453,47.453,0,0,1-6.466-.224,47.463,47.463,0,0,1,6.466-.224,47.653,47.653,0,0,1,6.475.224Z" transform="translate(-235.255 -258.968)"/><path class="h" d="M268.011,395.11a45.188,45.188,0,0,1-6.475.232,45.012,45.012,0,0,1-6.466-.232,47.465,47.465,0,0,1,6.466-.224,47.653,47.653,0,0,1,6.475.224Z" transform="translate(-235.255 -259.328)"/><path class="h" d="M268.011,397.71a47.638,47.638,0,0,1-6.475.224,47.468,47.468,0,0,1-6.466-.224,47.458,47.458,0,0,1,6.466-.224,47.644,47.644,0,0,1,6.475.224Z" transform="translate(-235.255 -259.689)"/><rect class="e" width="263.168" height="43.214" rx="21.607" transform="translate(0.227 0.387)"/><path class="g" d="M470.25,237.45v43.6h36.808a21.809,21.809,0,0,0,21.81-21.8h0a21.8,21.8,0,0,0-21.809-21.8Z" transform="translate(-265.163 -237.45)"/><path class="e" d="M506.991,259.85a20,20,0,0,0-.37-2.221,9.2,9.2,0,0,0-3.358-4.968,9.006,9.006,0,0,0-8.541-1.257,8.439,8.439,0,0,0-2.282,1.248,8.986,8.986,0,0,0-1.9,12.536,8.353,8.353,0,0,0,1.9,1.911,8.464,8.464,0,0,0,2.273,1.231,9.11,9.11,0,0,0,11.9-6.208,19.91,19.91,0,0,0,.37-2.23,7.206,7.206,0,0,1-.207,2.273,9.17,9.17,0,0,1-3.332,5.166,9.3,9.3,0,0,1-8.868,1.395,8.677,8.677,0,0,1-2.394-1.274,8.973,8.973,0,0,1-2-2,9.386,9.386,0,0,1,9.325-14.792,9.273,9.273,0,0,1,7.267,6.957A7.157,7.157,0,0,1,506.991,259.85Z" transform="translate(-267.678 -239.263)"/><path class="e" d="M518.249,275.123a47.586,47.586,0,0,1-5.3-3.522,45.489,45.489,0,0,1-5.046-3.892,46.157,46.157,0,0,1,5.3,3.522,45.485,45.485,0,0,1,5.045,3.892Z" transform="translate(-270.396 -241.656)"/><rect class="c" width="160.88" height="9.247" transform="translate(25.248 17.943)"/><path class="f" d="M474.968,281.063s.508,0,1.49-.095a13.6,13.6,0,0,0,1.817-.232,18.722,18.722,0,0,0,2.471-.56,20.733,20.733,0,0,0,6.3-3.169l.861-.637c.276-.241.542-.5.818-.749a17.7,17.7,0,0,0,1.636-1.67c.56-.585,1-1.3,1.533-1.98l.672-1.111.344-.577.293-.611a19.8,19.8,0,0,0,1.808-5.442c.069-.5.146-1.007.224-1.515a15.628,15.628,0,0,0,.086-1.567v-3.255A20.363,20.363,0,0,0,475.6,238.021c-5.872-.052-12.106,0-18.632,0l-204.189.069a20.4,20.4,0,0,0-13.432,5.114,20.1,20.1,0,0,0-6.656,12.536,15.376,15.376,0,0,0-.146,1.791c0,.594-.043,1.2,0,1.8a35.3,35.3,0,0,0,.138,3.59,19.614,19.614,0,0,0,2.041,6.785,20.406,20.406,0,0,0,10.014,9.471,20.665,20.665,0,0,0,6.716,1.61c1.145.078,2.307.069,3.444.069h43.7l91.8.052,61.881.069,16.833.043h0l-16.833.043-61.881.069-91.8.052H254.885c-1.162,0-2.316,0-3.5-.069a20.561,20.561,0,0,1-17.1-11.322,20.027,20.027,0,0,1-2.084-6.931,34.352,34.352,0,0,1-.146-3.642c0-.6,0-1.205.043-1.817a14.5,14.5,0,0,1,.146-1.834,20.518,20.518,0,0,1,6.793-12.812,20.871,20.871,0,0,1,13.776-5.226l204.189.069c6.535,0,12.752,0,18.641.043a20.6,20.6,0,0,1,19.932,20.148v3.272c0,.534-.06,1.059-.095,1.576s-.155,1.033-.233,1.533a19.8,19.8,0,0,1-1.843,5.485l-.293.62-.353.568c-.232.387-.456.758-.689,1.128a24.653,24.653,0,0,1-1.55,1.98,16.007,16.007,0,0,1-1.645,1.679c-.284.258-.56.517-.861.749l-.861.646a20.665,20.665,0,0,1-6.354,3.143,18.6,18.6,0,0,1-2.488.542,12.978,12.978,0,0,1-1.825.207A14.623,14.623,0,0,1,474.968,281.063Z" transform="translate(-232.057 -237.461)"/></g><g transform="translate(252.04 125.936)"><path class="i" d="M378.9,255.62c-.784-.913-.861-1.722.9-1.843,3.883-.353,6.742-2.049,7.2-3.031s-.784-1.937-1.834-1.352a14.69,14.69,0,0,1-3.78,1.068,9.472,9.472,0,0,1-3.16,0c-.9-.138-1.722-.293-2.411-.439,0,0-4.107-.861-5.881-2.273l-8.7,9.29,4.081,4.606a6.174,6.174,0,0,0,5.442,2.583c3.5-.344,8.205-2.85,8.205-2.85.637-.982,6.268,2.5,8.085,3.8s3.151.973,3.082-.276c-.043-.861-5.5-4.977-7.327-6.225a22.785,22.785,0,0,1-3.909-3.082" transform="translate(-294.098 -150.523)"/><path class="j" d="M375.266,265.847c0,.06-.25.164-.706.155a3,3,0,0,1-2.635-2c-.138-.422-.095-.706-.043-.715a5.8,5.8,0,0,0,1.335,1.722,5.727,5.727,0,0,0,2.049.835Z" transform="translate(-295.57 -152.683)"/><path class="j" d="M379.291,264.284c0,.052-.25.146-.68.121a2.97,2.97,0,0,1-2.506-1.954c-.129-.4-.1-.672-.052-.68a5,5,0,0,0,1.3,1.67A6.8,6.8,0,0,0,379.291,264.284Z" transform="translate(-296.151 -152.472)"/><path class="f" d="M384.255,152.43c.362,7.629,9.669,18.081,16.592,19.8,3.633.861,7.818.474,10.7,2.919,4.951,4.193,2.058,12.915,5.39,18.512,2.049,3.444,6.122,5.166,8.429,8.429,3.832,5.459,1.257,13.707-3.969,17.771s-12.2,4.839-18.753,4.667c-14.422-.37-29.188-4.951-39.607-15.171-4.9-4.8-24.057-19.622-17.375-54.76" transform="translate(-291.739 -137.275)"/><path class="g" d="M427.815,212.815l-54.821-16.273a34.89,34.89,0,0,0-7.982-2.4l-18.512.121a17.969,17.969,0,0,0-7.1,1.49l-49.9,16.574c-3.694,1.171-6.242,4.959-6.242,9.273h0c0,5.312,3.831,9.626,8.558,9.626h23.075l-.095.336,80.143.3h0l30.592.06c4.727,0,8.558-4.348,8.558-9.721C434.058,217.826,431.509,213.995,427.815,212.815Z" transform="translate(-283.26 -143.072)"/><path class="f" d="M430.555,222.41a2.43,2.43,0,0,1-.5,0l-1.412-.164c-1.223-.155-3-.353-5.166-.56a159.116,159.116,0,0,0-17.22-.723,161.185,161.185,0,0,0-17.169,1.171c-2.187.267-3.961.508-5.166.7l-1.412.2a2.582,2.582,0,0,1-.491.043,1.671,1.671,0,0,1,.474-.129l1.395-.284c1.214-.241,2.979-.534,5.166-.861a140.009,140.009,0,0,1,17.22-1.3,138.417,138.417,0,0,1,17.22.861c2.2.25,3.969.5,5.166.706l1.4.241A1.791,1.791,0,0,1,430.555,222.41Z" transform="translate(-296.986 -146.734)"/><g class="k" transform="translate(37.583 59.075)"><path class="e" d="M410.032,206.72a.749.749,0,0,1-.155.181l-.482.508c-.431.439-1.068,1.093-1.937,1.886a31.742,31.742,0,0,1-3.332,2.678A16.359,16.359,0,0,1,399,214.418a13.156,13.156,0,0,1-6.845-.138,34.224,34.224,0,0,1-7.215-3.186,43.049,43.049,0,0,0-7.809-3.659,12,12,0,0,0-8.929.456c-2.884,1.3-5.338,3.28-8.016,4.71-.663.37-1.369.654-2.049.964a21.575,21.575,0,0,1-2.109.7,20.167,20.167,0,0,1-4.219.732,21.758,21.758,0,0,1-14.026-3.857,38.319,38.319,0,0,1-4.236-3.763,20.535,20.535,0,0,0-3.28-2.678,8.843,8.843,0,0,0-3.358-1.257,5.086,5.086,0,0,1,.938.1,8.109,8.109,0,0,1,2.514,1,20.507,20.507,0,0,1,3.358,2.652,38.866,38.866,0,0,0,4.245,3.685,21.525,21.525,0,0,0,13.819,3.7,20.018,20.018,0,0,0,4.133-.723,20.657,20.657,0,0,0,2.058-.7c.663-.3,1.352-.577,2-.947,2.643-1.4,5.089-3.392,8.05-4.736a12.476,12.476,0,0,1,9.239-.465,43.19,43.19,0,0,1,7.878,3.72,34.236,34.236,0,0,0,7.112,3.186,12.812,12.812,0,0,0,6.673.189,16.411,16.411,0,0,0,5.063-2.342,32.086,32.086,0,0,0,3.349-2.583c.861-.766,1.541-1.395,2-1.808l.508-.482C409.963,206.764,410.023,206.712,410.032,206.72Z" transform="translate(-326.91 -203.44)"/></g><g class="l" transform="translate(35.517 75.564)"><path class="m" d="M324.51,222.59l34.656,6.535-4,6.518-1.059.017Z" transform="translate(-324.51 -222.59)"/></g><g class="k" transform="translate(99.516 68.719)"><path class="e" d="M439.738,214.64a2.461,2.461,0,0,1,0,.525,11.9,11.9,0,0,1-.155,1.515,13.268,13.268,0,0,1-13.509,10.969,22.143,22.143,0,0,1-5.166-.947c-1.722-.491-3.4-1.033-5.045-1.36a14.4,14.4,0,0,0-4.787-.25,15.5,15.5,0,0,0-11.236,7.078l-.448.749-.284.568a2.312,2.312,0,0,1-.267.465,3.438,3.438,0,0,1,.181-.5c.078-.172.155-.37.25-.594l.422-.775a14.292,14.292,0,0,1,3.668-4.219,15.413,15.413,0,0,1,7.672-3.186,14.946,14.946,0,0,1,4.925.232c1.679.327,3.358.861,5.089,1.36a21.99,21.99,0,0,0,5.089.939,13.139,13.139,0,0,0,11.141-5.519,13.656,13.656,0,0,0,2.17-5.02C439.7,215.372,439.686,214.631,439.738,214.64Z" transform="translate(-398.84 -214.64)"/></g><path class="g" d="M290.56,233.2s62.647,27.621,62.372,27.01,9.945-18.753,9.945-18.753L312.12,216.37Z" transform="translate(-284.275 -146.162)"/><path class="f" d="M324,220.53a9.186,9.186,0,0,1,1.292.542l3.444,1.627c2.91,1.386,6.888,3.332,11.305,5.51s8.378,4.167,11.245,5.631l3.384,1.722a8.422,8.422,0,0,1,1.214.7,7.744,7.744,0,0,1-1.291-.534l-3.444-1.627c-2.9-1.386-6.888-3.332-11.305-5.51s-8.378-4.167-11.245-5.631l-3.384-1.722A9.117,9.117,0,0,1,324,220.53Z" transform="translate(-288.922 -146.74)"/><g class="k" transform="translate(5.571 81.636)"><path class="e" d="M332.961,230.183a5.4,5.4,0,0,1-.585,1.86,8.765,8.765,0,0,1-3.737,3.737,11.6,11.6,0,0,1-3.444,1.24,13.916,13.916,0,0,1-4.236,0,31.756,31.756,0,0,1-9.135-3.065,48.256,48.256,0,0,0-8.946-3.461,15.747,15.747,0,0,0-4.1-.474,12.777,12.777,0,0,0-3.547.6,9.625,9.625,0,0,0-4.374,2.738,18.068,18.068,0,0,0-1.128,1.55,5.715,5.715,0,0,1,1-1.662,9.471,9.471,0,0,1,4.408-2.927,12.865,12.865,0,0,1,3.625-.672,15.739,15.739,0,0,1,4.21.448,46.22,46.22,0,0,1,8.98,3.5,32.443,32.443,0,0,0,9.006,3.065,13.442,13.442,0,0,0,4.116,0,11.486,11.486,0,0,0,3.392-1.154,8.834,8.834,0,0,0,3.728-3.53A14.36,14.36,0,0,0,332.961,230.183Z" transform="translate(-289.73 -229.642)"/></g><g class="k" transform="translate(52.22 100.596)"><path class="e" d="M367.088,252.194c0,.078-1.386-.146-3.625-.189a31.467,31.467,0,0,0-3.918.207,32.649,32.649,0,0,0-4.71.93,33.16,33.16,0,0,0-4.494,1.67A32,32,0,0,0,346.9,256.7c-1.886,1.205-2.936,2.127-2.988,2.058a3.881,3.881,0,0,1,.7-.689,20.733,20.733,0,0,1,2.118-1.627,26.2,26.2,0,0,1,3.444-2,27.957,27.957,0,0,1,9.316-2.643,26.685,26.685,0,0,1,3.978-.1,19.378,19.378,0,0,1,2.661.276A3.659,3.659,0,0,1,367.088,252.194Z" transform="translate(-343.91 -251.663)"/></g><g class="l" transform="translate(82.787 50.947)"><path class="m" d="M379.746,194c-1.033,2.893.517,6.027,2.032,8.7a23.583,23.583,0,0,0,3.633,5.278,7.939,7.939,0,0,0,5.691,2.583c2.816-.095,5.33-2.17,8.145-2.006,1.911.112,3.582,1.24,5.166,2.307a40.959,40.959,0,0,0,8.679,4.813,15.645,15.645,0,0,0,9.764.611,9.738,9.738,0,0,0,6.759-6.69" transform="translate(-379.411 -194)"/></g><path class="i" d="M376.679,185.47c.146-3.375.327-6.423.327-6.423s7.542-.956,7.861-8.61-.439-25.408-.439-25.408l-13.836-6.7L355.67,150.384l2.333,35.3a9.376,9.376,0,0,0,9.79,8.739h0A9.359,9.359,0,0,0,376.679,185.47Z" transform="translate(-293.324 -135.315)"/><path class="f" d="M387.251,162.064a.956.956,0,1,1-.973-.964.973.973,0,0,1,.973.964Z" transform="translate(-297.448 -138.48)"/><path class="f" d="M388.025,159.652c-.121.129-.861-.482-1.868-.517s-1.8.482-1.911.344.069-.3.4-.542a2.445,2.445,0,0,1,1.533-.448,2.583,2.583,0,0,1,1.49.577C387.981,159.342,388.085,159.592,388.025,159.652Z" transform="translate(-297.291 -138.117)"/><path class="f" d="M373.969,162.064a.964.964,0,1,1-.982-.964A.964.964,0,0,1,373.969,162.064Z" transform="translate(-295.599 -138.48)"/><path class="f" d="M374.745,159.882c-.121.129-.861-.482-1.877-.517s-1.8.482-1.9.344.069-.3.4-.542a2.437,2.437,0,0,1,1.524-.448,2.471,2.471,0,0,1,1.49.585C374.7,159.572,374.805,159.822,374.745,159.882Z" transform="translate(-295.446 -138.149)"/><path class="f" d="M379.813,168.886a6.725,6.725,0,0,1,1.722-.258c.258,0,.517-.06.56-.25a1.515,1.515,0,0,0-.164-.861c-.232-.7-.482-1.421-.749-2.187a40.47,40.47,0,0,1-1.662-5.7,39.079,39.079,0,0,1,2.084,5.553c.25.766.491,1.5.715,2.2a1.722,1.722,0,0,1,.121,1.111.663.663,0,0,1-.439.4,1.783,1.783,0,0,1-.448.052,6.465,6.465,0,0,1-1.739-.052Z" transform="translate(-296.639 -138.275)"/><path class="e" d="M375.892,171.59c-1.05-.689,2.919,1.722,5.02,1.679a2.824,2.824,0,0,1-3.4,1.059C375.289,173.407,375.892,171.59,375.892,171.59Z" transform="translate(-296.111 -139.921)"/><path class="j" d="M378.839,185.092a18.408,18.408,0,0,1-9.979-3.272s2.351,5.605,9.85,5.166Z" transform="translate(-295.157 -141.36)"/><path class="f" d="M346.18,157.449h0c0,6.656-1.765,24.263,10.332,26.691l-.4-24.194s11.753-5.545,13.776-17.091l.069.069c.749,1.722,2.092,5.485,1.274,8.533l11.012,2.712,1.266,1.154a15.117,15.117,0,0,0-3.642-16.359c-7.56-7.749-14.026-2.144-18.081-2.583-2.7-.327-12.054-.267-15.851,15.834Z" transform="translate(-291.97 -134.828)"/><path class="i" d="M357.389,164.225a2.7,2.7,0,0,0-3.237.775,4.417,4.417,0,0,0,4.4,7.258" transform="translate(-292.95 -138.875)"/><path class="j" d="M357.416,170.33c0,.052-.344.112-.861,0a2.334,2.334,0,0,1-1.61-1.429,1.722,1.722,0,0,1,.052-1.257,1.834,1.834,0,0,1,.654-.766c.482-.31.861-.284.861-.232s-.3.164-.663.491a1.49,1.49,0,0,0-.465,1.619,2.273,2.273,0,0,0,1.292,1.274C357.1,170.2,357.416,170.261,357.416,170.33Z" transform="translate(-293.21 -139.246)"/><path class="g" d="M356.548,172.69a.861.861,0,1,0,.336,0" transform="translate(-293.35 -140.091)"/><path class="i" d="M379.473,235.958V223.31S360.694,227.2,360.35,235.8Z" transform="translate(-293.975 -147.126)"/><path class="f" d="M380.29,191.4A15.757,15.757,0,0,0,395.7,205.883c2.772.043,5.691-.611,8.223.517,2.2.99,3.625,3.117,5.355,4.8a15.868,15.868,0,0,0,15.739,3.565c2.282-.766,5.889-2.4,6.311-4.761.327-1.8-1.877-3.59-3.169-4.873a15.981,15.981,0,0,0-4.624-2.893c-13.38-6.285-27.733-10.849-42.491-11.632" transform="translate(-296.746 -142.58)"/></g></g></svg>