<svg xmlns="http://www.w3.org/2000/svg" width="19.423" height="20.576" viewBox="0 0 19.423 20.576"><defs><style>.a{fill:#4f4f4f;}</style></defs><g transform="translate(-14.346)"><g transform="translate(14.346 5.144)"><g transform="translate(0)"><path class="a" d="M140.019,256a2.572,2.572,0,1,0,2.572,2.572A2.575,2.575,0,0,0,140.019,256Zm0,4.287a1.715,1.715,0,1,1,1.715-1.715A1.716,1.716,0,0,1,140.019,260.287Z" transform="translate(-132.5 -250.856)"/><path class="a" d="M29.084,137.294l-1.351-1.059c.016-.171.027-.345.027-.519s-.01-.352-.027-.529l1.364-1.07a.791.791,0,0,0,.177-1.011l-1.461-2.525a.8.8,0,0,0-.976-.334l-1.589.639a5.733,5.733,0,0,0-.9-.526l-.241-1.71a.81.81,0,0,0-.785-.651H20.407a.817.817,0,0,0-.79.681l-.237,1.692a6.038,6.038,0,0,0-.9.525l-1.6-.643a.8.8,0,0,0-.969.343l-1.453,2.515a.8.8,0,0,0,.186,1.026L16,135.2c-.016.171-.027.345-.027.519s.01.352.027.529l-1.365,1.069a.791.791,0,0,0-.177,1.011l1.461,2.525a.8.8,0,0,0,.976.334l1.589-.639a5.733,5.733,0,0,0,.9.526l.241,1.71a.81.81,0,0,0,.785.651h2.915a.817.817,0,0,0,.79-.681l.237-1.692a6.037,6.037,0,0,0,.9-.525l1.6.643a.8.8,0,0,0,.969-.343l1.454-2.514A.8.8,0,0,0,29.084,137.294ZM27.1,140.355l-1.757-.706a.427.427,0,0,0-.424.059,5.108,5.108,0,0,1-1.133.663.43.43,0,0,0-.255.334l-.211,1.87H20.458l-.261-1.86a.429.429,0,0,0-.259-.335,4.885,4.885,0,0,1-1.131-.661.429.429,0,0,0-.424-.059l-1.757.707-1.4-2.425,1.492-1.169a.431.431,0,0,0,.161-.393,5.085,5.085,0,0,1-.049-.664,4.914,4.914,0,0,1,.048-.651.429.429,0,0,0-.16-.394L15.224,133.5l1.4-2.425,1.757.706a.43.43,0,0,0,.424-.059,5.109,5.109,0,0,1,1.133-.663.43.43,0,0,0,.255-.334l.21-1.87h2.865l.261,1.86a.429.429,0,0,0,.259.335,4.885,4.885,0,0,1,1.131.661.425.425,0,0,0,.424.059l1.757-.708,1.4,2.425-1.492,1.169a.431.431,0,0,0-.161.393,5.085,5.085,0,0,1,.049.664,4.914,4.914,0,0,1-.048.651.429.429,0,0,0,.16.394l1.492,1.169Z" transform="translate(-14.346 -128)"/></g></g><g transform="translate(25.391)"><path class="a" d="M352.495,64a1.715,1.715,0,1,0,1.715,1.715A1.716,1.716,0,0,0,352.495,64Zm0,2.572a.857.857,0,1,1,.857-.857A.859.859,0,0,1,352.495,66.572Z" transform="translate(-348.304 -61.428)"/><path class="a" d="M297.337,4.985l-.021-.018-.637-.494c.005-.061.008-.123.008-.186s0-.127-.005-.19l.649-.509a.63.63,0,0,0,.132-.781L296.7,1.481a.633.633,0,0,0-.776-.277l-.739.3a2.972,2.972,0,0,0-.323-.188l-.11-.758A.613.613,0,0,0,294.136,0h-1.543a.634.634,0,0,0-.618.531l-.113.79a3.481,3.481,0,0,0-.321.183l-.754-.3a.632.632,0,0,0-.757.273l-.776,1.343a.616.616,0,0,0,.158.79l.635.5c0,.06,0,.121,0,.183s0,.123,0,.184l-.655.514a.631.631,0,0,0-.133.783l.766,1.325a.633.633,0,0,0,.776.277l.739-.3a2.964,2.964,0,0,0,.323.188l.114.794a.622.622,0,0,0,.616.52h1.543a.634.634,0,0,0,.618-.53l.113-.79a3.09,3.09,0,0,0,.316-.182l.758.3A.636.636,0,0,0,296.7,7.1l.777-1.345A.628.628,0,0,0,297.337,4.985ZM296.057,6.5l-.775-.309a.43.43,0,0,0-.427.063,2.425,2.425,0,0,1-.551.32.428.428,0,0,0-.254.332l-.117.813h-1.139l-.116-.814a.43.43,0,0,0-.27-.339,2.183,2.183,0,0,1-.55-.318.429.429,0,0,0-.422-.057l-.766.309-.568-.983L290.758,5a.428.428,0,0,0,.161-.391,2.523,2.523,0,0,1-.02-.325,2.682,2.682,0,0,1,.019-.325.427.427,0,0,0-.161-.391l-.655-.513.568-.983.766.309a.43.43,0,0,0,.422-.057A2.685,2.685,0,0,1,292.424,2a.429.429,0,0,0,.254-.332l.117-.813h1.132l.117.814a.427.427,0,0,0,.269.339,2.182,2.182,0,0,1,.55.318.427.427,0,0,0,.422.057l.766-.309.568.983-.655.513a.427.427,0,0,0-.158.416,1.564,1.564,0,0,1,.024.3,2.478,2.478,0,0,1-.028.324.429.429,0,0,0,.162.392l.661.513Z" transform="translate(-289.174)"/></g></g></svg>