<svg xmlns="http://www.w3.org/2000/svg" width="16.288" height="16.234" viewBox="0 0 16.288 16.234"><defs><style>.a{fill:#27a5f0;}</style></defs><g transform="translate(-1.849 -3.306)"><g transform="translate(1.849 2.456)"><g transform="translate(0 0.85)"><path class="a" d="M8.117,15.731H2.029a.677.677,0,0,1-.676-.676V2.879A.677.677,0,0,1,2.029,2.2H8.117a.676.676,0,0,0,0-1.353H2.029A2.032,2.032,0,0,0,0,2.879V15.054a2.032,2.032,0,0,0,2.029,2.029H8.117a.676.676,0,0,0,0-1.353Z" transform="translate(0 -0.85)"/></g><g transform="translate(5.411 4.232)"><path class="a" d="M180.775,111.418l-4.113-4.058a.676.676,0,1,0-.95.963l2.939,2.9h-7.875a.676.676,0,0,0,0,1.353h7.875l-2.939,2.9a.676.676,0,1,0,.95.963l4.113-4.058a.676.676,0,0,0,0-.963Z" transform="translate(-170.1 -107.165)"/></g></g></g></svg>