<svg xmlns="http://www.w3.org/2000/svg" width="518.075" height="324.454" viewBox="0 0 518.075 324.454"><defs><style>.a{fill:#ebebeb;}.b{fill:#e0e0e0;}.c{fill:#f5f5f5;}.d{fill:#fafafa;}.e{fill:#263238;}.f{fill:#27a5f0;}.g{opacity:0.3;}.h{fill:#4d4d4d;}.i{fill:#455a64;}.j{fill:#fff;}.k{fill:#ffbe9d;}.l{opacity:0.5;}.m{fill:#eb996e;}.n{opacity:0.2;}.o{opacity:0.4;}</style></defs><g transform="translate(-67.55 -61.79)"><g transform="translate(67.55 81.434)"><path class="a" d="M439.7,372.582h31.743a4.06,4.06,0,0,0,4.06-4.06v-9.769a6.813,6.813,0,0,0-6.813-6.813H439.46Z" transform="translate(-137.448 -135.966)"/><path class="a" d="M463.042,383.507H400.62a3.07,3.07,0,0,1-3.07-3.078h0a3.07,3.07,0,0,1,3.07-3.07h62.423a3.07,3.07,0,0,1,3.07,3.07h0a3.07,3.07,0,0,1-3.07,3.078Z" transform="translate(-129.572 -140.743)"/><path class="b" d="M383.8,276.3l34.374-.6,21.763,82.375-46.49.463-17.5-72.216A8.121,8.121,0,0,1,383.8,276.3Z" transform="translate(-125.469 -121.637)"/><path class="a" d="M404.353,384.93,394.08,444.64H396.9l13.5-59.71Z" transform="translate(-128.919 -142.166)"/><path class="b" d="M434.034,384.93,423.12,444.64h2.81l14.154-59.71Z" transform="translate(-134.377 -142.166)"/><path class="a" d="M468.15,384.93l12.181,59.71h-2.818L462.1,384.93Z" transform="translate(-141.703 -142.166)"/><path class="a" d="M423.12,275.7l16.956,82.456h12.993L439.442,285.3a11.742,11.742,0,0,0-11.466-9.6Z" transform="translate(-134.377 -121.637)"/><rect class="a" width="47.002" height="2.29" transform="translate(388.455 184.052) rotate(180)"/><path class="a" d="M546.578,304.983l8.811-33.043h-36.7l-7.983,33.043Z" transform="translate(-150.839 -120.93)"/><path class="b" d="M513.42,302.835H546.2l7.633-29.015H520.883Z" transform="translate(-151.349 -121.283)"/><rect class="c" width="2.371" height="113.322" transform="translate(332.147 190.817)"/><rect class="a" width="2.371" height="112.998" transform="translate(334.518 191.142)"/><rect class="a" width="2.371" height="113.322" transform="translate(478.374 190.817)"/><rect class="b" width="2.371" height="112.998" transform="translate(480.745 191.142)"/><rect class="b" width="180.284" height="9.298" transform="translate(321.899 184.231)"/><rect class="a" width="79.37" height="15.38" transform="translate(400.189 193.529)"/><path class="b" d="M612.771,332.05a1.77,1.77,0,1,1-1.77-1.77A1.77,1.77,0,0,1,612.771,332.05Z" transform="translate(-169.356 -131.895)"/><rect class="b" width="81.092" height="53.32" transform="translate(0 81.092) rotate(-90)"/><rect class="d" width="75.407" height="48.756" transform="translate(2.184 78.274) rotate(-90)"/><rect class="b" width="24.597" height="13.415" transform="translate(19.952 52.873) rotate(-90)"/><rect class="b" width="1.673" height="14.926" transform="translate(454.321 71.307)"/><rect class="b" width="1.673" height="14.926" transform="translate(509.297 71.307)"/><rect class="a" width="69.91" height="6.001" transform="translate(448.165 65.314)"/><rect class="c" width="9.639" height="44.923" transform="translate(494.623 20.391)"/><path class="b" d="M684.293,152.688a1.917,1.917,0,1,1-1.917-1.908,1.917,1.917,0,0,1,1.917,1.908Z" transform="translate(-182.743 -98.159)"/><rect class="b" width="2.948" height="18.361" transform="translate(498.082 32.287)"/><rect class="a" width="9.639" height="44.923" transform="translate(484.83 20.391)"/><path class="d" d="M672.237,152.688a1.908,1.908,0,1,1-1.908-1.908A1.908,1.908,0,0,1,672.237,152.688Z" transform="translate(-180.48 -98.159)"/><rect class="d" width="2.948" height="18.361" transform="translate(488.289 32.287)"/><rect class="b" width="9.639" height="44.923" transform="translate(475.507 20.391)"/><path class="d" d="M660.753,152.688a1.916,1.916,0,1,1-1.908-1.908,1.916,1.916,0,0,1,1.908,1.908Z" transform="translate(-178.319 -98.159)"/><rect class="d" width="2.948" height="18.361" transform="translate(478.967 32.287)"/><path class="b" d="M637.438,156.009l11.588-39.515-4-1.754-11.88,39.839Z" transform="translate(-173.851 -91.385)"/><path class="a" d="M306.569,368.412a20.771,20.771,0,0,1,12.912-1.567c2.339.382,4.783,1.088,6.375,2.842s1.892,4.872.065,6.367a6.1,6.1,0,0,1-4.02,1.023c-3.411,0-7.2-.642-9.923,1.413-1.559,1.169-2.59,3.118-4.45,3.695a4.41,4.41,0,0,1-4.872-2.152,7.487,7.487,0,0,1-.544-5.546A8.454,8.454,0,0,1,306.569,368.412Z" transform="translate(-111.578 -138.698)"/><path class="a" d="M296.073,339.231c2.436,3.435,7.073,2.3,9.233.2s3.078-5.124,3.914-8.015c1.9-6.61,3.817-13.545,2.436-20.3a11.279,11.279,0,0,0-2.59-5.514,5.879,5.879,0,0,0-5.579-1.851c-2.347.617-3.817,2.923-4.872,5.116a48.375,48.375,0,0,0-4.775,20.74c0,3.338.382,6.846,2.266,9.6" transform="translate(-110.08 -126.886)"/><path class="a" d="M282.069,346.708c2.607-3.094,3.1-7.6,1.949-11.482a22.007,22.007,0,0,0-6.805-9.858,36.544,36.544,0,0,0-12.181-7.187,12.993,12.993,0,0,0-5.481-.934,5.749,5.749,0,0,0-4.6,2.785c-1.283,2.436-.049,5.408,1.275,7.828a93.585,93.585,0,0,0,8,12.181c2.4,3.094,5.148,6.147,8.8,7.544s7.447,1.226,9.379-1.307" transform="translate(-102.67 -129.443)"/><path class="b" d="M296.38,403.872a6.958,6.958,0,0,0,.219-1.559c.114-1.129.252-2.558.414-4.247a60.63,60.63,0,0,1,.958-6.237,47.792,47.792,0,0,1,2.266-7.365,27.123,27.123,0,0,1,3.76-6.659,14.146,14.146,0,0,1,4.751-3.955,13.375,13.375,0,0,1,4-1.242,7.307,7.307,0,0,0,1.551-.227,7.893,7.893,0,0,0-1.575,0,12.018,12.018,0,0,0-4.174,1.088,14.082,14.082,0,0,0-5.019,3.987,26.513,26.513,0,0,0-3.89,6.789,45.578,45.578,0,0,0-2.257,7.487,53.632,53.632,0,0,0-.812,6.318c-.13,1.8-.187,3.248-.211,4.271A8.187,8.187,0,0,0,296.38,403.872Z" transform="translate(-110.549 -139.8)"/><path class="b" d="M296.669,390.873a2.808,2.808,0,0,0,.049-.723c0-.544,0-1.226,0-2.063,0-1.795,0-4.393.089-7.6.162-6.415.715-13.31,1.778-23.046,1.007-9.144,2.363-19.79,3.8-26.717.3-1.575.609-2.988.9-4.231s.512-2.314.747-3.183.349-1.478.479-2.006a3.6,3.6,0,0,0,.13-.715,2.527,2.527,0,0,0-.252.674c-.162.52-.357,1.177-.6,1.981s-.544,1.925-.853,3.167-.666,2.647-1,4.215a234.035,234.035,0,0,0-4,24.792c-1.064,9.745-1.551,18.629-1.624,25.06,0,3.248,0,5.814.114,7.609.049.812.1,1.527.13,2.071a3.552,3.552,0,0,0,.106.715Z" transform="translate(-110.546 -130.074)"/><path class="b" d="M291.507,374.96a15.2,15.2,0,0,0,0-2.16,58.663,58.663,0,0,0-.666-5.855,77.236,77.236,0,0,0-1.9-8.527,69.839,69.839,0,0,0-3.565-10.086,53.685,53.685,0,0,0-10.467-16.3,27.681,27.681,0,0,0-2.436-2.29c-.382-.325-.715-.642-1.056-.893l-.958-.658A12.538,12.538,0,0,0,268.6,327a61.939,61.939,0,0,1,5.961,5.311,56.657,56.657,0,0,1,10.208,16.241,79.581,79.581,0,0,1,3.589,9.988c.934,3.135,1.551,6.017,2.022,8.445s.706,4.418.861,5.79a13.25,13.25,0,0,0,.268,2.184Z" transform="translate(-105.336 -131.278)"/><path class="b" d="M276.43,423.25l1.713,23.509h30.2l1.713-23.509Z" transform="translate(-106.808 -149.368)"/><rect class="b" width="40.148" height="9.266" transform="translate(166.707 264.616)"/><path class="a" d="M272.83,451.09v2.566h39.49V451.09Z" transform="translate(-106.131 -154.6)"/><path class="b" d="M277.011,458.773l-1.851-4.523h36.161l-2.16,4.523Z" transform="translate(-106.569 -155.194)"/><path class="c" d="M309.625,431.947s0,.081-.146.219l-.447.593-1.762,2.258-.073.1-.081-.106-4.32-5.977h.252c-1.291,1.819-2.72,3.849-4.255,6.025l-.138.187-.146-.179-5.043-6h.284l-.276.349c-1.567,1.957-3.078,3.857-4.507,5.684l-.154.187-.138-.195-4.255-6.025h.244l-5.205,5.952-.1.106-.073-.114-1.624-2.761-.422-.731a1.368,1.368,0,0,1-.13-.268,1.467,1.467,0,0,1,.179.236c.122.187.276.422.471.706l1.722,2.712h-.162l5.157-6.05.13-.146.114.162,4.3,5.993h-.284l4.5-5.684.276-.349.146-.179.146.171,5.035,6.017h-.284l4.3-5.993.13-.171.122.171c1.7,2.436,3.143,4.5,4.231,6.042h-.154L309,432.694l.487-.568C309.552,432,309.617,431.939,309.625,431.947Z" transform="translate(-106.936 -150.383)"/><path class="c" d="M310.538,423.017c0,.106-7.568.187-16.9.187s-16.9-.081-16.9-.187,7.56-.187,16.9-.187S310.538,422.911,310.538,423.017Z" transform="translate(-106.866 -149.289)"/><path class="c" d="M311.729,454.517c0,.106-8.218.195-18.361.195S275,454.622,275,454.517s8.226-.187,18.369-.187S311.729,454.419,311.729,454.517Z" transform="translate(-106.539 -155.209)"/></g><g transform="translate(86.593 385.654)"><path class="e" d="M552.248,460.821c0,.122-103.253.211-230.624.211S91,460.927,91,460.821s103.229-.211,230.624-.211S552.248,460.707,552.248,460.821Z" transform="translate(-91 -460.61)"/></g><g transform="translate(79.041 260.102)"><path class="e" d="M102.2,414.58a1.672,1.672,0,0,1,.114-.268l.365-.812a19.421,19.421,0,0,0,1.064-3.1,27.3,27.3,0,0,0-.089-12,64.542,64.542,0,0,0-2.225-8.064c-.942-2.858-2.038-5.9-2.932-9.176A35.585,35.585,0,0,1,97.049,370.6a42.186,42.186,0,0,1,2.436-11.166,56.956,56.956,0,0,0,2.842-11,16.7,16.7,0,0,0-2.014-10.159c-1.624-2.964-3.63-5.5-5.148-8.121a28.2,28.2,0,0,1-3.086-7.812,29.12,29.12,0,0,1-.2-12.051A22.591,22.591,0,0,1,93.16,306a1.307,1.307,0,0,1-.073.284c-.065.2-.146.471-.26.812a30.947,30.947,0,0,0-.812,3.2,29.51,29.51,0,0,0,.309,12.01,28.422,28.422,0,0,0,3.1,7.706c1.51,2.6,3.549,5.116,5.189,8.121a17.094,17.094,0,0,1,2.079,10.362,53.456,53.456,0,0,1-2.85,11.076,40.449,40.449,0,0,0-2.436,11.06,35.365,35.365,0,0,0,1.4,10.443c.885,3.248,1.965,6.3,2.891,9.168a62.634,62.634,0,0,1,2.193,8.121,27.074,27.074,0,0,1,0,12.083,17.671,17.671,0,0,1-1.145,3.1l-.4.763a1.087,1.087,0,0,1-.154.268Z" transform="translate(-83.512 -306)"/><path class="f" d="M98.412,335.366s-3.078-9.834,2.436-15.591a.341.341,0,0,1,.585.171C101.733,321.561,102.1,326.507,98.412,335.366Z" transform="translate(-84.68 -308.569)"/><path class="e" d="M100.427,323.83a9.744,9.744,0,0,1-.211,1.811c-.2,1.251-.439,2.712-.7,4.336s-.5,3.086-.69,4.336a9.971,9.971,0,0,1-.325,1.795,7.366,7.366,0,0,1,.057-1.827c.1-1.121.3-2.672.577-4.369s.577-3.248.812-4.32a7.7,7.7,0,0,1,.479-1.762Z" transform="translate(-84.852 -309.351)"/><path class="f" d="M103.06,364.621s1.876-10.126,9.444-12.636a.341.341,0,0,1,.439.422C112.447,353.975,110.458,358.49,103.06,364.621Z" transform="translate(-85.714 -314.639)"/><path class="e" d="M110.428,355.21a8.972,8.972,0,0,1-1.031,1.5l-2.647,3.508c-.983,1.316-1.876,2.5-2.639,3.508a9.445,9.445,0,0,1-1.121,1.437,7.13,7.13,0,0,1,.9-1.624c.617-.942,1.51-2.217,2.55-3.589s2.014-2.582,2.745-3.443A8.329,8.329,0,0,1,110.428,355.21Z" transform="translate(-85.701 -315.249)"/><path class="f" d="M100.522,395.391s-1.145-10.232,5.368-14.836a.341.341,0,0,1,.544.276C106.409,382.479,105.833,387.4,100.522,395.391Z" transform="translate(-85.223 -319.999)"/><path class="e" d="M104.681,384.39a9.129,9.129,0,0,1-.552,1.746l-1.519,4.117c-.56,1.543-1.064,2.94-1.5,4.125a10.264,10.264,0,0,1-.658,1.705,7.632,7.632,0,0,1,.4-1.787c.317-1.08.812-2.558,1.4-4.174s1.177-3.053,1.624-4.06A8.5,8.5,0,0,1,104.681,384.39Z" transform="translate(-85.224 -320.733)"/><path class="f" d="M107.553,426.923s-.812-10.272,5.9-14.617a.341.341,0,0,1,.536.292C113.9,414.23,113.14,419.135,107.553,426.923Z" transform="translate(-86.553 -325.968)"/><path class="e" d="M112.13,416.06a9.249,9.249,0,0,1-.609,1.722c-.479,1.169-1.039,2.55-1.624,4.06s-1.169,2.9-1.624,4.06a9.313,9.313,0,0,1-.723,1.673,7.422,7.422,0,0,1,.471-1.77c.349-1.064.893-2.525,1.543-4.117s1.291-3.013,1.77-4.06a8.357,8.357,0,0,1,.8-1.567Z" transform="translate(-86.558 -326.685)"/><path class="f" d="M91.014,325.321s-9.136-4.767-9.314-12.741a.341.341,0,0,1,.528-.292C83.568,313.221,87.352,316.461,91.014,325.321Z" transform="translate(-81.7 -307.171)"/><path class="e" d="M84,316a9.159,9.159,0,0,1,1.145,1.429l2.574,3.565,2.582,3.549a10.419,10.419,0,0,1,1.039,1.494,7.625,7.625,0,0,1-1.259-1.324c-.723-.869-1.673-2.1-2.68-3.5s-1.876-2.68-2.485-3.63A8.364,8.364,0,0,1,84,316Z" transform="translate(-82.132 -307.879)"/><path class="f" d="M102.909,351.454s-9.4-4.206-10.069-12.181a.341.341,0,0,1,.52-.325C94.764,339.793,98.719,342.83,102.909,351.454Z" transform="translate(-83.793 -312.183)"/><path class="e" d="M95.38,342.62a8.673,8.673,0,0,1,1.218,1.356l2.793,3.394,2.793,3.386a10.11,10.11,0,0,1,1.129,1.437,7.563,7.563,0,0,1-1.332-1.259c-.812-.812-1.8-1.99-2.891-3.321s-2.038-2.566-2.7-3.476A8.4,8.4,0,0,1,95.38,342.62Z" transform="translate(-84.271 -312.883)"/><path class="f" d="M97.6,379.738s-6.5-8.023-3.427-15.429a.333.333,0,0,1,.6-.057C95.639,365.681,97.791,370.156,97.6,379.738Z" transform="translate(-83.889 -316.917)"/><path class="e" d="M95.14,368.42a8.388,8.388,0,0,1,.471,1.762c.268,1.242.585,2.688.934,4.3s.674,3.053.95,4.288a9.817,9.817,0,0,1,.349,1.795,7.706,7.706,0,0,1-.617-1.722c-.317-1.088-.7-2.6-1.056-4.28s-.65-3.248-.812-4.32A8.535,8.535,0,0,1,95.14,368.42Z" transform="translate(-84.226 -317.731)"/><path class="f" d="M104.176,414.564S94.87,410.2,94.31,402.245a.341.341,0,0,1,.52-.317C96.226,402.789,100.124,405.867,104.176,414.564Z" transform="translate(-84.07 -324.02)"/><path class="e" d="M96.79,405.6a8.932,8.932,0,0,1,1.2,1.372l2.728,3.443,2.737,3.435a9.889,9.889,0,0,1,1.1,1.454,8.121,8.121,0,0,1-1.316-1.275c-.755-.812-1.762-2.022-2.826-3.37s-2-2.6-2.647-3.524A8.414,8.414,0,0,1,96.79,405.6Z" transform="translate(-84.536 -324.719)"/><path class="e" d="M125.228,367.62a.942.942,0,0,1,0,.227v.658c0,.617-.065,1.454-.106,2.493l-.5,8.933h0a34.625,34.625,0,0,1-5.116,11.872c-1.868,2.956-3.833,5.644-5.522,8.121a56.953,56.953,0,0,0-4.141,6.846,29.029,29.029,0,0,0-1.933,5.027c-.171.617-.292,1.1-.365,1.421a3.054,3.054,0,0,1-.13.5,2.437,2.437,0,0,1,.057-.512c.049-.333.146-.812.292-1.445a26.636,26.636,0,0,1,1.835-5.1,54.265,54.265,0,0,1,4.06-6.927c1.681-2.517,3.63-5.205,5.49-8.121a35.076,35.076,0,0,0,5.116-11.726h0c.26-3.662.471-6.724.625-8.933.081-1.039.154-1.876.2-2.493l.065-.658a.683.683,0,0,1,.065-.179Z" transform="translate(-86.534 -317.581)"/><path class="f" d="M122.026,392.794s3.955-9.509-1.015-15.746a.341.341,0,0,0-.6.114C120,378.754,119.184,383.651,122.026,392.794Z" transform="translate(-88.894 -319.328)"/><path class="e" d="M121.613,381.17a8.574,8.574,0,0,1,.309,1.795c.146,1.121.3,2.672.422,4.385s.179,3.248.179,4.4a7.657,7.657,0,0,1-.106,1.819,9.462,9.462,0,0,1-.162-1.811c-.089-1.267-.187-2.745-.292-4.385s-.219-3.118-.309-4.385A8.3,8.3,0,0,1,121.613,381.17Z" transform="translate(-89.195 -320.128)"/><g class="g" transform="translate(31.083 57.585)"><path class="h" d="M122.026,392.794s3.955-9.509-1.015-15.746a.341.341,0,0,0-.6.114C120,378.754,119.184,383.651,122.026,392.794Z" transform="translate(-119.977 -376.913)"/></g><path class="f" d="M106.718,421.07s3.167-9.8-2.3-15.616a.341.341,0,0,0-.585.162C103.527,407.241,103.121,412.178,106.718,421.07Z" transform="translate(-85.824 -324.671)"/><path class="e" d="M105.3,409.52a8.121,8.121,0,0,1,.463,1.77c.227,1.1.512,2.631.771,4.336s.447,3.248.536,4.369a7.78,7.78,0,0,1,0,1.827,9.29,9.29,0,0,1-.309-1.795l-.65-4.345c-.244-1.624-.471-3.094-.658-4.345a9.566,9.566,0,0,1-.154-1.819Z" transform="translate(-86.135 -325.456)"/><g class="g" transform="translate(17.818 80.674)"><path class="h" d="M106.718,421.07s3.167-9.8-2.3-15.616a.341.341,0,0,0-.585.162C103.527,407.241,103.121,412.178,106.718,421.07Z" transform="translate(-103.642 -405.345)"/></g><path class="f" d="M128.7,378.882s8.445-5.9,7.593-13.8a.341.341,0,0,0-.568-.227C134.5,365.93,131.185,369.625,128.7,378.882Z" transform="translate(-90.533 -317.044)"/><g class="g" transform="translate(38.167 47.718)"><path class="h" d="M128.7,378.882s8.445-5.9,7.593-13.8a.341.341,0,0,0-.568-.227C134.5,365.93,131.185,369.625,128.7,378.882Z" transform="translate(-128.7 -364.762)"/></g><path class="e" d="M134.787,368.76a8.118,8.118,0,0,1-.706,1.689c-.479,1.015-1.177,2.436-1.99,3.922s-1.624,2.858-2.209,3.809a7.5,7.5,0,0,1-1.072,1.478,10.111,10.111,0,0,1,.812-1.624c.6-1.112,1.316-2.436,2.1-3.857s1.486-2.745,2.1-3.857A8.932,8.932,0,0,1,134.787,368.76Z" transform="translate(-90.554 -317.795)"/><path class="f" d="M111.62,410.531s10.183-1.624,12.9-9.079a.341.341,0,0,0-.406-.455C122.526,401.452,117.93,403.312,111.62,410.531Z" transform="translate(-87.323 -323.852)"/><g class="g" transform="translate(24.297 77.133)"><path class="h" d="M111.62,410.531s10.183-1.624,12.9-9.079a.341.341,0,0,0-.406-.455C122.526,401.452,117.93,403.312,111.62,410.531Z" transform="translate(-111.62 -400.985)"/></g><path class="e" d="M121.865,404a8.649,8.649,0,0,1-1.372,1.21c-.885.7-2.119,1.624-3.524,2.639s-2.7,1.86-3.654,2.436a7.754,7.754,0,0,1-1.624.853,9.53,9.53,0,0,1,1.462-1.088c1.039-.723,2.249-1.624,3.589-2.534l3.581-2.542A8.82,8.82,0,0,1,121.865,404Z" transform="translate(-87.336 -324.419)"/><path class="i" d="M98.972,435.81,96,455.795h18.507l-2.4-19.985Z" transform="translate(-84.388 -330.397)"/><path class="e" d="M113.3,443.389a73.9,73.9,0,0,1-7.463.187,73.806,73.806,0,0,1-7.463-.187,69.58,69.58,0,0,1,7.463-.195A69.707,69.707,0,0,1,113.3,443.389Z" transform="translate(-84.833 -331.78)"/><path class="e" d="M113.633,445.347a74.294,74.294,0,0,1-7.706.195,74.277,74.277,0,0,1-7.706-.195c0-.106,3.451-.187,7.706-.187S113.633,445.241,113.633,445.347Z" transform="translate(-84.805 -332.154)"/></g><g transform="translate(101.85 141.822)"><path class="e" d="M114.337,190.533s.13.106.357.325.544.568,1,.991a19.157,19.157,0,0,0,4.426,2.972,14.52,14.52,0,0,0,1.681.706l.926.317,1,.252a18.49,18.49,0,0,0,2.136.39c.374.041.763.057,1.153.081a8.325,8.325,0,0,0,1.194,0,18.044,18.044,0,0,0,10.175-3.321l.065-.041h.065l9.046,1.713-.179.309-4.986-5.684-.106-.122.154-.122a19.426,19.426,0,0,0,2.176-3.882,19.9,19.9,0,0,0,1.169-4.458,17.865,17.865,0,0,0-20.983-19.9,16.972,16.972,0,0,0-5.083,1.746,17.418,17.418,0,0,0-4.158,2.948,17.81,17.81,0,0,0-3.784,20.659c.179.349.341.682.5,1a7.1,7.1,0,0,0,.5.812,10.444,10.444,0,0,0,.812,1.275l.568.755a1.478,1.478,0,0,1,.179.268l-.211-.244c-.154-.179-.349-.422-.6-.731a8.853,8.853,0,0,1-.893-1.259c-.162-.26-.357-.528-.528-.812l-.512-1a18.249,18.249,0,1,1,31.134,3V189.3l4.978,5.733.357.422-.544-.106L138.48,193.6h.138a18.247,18.247,0,0,1-10.4,3.338,8.548,8.548,0,0,1-1.21,0,10.167,10.167,0,0,1-1.161-.1,20.556,20.556,0,0,1-2.168-.414l-1.007-.268-.934-.333a14.814,14.814,0,0,1-1.7-.731,18.49,18.49,0,0,1-4.409-3.078c-.439-.43-.747-.812-.966-1.023A1.559,1.559,0,0,1,114.337,190.533Z" transform="translate(-109.789 -160.345)"/><path class="e" d="M130.661,177.742l3.053-1.015,3.061-1.007-.658,3.151-.65,3.151-1.657-1.478-7.154,8.031-1.478-1.324,7.146-8.031Z" transform="translate(-112.682 -163.235)"/></g><g transform="translate(133.481 61.79)"><circle class="f" cx="39.904" cy="39.904" r="39.904" transform="translate(31.589)"/><path class="j" d="M229.093,136.456a33.213,33.213,0,1,1,33.213-33.213A33.213,33.213,0,0,1,229.093,136.456Zm0-60.742a27.541,27.541,0,1,0,0-.024Z" transform="translate(-157.6 -63.339)"/><path class="j" d="M233.68,119.249a12.23,12.23,0,1,1,12.23-12.23,12.23,12.23,0,0,1-12.23,12.23Zm0-18.775a6.545,6.545,0,1,0,6.545,6.545,6.545,6.545,0,0,0-6.545-6.545Z" transform="translate(-162.405 -67.992)"/><path class="i" d="M225.132,109.85H209.67l2.688,4.767L175.97,131.3l1.226,2.046,36.518-16.493,2.5,4.742Z" transform="translate(-153.858 -70.823)"/><path class="e" d="M170.877,135.7l-.39-.382a7.406,7.406,0,0,0-7.227-1.8l-14.52,4.231,8.121,3.549-3.248,8.64,13.618-4.872a7.39,7.39,0,0,0,4.872-7.309h0Z" transform="translate(-148.74 -75.215)"/></g><g transform="translate(223.538 68.798)"><rect class="d" width="100.532" height="94.905" rx="4.94" transform="translate(172.716 0.211)"/><path class="e" d="M568.817,165.536a6.608,6.608,0,0,0,.983-.154,4,4,0,0,0,2.3-1.624,3.9,3.9,0,0,0,.666-1.99V152.73c0-9.745,0-23.777-.065-41.147V75.374a5.683,5.683,0,0,0-.187-1.908,3.808,3.808,0,0,0-1.007-1.624,3.76,3.76,0,0,0-1.665-.926,7.479,7.479,0,0,0-1.973-.13H476.332a3.809,3.809,0,0,0-3.589,2.542,6.9,6.9,0,0,0-.219,2.371v86.118a3.825,3.825,0,0,0,3.89,3.476h36.218l41.147.065,11.182.041h0l-11.182.041-41.147.065h-36.21a4.255,4.255,0,0,1-3.557-1.835,4.368,4.368,0,0,1-.7-1.973c-.041-.706,0-1.356,0-2.046V74.521a4.061,4.061,0,0,1,.236-1.275,4.231,4.231,0,0,1,3.987-2.826H568.9a4.181,4.181,0,0,1,1.047.146,4.125,4.125,0,0,1,1.819,1.015,4.247,4.247,0,0,1,1.048,1.746,5.967,5.967,0,0,1,.195,2.022v36.21c0,17.37-.057,31.427-.073,41.147v9.046a4,4,0,0,1-3.061,3.654,3.249,3.249,0,0,1-1.056.13Z" transform="translate(-299.58 -70.42)"/><rect class="f" width="5.416" height="46.563" transform="translate(190.265 38.207)"/><rect class="f" width="5.416" height="50.347" transform="translate(214.894 34.431)"/><rect class="f" width="5.416" height="56.738" transform="translate(240.409 28.04)"/><rect class="e" width="5.416" height="22.673" transform="translate(228.423 62.098)"/><rect class="i" width="5.416" height="51.557" transform="translate(196.574 33.221)"/><rect class="i" width="5.416" height="62.358" transform="translate(221.651 22.421)"/><rect class="e" width="5.416" height="62.358" transform="translate(254.385 22.421)"/><rect class="i" width="5.416" height="74.669" transform="translate(247.644 10.102)"/><rect class="e" width="5.416" height="32.718" transform="translate(203.209 52.053)"/><path class="e" d="M569.128,178.241c0,.122-19.335.211-43.185.211s-43.193-.089-43.193-.211,19.335-.211,43.193-.211S569.128,178.127,569.128,178.241Z" transform="translate(-301.572 -90.645)"/><rect class="e" width="3.305" height="1.242" transform="translate(178.668 76.488)"/><rect class="e" width="3.305" height="1.242" transform="translate(178.668 59.922)"/><rect class="e" width="3.305" height="1.242" transform="translate(178.668 28.731)"/><rect class="e" width="3.305" height="1.242" transform="translate(178.668 13.058)"/><rect class="e" width="3.305" height="1.242" transform="translate(178.831 44.33)"/><rect class="j" width="187.057" height="145.577" transform="translate(0.154 34.902)"/><path class="e" d="M446.843,258.919c0-1.454-.065-57.729-.171-145.577l.171.171H259.811l.211-.211V258.878l-.187-.187,187.049.187-187.049.187h-.195V113.09H447.079v.179C446.916,201.19,446.851,257.465,446.843,258.919Z" transform="translate(-259.64 -78.44)"/><path class="e" d="M327.851,255.524c-.122,0-.211-14.69-.211-32.807s.089-32.807.211-32.807.211,14.682.211,32.807S327.932,255.524,327.851,255.524Z" transform="translate(-272.42 -92.877)"/><path class="e" d="M420.661,255.524c-.114,0-.211-14.69-.211-32.807s.1-32.807.211-32.807.211,14.682.211,32.807S420.775,255.524,420.661,255.524Z" transform="translate(-289.863 -92.877)"/><path class="e" d="M359.531,251.3c-.114,0-.211-18.783-.211-41.943s.1-41.943.211-41.943.211,18.775.211,41.943S359.653,251.3,359.531,251.3Z" transform="translate(-278.374 -88.649)"/><path class="e" d="M295.311,251.3c-.122,0-.211-18.783-.211-41.943s.089-41.943.211-41.943.211,18.775.211,41.943S295.425,251.3,295.311,251.3Z" transform="translate(-266.305 -88.649)"/><path class="e" d="M457.091,251.3c-.114,0-.211-18.783-.211-41.943s.1-41.943.211-41.943.211,18.775.211,41.943S457.2,251.3,457.091,251.3Z" transform="translate(-296.71 -88.649)"/><path class="e" d="M387.321,248.294c-.122,0-.211-21.682-.211-48.431s.089-48.423.211-48.423.211,21.674.211,48.423S387.435,248.294,387.321,248.294Z" transform="translate(-283.597 -85.647)"/><path class="e" d="M328.374,189.767a.617.617,0,1,1-.617-.617A.617.617,0,0,1,328.374,189.767Z" transform="translate(-272.326 -92.735)"/><path class="e" d="M360.054,167.267a.617.617,0,1,1-.617-.617A.617.617,0,0,1,360.054,167.267Z" transform="translate(-278.28 -88.506)"/><path class="f" d="M359.073,169.1a2.193,2.193,0,1,1,2.193-2.193,2.193,2.193,0,0,1-2.193,2.193Zm0-4.182a1.973,1.973,0,1,1,0,.032Z" transform="translate(-277.916 -88.141)"/><circle class="e" cx="0.617" cy="0.617" r="0.617" transform="translate(103.107 65.176)"/><path class="e" d="M421.184,190.517a.617.617,0,1,1-.617-.617.617.617,0,0,1,.617.617Z" transform="translate(-289.769 -92.876)"/><path class="e" d="M457.634,167.267a.617.617,0,1,1-.617-.617.617.617,0,0,1,.617.617Z" transform="translate(-296.62 -88.506)"/><path class="e" d="M295.824,168.027a.617.617,0,1,1-.609-.617A.617.617,0,0,1,295.824,168.027Z" transform="translate(-266.209 -88.649)"/><path class="f" d="M429.906,200.315c0,.065-.682.162-1.868.674a13.374,13.374,0,0,0-4.45,3.419c-1.665,1.819-3.329,4.353-5.433,7.2a35.471,35.471,0,0,1-3.719,4.345A21.454,21.454,0,0,1,412,217.969a17.164,17.164,0,0,1-2.923,1.624,16.639,16.639,0,0,1-7.024,1.194,18.547,18.547,0,0,1-3.776-.471,9.818,9.818,0,0,1-3.679-1.624,11.97,11.97,0,0,1-2.875-2.988,38.94,38.94,0,0,1-2.176-3.557c-1.356-2.436-2.761-4.872-4.353-7.373s-3.037-5.148-4.653-7.739a38.239,38.239,0,0,0-5.684-7.309,16.242,16.242,0,0,0-3.784-2.68,13.87,13.87,0,0,0-2.16-.885c-.382-.1-.763-.171-1.145-.252l-.577-.122c-.195-.041-.39,0-.585-.057a16.282,16.282,0,0,0-9.233,1.965,24.167,24.167,0,0,0-7.105,6.626,73.9,73.9,0,0,0-5.116,8.21c-3.094,5.6-6.5,10.938-11.011,14.942a18.889,18.889,0,0,1-7.666,4.263,14.463,14.463,0,0,1-4.231.463,15.836,15.836,0,0,1-4.06-.755,27.034,27.034,0,0,1-6.805-3.565c-2.014-1.389-3.857-2.834-5.644-4.125a30.287,30.287,0,0,0-5.335-3.248,17.864,17.864,0,0,0-5.3-1.527,13.269,13.269,0,0,0-4.767.292,8.5,8.5,0,0,0-1.031.333,7.118,7.118,0,0,0-.958.374,12.711,12.711,0,0,0-1.689.926,18.255,18.255,0,0,0-2.558,2.022c-.625.706-1.218,1.259-1.624,1.778a11.272,11.272,0,0,1-1.259,1.551,12.02,12.02,0,0,1,1.056-1.705c.365-.552.934-1.145,1.543-1.892a18.027,18.027,0,0,1,2.55-2.168,13.462,13.462,0,0,1,1.73-1.007,7.373,7.373,0,0,1,1-.422,8.743,8.743,0,0,1,1.072-.365,13.5,13.5,0,0,1,4.994-.414,18.141,18.141,0,0,1,5.554,1.486,30.665,30.665,0,0,1,5.53,3.248c1.827,1.283,3.679,2.7,5.684,4.06a26.49,26.49,0,0,0,6.578,3.378,15.039,15.039,0,0,0,3.776.674,13.643,13.643,0,0,0,3.906-.463,17.793,17.793,0,0,0,7.178-4.06c4.3-3.857,7.65-9.1,10.7-14.674a73.74,73.74,0,0,1,5.189-8.364,25.174,25.174,0,0,1,7.487-6.976,17.484,17.484,0,0,1,10.053-2.128,5.7,5.7,0,0,1,.642.057l.633.138c.422.089.812.171,1.259.276a15.054,15.054,0,0,1,2.363.974,17.419,17.419,0,0,1,4.06,2.9,38.979,38.979,0,0,1,5.831,7.56c1.624,2.631,3.078,5.278,4.621,7.755s3.013,5.018,4.336,7.455,2.664,4.8,4.686,6.228a8.981,8.981,0,0,0,3.313,1.486,17.816,17.816,0,0,0,3.573.471,15.713,15.713,0,0,0,6.643-1.039,16.877,16.877,0,0,0,2.785-1.486,19.426,19.426,0,0,0,2.347-1.892,34.731,34.731,0,0,0,3.711-4.182,86.509,86.509,0,0,1,5.684-7.122,13.083,13.083,0,0,1,4.71-3.321,7.934,7.934,0,0,1,1.454-.382Q429.9,200.258,429.906,200.315Z" transform="translate(-263.694 -91.841)"/><rect class="e" width="30.282" height="1.681" transform="translate(28.389 54.026)"/><rect class="e" width="14.966" height="1.681" transform="translate(28.389 57.973)"/><rect class="e" width="187.057" height="11.694" transform="translate(0.154 30.655)"/></g><g transform="translate(414.019 148.585)"><path class="k" d="M594.38,404.025l27.188,33.286,6.886-8.4L607.893,399.12Z" transform="translate(-513.034 -211.984)"/><path class="f" d="M626.318,444.828l-.812-.763,7.918-9.314,3.411,3.118-.479.593c-2.136,2.59-11.044,12.993-13.066,14.2C621.024,453.988,626.318,444.828,626.318,444.828Z" transform="translate(-518.361 -218.681)"/><g class="l" transform="translate(114.538 216.784)"><path class="j" d="M636.12,441.209a4.255,4.255,0,0,1-.853-2.9,4.06,4.06,0,0,1,1.283-2.68l2.493,2.3Z" transform="translate(-635.254 -435.63)"/></g><g class="l" transform="translate(104.372 219.017)"><path class="j" d="M623.868,450.106s-1.689,3.37-.942,3.443,10.151-10.134,13.9-15l-.211-.171-10.873,11.994S624.371,449.6,623.868,450.106Z" transform="translate(-622.735 -438.38)"/></g><path class="e" d="M636.762,438.21l-.122.162c-.114.146-.244.292-.382.471l-1.429,1.689c-1.218,1.413-2.915,3.346-4.872,5.449s-3.719,3.955-5.027,5.278l-1.567,1.567-.43.414-.162.138.138-.162.414-.43,1.527-1.624c1.3-1.348,3.07-3.248,5-5.311s3.638-4.02,4.872-5.416l1.462-1.624.406-.447A1.6,1.6,0,0,1,636.762,438.21Z" transform="translate(-518.37 -219.331)"/><path class="e" d="M626.114,453.172a4.5,4.5,0,0,0-1.056-.414,4.918,4.918,0,0,0-1.129,0,1.976,1.976,0,0,1,2.184.414Z" transform="translate(-518.588 -222.031)"/><path class="e" d="M627.727,448.49a1.282,1.282,0,0,1-.6,0c-.325-.057-.585-.138-.577-.179a1.284,1.284,0,0,1,.6,0A1.455,1.455,0,0,1,627.727,448.49Z" transform="translate(-519.08 -221.223)"/><path class="e" d="M628.075,447.214a2.118,2.118,0,0,1-.5.122,2.366,2.366,0,0,1-.52,0,1.739,1.739,0,0,1,.5-.122C627.839,447.19,628.075,447.174,628.075,447.214Z" transform="translate(-519.176 -221.018)"/><path class="e" d="M627.594,445.7a2.6,2.6,0,0,1-.365.52c-.236.26-.447.447-.479.422s.13-.26.365-.52S627.569,445.667,627.594,445.7Z" transform="translate(-519.117 -220.738)"/><path class="e" d="M627.033,444.83a1.292,1.292,0,0,1-.325.658c-.26.325-.544.5-.568.471s.211-.252.447-.56S626.992,444.814,627.033,444.83Z" transform="translate(-519.003 -220.575)"/><path class="e" d="M626.16,447.989a2.078,2.078,0,0,1-.536.568,3.593,3.593,0,0,1-.7.487,1.746,1.746,0,0,1-.463.219.382.382,0,0,1-.309,0,.309.309,0,0,1-.154-.292,1.445,1.445,0,0,1,1.51-1.023,1.479,1.479,0,0,1,.56.171.5.5,0,0,1,.162.122,2.525,2.525,0,0,0-.731-.187,1.454,1.454,0,0,0-.812.195,1.186,1.186,0,0,0-.577.731c0,.154.122.219.276.171a2.912,2.912,0,0,0,.43-.195,4.736,4.736,0,0,0,.7-.455A5.77,5.77,0,0,0,626.16,447.989Z" transform="translate(-518.601 -221.16)"/><path class="e" d="M626.351,447.867a.812.812,0,0,1-.463-.3,1.371,1.371,0,0,1-.276-.544.812.812,0,0,1,.146-.747.3.3,0,0,1,.43.065.927.927,0,0,1,.171.333,2.49,2.49,0,0,1,.1.593,1.16,1.16,0,0,1-.073.544v-.536a2.81,2.81,0,0,0-.122-.56c-.049-.187-.219-.447-.382-.325a.666.666,0,0,0-.1.6,1.283,1.283,0,0,0,.219.512A2.534,2.534,0,0,0,626.351,447.867Z" transform="translate(-518.897 -220.835)"/><path class="e" d="M636.419,435.66a8.585,8.585,0,0,0-.585.674,3.914,3.914,0,0,0-.731,1.99,3.848,3.848,0,0,0,.439,2.071c.26.5.5.739.487.763a.95.95,0,0,1-.187-.171,3.3,3.3,0,0,1-.39-.536,3.7,3.7,0,0,1,.3-4.174,2.939,2.939,0,0,1,.463-.479C636.338,435.692,636.411,435.652,636.419,435.66Z" transform="translate(-520.658 -218.851)"/><path class="e" d="M633.444,442.91a6.843,6.843,0,0,1-1.088,1.413,7.054,7.054,0,0,1-1.316,1.2s.544-.577,1.21-1.3S633.395,442.885,633.444,442.91Z" transform="translate(-519.924 -220.214)"/><path class="e" d="M635.989,440.74s.081.162.154.341.171.325.138.357-.179-.089-.268-.3S635.915,440.74,635.989,440.74Z" transform="translate(-520.845 -219.806)"/><path class="e" d="M635.685,439a.822.822,0,0,1,.089.325c.008.179,0,.325-.065.325s-.081-.138-.089-.317S635.644,439,635.685,439Z" transform="translate(-520.784 -219.479)"/><path class="e" d="M636.228,437.4c0,.041-.089.154-.162.325s-.1.333-.138.341-.1-.187,0-.4S636.2,437.366,636.228,437.4Z" transform="translate(-520.832 -219.177)"/><path class="e" d="M636.812,436.37v.211c0,.1-.106.171-.146.154s0-.106,0-.2A.173.173,0,0,1,636.812,436.37Z" transform="translate(-520.978 -218.985)"/><path class="k" d="M537.116,438.44l-2.4,14.723h12.595l2.891-11.994Z" transform="translate(-501.821 -219.374)"/><path class="f" d="M533.291,456.727v-1.121l12.23-.057-.146,4.612h-.755c-3.354.065-17.053.1-19.294-.658C522.888,458.644,533.291,456.727,533.291,456.727Z" transform="translate(-499.986 -222.59)"/><g class="l" transform="translate(41.019 233.923)"><path class="j" d="M544.72,460.1a4.247,4.247,0,0,1,1.624-2.534,4.1,4.1,0,0,1,2.875-.812l-.122,3.394Z" transform="translate(-544.72 -456.736)"/></g><g class="l" transform="translate(24.974 235.234)"><path class="j" d="M528.241,458.35s-3.654.918-3.248,1.527,14.292,1.1,20.431.812v-.268l-16.184-.43S528.907,458.407,528.241,458.35Z" transform="translate(-524.961 -458.35)"/></g><path class="e" d="M545.581,460.691H542.56c-1.868,0-4.442,0-7.308-.13s-5.424-.244-7.309-.374l-2.2-.171-.6-.057h.6l2.209.122c1.86.106,4.434.227,7.308.333s5.425.146,7.309.171h2.81Z" transform="translate(-499.981 -223.419)"/><path class="e" d="M529.946,460.111a4.447,4.447,0,0,0-.374-1.072,5.448,5.448,0,0,0-.723-.869,1.681,1.681,0,0,1,.812.812A1.624,1.624,0,0,1,529.946,460.111Z" transform="translate(-500.718 -223.082)"/><path class="e" d="M534.549,458.239a2.747,2.747,0,0,1-.365-.479c-.171-.284-.276-.536-.235-.56s.195.195.365.479S534.589,458.215,534.549,458.239Z" transform="translate(-501.674 -222.899)"/><path class="e" d="M535.755,457.715a1.836,1.836,0,0,1-.422-.3A2.21,2.21,0,0,1,535,457a1.836,1.836,0,0,1,.422.3C535.625,457.5,535.812,457.682,535.755,457.715Z" transform="translate(-501.874 -222.862)"/><path class="e" d="M536.447,456.466a1.366,1.366,0,0,1-.633.065,1.437,1.437,0,0,1-.633-.089,1.364,1.364,0,0,1,.633-.065,1.437,1.437,0,0,1,.633.089Z" transform="translate(-501.908 -222.743)"/><path class="e" d="M536.665,455.51a1.3,1.3,0,0,1-.715.179,1.323,1.323,0,0,1-.731-.122,3.965,3.965,0,0,1,.723,0A3.713,3.713,0,0,1,536.665,455.51Z" transform="translate(-501.915 -222.582)"/><path class="e" d="M533.7,456.894a2.079,2.079,0,0,1-.812,0,4.366,4.366,0,0,1-.812-.211,2.157,2.157,0,0,1-.471-.211.43.43,0,0,1-.187-.252.325.325,0,0,1,.13-.309,1.429,1.429,0,0,1,1.754.487,1.308,1.308,0,0,1,.235.528.528.528,0,0,1,0,.211,2.329,2.329,0,0,0-.333-.682,1.461,1.461,0,0,0-.65-.455,1.2,1.2,0,0,0-.934,0c-.13.089-.081.236.049.325a2.921,2.921,0,0,0,.43.195,5.336,5.336,0,0,0,.812.244C533.409,456.861,533.7,456.87,533.7,456.894Z" transform="translate(-501.2 -222.634)"/><path class="e" d="M533.979,456.848a.812.812,0,0,1-.073-.544,1.259,1.259,0,0,1,.236-.56.812.812,0,0,1,.666-.374.309.309,0,0,1,.227.365.94.94,0,0,1-.146.341,2.313,2.313,0,0,1-.382.463,1.2,1.2,0,0,1-.463.3,5.094,5.094,0,0,0,.382-.374,3.158,3.158,0,0,0,.349-.455c.114-.162.195-.455,0-.5s-.4.162-.528.317a1.193,1.193,0,0,0-.235.5,2.547,2.547,0,0,0-.033.528Z" transform="translate(-501.665 -222.556)"/><path class="e" d="M549.178,456.738a8.652,8.652,0,0,0-.893,0,3.776,3.776,0,0,0-3.248,2.436c-.2.512-.235.861-.26.861a.565.565,0,0,1,0-.244,3.306,3.306,0,0,1,.154-.658,3.737,3.737,0,0,1,1.291-1.762,3.792,3.792,0,0,1,2.071-.723,3.011,3.011,0,0,1,.666.041C549.1,456.7,549.178,456.722,549.178,456.738Z" transform="translate(-503.709 -222.796)"/><path class="e" d="M542.069,459.34a9.743,9.743,0,0,1-3.549-.114,11.914,11.914,0,0,1,1.778.073C541.265,459.372,542.069,459.3,542.069,459.34Z" transform="translate(-502.535 -223.278)"/><path class="e" d="M545.736,459.459l-.154.341c-.081.179-.138.341-.179.333s-.057-.195.041-.4S545.711,459.426,545.736,459.459Z" transform="translate(-503.823 -223.323)"/><path class="e" d="M546.888,458.118a.808.808,0,0,1-.187.276c-.13.122-.26.2-.292.171s.057-.154.187-.276S546.839,458.086,546.888,458.118Z" transform="translate(-504.017 -223.071)"/><path class="e" d="M548.417,457.533c0,.041-.171,0-.357.089s-.309.146-.341.122.081-.195.3-.26S548.425,457.492,548.417,457.533Z" transform="translate(-504.263 -222.948)"/><path class="e" d="M549.625,457.284a.367.367,0,0,1-.154.138.338.338,0,0,1-.211,0,.279.279,0,0,1,.162-.13C549.528,457.26,549.617,457.244,549.625,457.284Z" transform="translate(-504.554 -222.911)"/><path class="f" d="M587.705,221.726l-20.659,1.762s-6.2.138-12.912,15.859l-4.645,9.144,9.054,5.782h0l.382,5.684.812,23.014,38.3-2.818c-.861-5.221-4.945-12.1-6.318-16.509,1.4-3.484,9.485-17.67,9.469-24.971,0-15.616-13.5-16.964-13.5-16.964" transform="translate(-504.597 -178.641)"/><path class="d" d="M581.122,261.834a6.756,6.756,0,0,0-2.7-.26,12.109,12.109,0,0,0-2.875.755,19.227,19.227,0,0,1-3.565,1.064,12.108,12.108,0,0,1-6.675-.812,10.233,10.233,0,0,1-1.795-.983c-.4-.284-.593-.455-.577-.479a19.331,19.331,0,0,0,2.485,1.186,12.708,12.708,0,0,0,6.5.666,21.3,21.3,0,0,0,3.5-1.023,11.776,11.776,0,0,1,2.972-.682,5.376,5.376,0,0,1,2.055.219,1.624,1.624,0,0,1,.674.349Z" transform="translate(-507.125 -186.048)"/><path class="d" d="M557.073,253.355c-.089.089-1.048-.885-2.517-1.624s-2.8-1.039-2.785-1.161a6.789,6.789,0,0,1,5.3,2.785Z" transform="translate(-505.026 -184.065)"/><path class="d" d="M572.114,264.068a19.955,19.955,0,0,1,.1-2.68c.1-.56.106-1.2.227-1.9a41.157,41.157,0,0,1,1.039-4.872,61.069,61.069,0,0,1,1.965-5.79,98.768,98.768,0,0,1,4.791-10c.674-1.251,1.234-2.249,1.624-2.932a6.61,6.61,0,0,1,.658-1.048,6.5,6.5,0,0,1-.512,1.121l-1.51,3c-1.283,2.525-3.045,6.017-4.661,10.021-.812,2-1.462,3.947-1.99,5.733a45.967,45.967,0,0,0-1.121,4.824c-.138.7-.211,1.332-.284,1.884s-.138,1.039-.171,1.429A6.253,6.253,0,0,1,572.114,264.068Z" transform="translate(-508.845 -181.11)"/><path class="d" d="M560.92,242.46a2.844,2.844,0,0,1,.219-.755c.171-.479.447-1.169.812-2a40.929,40.929,0,0,1,7.966-11.7c.633-.65,1.169-1.153,1.559-1.486a2.608,2.608,0,0,1,.625-.479c.049.049-.755.812-1.965,2.168a50.661,50.661,0,0,0-7.918,11.6C561.423,241.437,560.985,242.484,560.92,242.46Z" transform="translate(-506.745 -179.455)"/><path class="d" d="M583.913,242a4.6,4.6,0,0,0-1.023-.325,6.569,6.569,0,0,0-2.9.2,15.966,15.966,0,0,1-4.393.731,10.191,10.191,0,0,1-5.059-2.014c-1.624-1.1-2.964-2.314-4.353-3.191a9.087,9.087,0,0,0-4.06-1.527,5.839,5.839,0,0,0-2.858.382c-.633.284-.934.536-.958.5s.065-.081.2-.2a3.5,3.5,0,0,1,.69-.447,5.62,5.62,0,0,1,2.956-.536,9.176,9.176,0,0,1,4.19,1.494c1.437.877,2.826,2.1,4.385,3.175a10.029,10.029,0,0,0,4.872,1.973,17.1,17.1,0,0,0,4.3-.633,6.294,6.294,0,0,1,3-.073,2.827,2.827,0,0,1,.763.317C583.84,241.925,583.921,241.982,583.913,242Z" transform="translate(-506.254 -181.242)"/><path class="e" d="M560.63,263.88a13.725,13.725,0,0,0-.065-3.378,28.039,28.039,0,0,0-.861-3.581,30.137,30.137,0,0,1-1.047-4.45,8.843,8.843,0,0,1,.52-4.564,11.107,11.107,0,0,1,2.095-3.11,20.4,20.4,0,0,1,1.8-1.738,3.247,3.247,0,0,1,.731-.568c.057.057-.934.934-2.314,2.509a11.369,11.369,0,0,0-1.957,3.061,8.56,8.56,0,0,0-.455,4.361,33.72,33.72,0,0,0,1,4.393,24.747,24.747,0,0,1,.812,3.646,9.923,9.923,0,0,1,0,2.517A3.678,3.678,0,0,1,560.63,263.88Z" transform="translate(-506.302 -182.546)"/><path class="e" d="M557.348,295.556s-9.257,28.333-12.782,55.723-7.836,65.054-7.836,65.054l12.709.252,23.5-73.515,23.923-33.846-2.371-20.642Z" transform="translate(-502.199 -191.209)"/><path class="e" d="M563.135,300.111l8.811,72.6,35.869,36.38,7.869-10.873-25.417-40.327,5.717-63.478-34.253,6.513" transform="translate(-506.898 -192.304)"/><path class="i" d="M589.342,340.16a2.07,2.07,0,0,1-.2.406,11.891,11.891,0,0,1-.706,1.088,28.379,28.379,0,0,1-3.2,3.533,52.334,52.334,0,0,0-4.872,5.035,22.518,22.518,0,0,0-3.679,7.674c-.853,2.932-1.624,5.741-2.16,8.332s-.926,4.954-1.543,6.886-1.186,3.427-1.494,4.507a16.858,16.858,0,0,1-.5,1.665,1.552,1.552,0,0,1,.049-.447c.057-.292.146-.723.284-1.267.268-1.1.812-2.631,1.372-4.548s.9-4.28,1.445-6.878,1.283-5.425,2.136-8.372A22.615,22.615,0,0,1,580.068,350a49.224,49.224,0,0,1,4.978-5.01,31.622,31.622,0,0,0,3.248-3.419C588.993,340.671,589.3,340.135,589.342,340.16Z" transform="translate(-508.638 -200.903)"/><path class="i" d="M596.169,371.987a28.719,28.719,0,0,0-2.631,2.184,29.284,29.284,0,0,0-2.038,2.688,7.308,7.308,0,0,1,4.669-4.929Z" transform="translate(-512.493 -206.874)"/><path class="i" d="M595.426,372.485a22.851,22.851,0,0,1-2.712.227,20.078,20.078,0,0,1-2.7.292,5.823,5.823,0,0,1,2.664-.715A5.685,5.685,0,0,1,595.426,372.485Z" transform="translate(-512.213 -206.925)"/><path class="f" d="M525.779,261.21l-1.99,8.673,26.181,1.616Z" transform="translate(-499.767 -186.065)"/><g class="g" transform="translate(24.023 75.145)"><path class="h" d="M525.779,261.21l-1.99,8.673,26.181,1.616Z" transform="translate(-523.79 -261.21)"/></g><path class="i" d="M608.685,278.543a47.909,47.909,0,0,0-4.133-2.826c-.447-.1-3.078,2-3.078,2s.877-3.622-.7-5.449-4.1-1.9-7.041,0-9.022,2.826-9.022,2.826l-1.916-2.94c-.958-1.47-2.12-.91-6.058-.812s-14.52-5.6-14.52-5.6-5.839-4.223-12.887-9.4l1.624-2.022a2.85,2.85,0,0,0-.479-4h0a2.85,2.85,0,0,0-4,.479l-.187.235a2.046,2.046,0,0,0-3.451-2.144l-.771.991a2.038,2.038,0,0,0-3.508-1.551c-4.15-3.11-7.926-6-10.419-8.015-8.876-7.179-11.036-20.439-11.036-20.439-3.248.812-3.248,2.891-3.248,5.189v1.624a13.082,13.082,0,0,0-7.885-.3,12.075,12.075,0,0,0-5.441,3.394,3.346,3.346,0,1,0-1.137,1.275c.1-.065.179-.146.268-.211a10.858,10.858,0,0,0-1.5,2.826,10.622,10.622,0,0,0,2,10.386l1.226.374c-.642.26-1.4.439-2.347.747-2.193.706-4.182,1.3-3.979,4.677,0,0,13.31-1.884,22.8,4.45,2.574,1.722,6.293,4.344,10.329,7.26l-.179.227a2.043,2.043,0,0,0,2.217,3.216l-.739.95a2.046,2.046,0,0,0,2.9,2.85l-.187.227a2.845,2.845,0,1,0,4.474,3.516l2.4-3.053c7.227,5.311,13.212,9.793,13.212,9.793s8.583,8.4,9.672,12.181.893,5.067,2.582,5.538l3.378.958s.942,6.074,0,9.452-.13,5.774,2.087,6.732,5.416-.966,5.416-.966-1.226,3.143-1,3.541a48.987,48.987,0,0,0,3.93,3.1l15.429-21.195-.674.974Z" transform="translate(-494.207 -178.297)"/><path class="e" d="M515.072,225.25a5.811,5.811,0,0,1,.049,1.113,20.032,20.032,0,0,1-.195,3.029,7.609,7.609,0,0,1-.6,2.046,3.939,3.939,0,0,1-1.681,1.8c-1.543.812-3.573.763-5.018,1.99a3,3,0,0,0-.991,2.379c0,.885.138,1.77.138,2.631a4.271,4.271,0,0,1-.593,2.387,5.2,5.2,0,0,1-1.494,1.535,20.985,20.985,0,0,1-2.664,1.47,3.176,3.176,0,0,1-1.072.317s.374-.146,1.007-.463a28.09,28.09,0,0,0,2.558-1.567,4.97,4.97,0,0,0,1.364-1.47,3.93,3.93,0,0,0,.5-2.2c0-.812-.171-1.7-.162-2.647a3.394,3.394,0,0,1,1.129-2.7A6.358,6.358,0,0,1,510,233.7a11.076,11.076,0,0,0,2.436-.812,3.467,3.467,0,0,0,1.551-1.624,7.136,7.136,0,0,0,.625-1.933,26.284,26.284,0,0,0,.325-2.988,5.686,5.686,0,0,1,.138-1.088Z" transform="translate(-495.474 -179.306)"/><path class="e" d="M537.93,272.125a24.555,24.555,0,0,1,1.827-2.217c1.145-1.34,2.712-3.248,4.361-5.343s3.07-4.117,4.06-5.563a24.374,24.374,0,0,1,1.681-2.322,2.807,2.807,0,0,1-.341.7c-.244.43-.617,1.039-1.088,1.787-.95,1.494-2.339,3.516-4,5.684a68,68,0,0,1-4.474,5.286c-.6.65-1.1,1.161-1.462,1.5a2.59,2.59,0,0,1-.568.487Z" transform="translate(-502.424 -185.213)"/><path class="e" d="M555.243,258a3.755,3.755,0,0,1-.487.763c-.341.479-.812,1.153-1.47,1.981-1.251,1.624-3.013,3.93-4.978,6.423s-3.76,4.734-5.083,6.342A21.362,21.362,0,0,1,541,276.036a5.5,5.5,0,0,1,.5-.747l1.486-1.965c1.259-1.624,3.021-3.922,4.986-6.415s3.76-4.734,5.075-6.35l1.575-1.892A3.642,3.642,0,0,1,555.243,258Z" transform="translate(-503.001 -185.461)"/><path class="e" d="M548.88,278.354a20.01,20.01,0,0,1,1.624-1.965c1.031-1.194,2.436-2.858,3.89-4.759s2.72-3.679,3.614-4.97a16.965,16.965,0,0,1,1.494-2.071,14.349,14.349,0,0,1-1.242,2.233,58.128,58.128,0,0,1-3.532,5.067,61.448,61.448,0,0,1-4,4.694,12.415,12.415,0,0,1-1.851,1.77Z" transform="translate(-504.482 -186.7)"/><path class="e" d="M621.451,288.57a1.811,1.811,0,0,1-.268.4l-.812,1.088-3.086,3.963c-2.6,3.346-6.164,8-10,13.2s-7.219,10-9.639,13.48l-2.9,4.117-.812,1.113a2.434,2.434,0,0,1-.3.374,1.72,1.72,0,0,1,.227-.422c.195-.3.43-.682.723-1.153.641-1.007,1.583-2.436,2.769-4.2,2.363-3.524,5.684-8.34,9.542-13.561s7.447-9.834,10.11-13.139c1.332-1.624,2.436-2.972,3.191-3.882.357-.422.658-.763.885-1.039a3.009,3.009,0,0,1,.373-.341Z" transform="translate(-512.893 -191.207)"/><path class="k" d="M513.175,252.194c-.179-.69,0-1.389.7-1.454h0a1.08,1.08,0,0,1,.731.755l1.827,6.269h0l-.9-4.686c-.179-.682.106-1.348.65-1.275.309,0,.6.471.682.763l1.462,5.238-.65-3.443c-.171-.771,0-1.121.4-1.194s.715.382.812.674l1.145,3.825c.609.479,2.582,1.949,2.623,3.484,0,.081.219.187.252.252l.568.154-.812,3.338s-5.3-3.695-6.651-4.937a5.23,5.23,0,0,1-1.624-2.68Z" transform="translate(-497.76 -184.097)"/><path class="e" d="M566.188,182.77c-2.111,1.884-2.582,4.994-2.525,7.82s.528,5.684-.227,8.437c-.349,1.267-.958,2.436-1.291,3.711a4.751,4.751,0,0,0,.357,3.8c1.1,1.624,3.394,1.86,5.384,1.908l4.466.114a1.413,1.413,0,0,0,1.786-1.705,109.627,109.627,0,0,0-2.436-23.7" transform="translate(-506.93 -171.322)"/><path class="k" d="M588.6,185.676v2.038l-.414,30.42a6.5,6.5,0,0,1-6.9,6.228h0a6.9,6.9,0,0,1-6.935-6.61c0-3.744-.089-7.682-.089-7.682s-4.824-.812-5.822-7.1c-.5-3.135-.341-8.267-.081-12.465a6.651,6.651,0,0,1,7.309-6.2Z" transform="translate(-508.096 -171.606)"/><path class="e" d="M570,196.151a.814.814,0,1,0,.812-.731A.812.812,0,0,0,570,196.151Z" transform="translate(-508.452 -173.7)"/><path class="e" d="M569.746,195.013c.1.106.706-.349,1.575-.349s1.51.439,1.624.333-.057-.235-.333-.439a2.208,2.208,0,0,0-1.283-.4,2.152,2.152,0,0,0-1.25.406C569.787,194.777,569.69,194.964,569.746,195.013Z" transform="translate(-508.401 -173.463)"/><path class="e" d="M580.67,196.151a.814.814,0,1,0,.812-.731A.812.812,0,0,0,580.67,196.151Z" transform="translate(-510.457 -173.7)"/><path class="e" d="M580.257,195.213c.106.106.715-.349,1.624-.349s1.5.438,1.624.333-.057-.236-.333-.439a2.225,2.225,0,0,0-1.283-.4,2.2,2.2,0,0,0-1.259.406C580.3,194.977,580.208,195.164,580.257,195.213Z" transform="translate(-510.377 -173.501)"/><path class="e" d="M575.87,201.665a6.066,6.066,0,0,0-1.413-.252c-.219,0-.43-.065-.471-.219a1.121,1.121,0,0,1,.154-.658l.65-1.689a28.556,28.556,0,0,0,1.478-4.418,28.5,28.5,0,0,0-1.827,4.288l-.625,1.7a1.323,1.323,0,0,0-.122.877.593.593,0,0,0,.365.325,1.754,1.754,0,0,0,.382.049,5.537,5.537,0,0,0,1.429,0Z" transform="translate(-509.141 -173.514)"/><path class="m" d="M575.64,215.481a16.054,16.054,0,0,0,8.413-2.241s-2.038,4.32-8.34,3.735Z" transform="translate(-509.512 -177.049)"/><path class="m" d="M576.809,205.784a1.551,1.551,0,0,1,1.4-.577,1.437,1.437,0,0,1,.991.528.893.893,0,0,1,.065,1.031,1.047,1.047,0,0,1-1.137.292,3.329,3.329,0,0,1-1.112-.666,1.234,1.234,0,0,1-.252-.252.292.292,0,0,1,0-.325" transform="translate(-509.715 -175.537)"/><path class="e" d="M578.889,204.08c-.146,0-.146.942-.95,1.624s-1.811.568-1.819.7.219.179.65.195a2.363,2.363,0,0,0,1.519-.528,2.063,2.063,0,0,0,.731-1.348C579.06,204.307,578.954,204.08,578.889,204.08Z" transform="translate(-509.602 -175.327)"/><path class="e" d="M596.07,197.149a42.571,42.571,0,0,1-.707-5.473,22.811,22.811,0,0,0-3.411-10.11,15.348,15.348,0,0,0-5.108-4.824,4.872,4.872,0,0,0,2.875-3.078,3.947,3.947,0,1,0-6.675,1.665,11.044,11.044,0,0,0-5.27.341h-.487c-2.087.138-4.247-.162-6.237.5a8.186,8.186,0,0,0-4.824,3.784c-1.064,2.079-.812,4.556-.609,6.878a2.436,2.436,0,0,0,.715,1.787,2.33,2.33,0,0,0,1.429.317h4.369a5.538,5.538,0,0,0,2.956-.528,2.266,2.266,0,0,0,.942-1.218,3.3,3.3,0,0,0,1.8,1.624,8.486,8.486,0,0,0,3.89.211,7.951,7.951,0,0,0,2.517-.568q.162,6.139.325,12.262A3.67,3.67,0,0,0,585,202.7a3.362,3.362,0,0,0,2.631,1.129,6.318,6.318,0,0,0,3.906-.674,2.956,2.956,0,0,0,1.38-2.85,3.768,3.768,0,0,0,6.017,1.381,7.673,7.673,0,0,1-2.866-4.531Z" transform="translate(-507.594 -168.673)"/><path class="i" d="M577.734,177.69a16.239,16.239,0,0,0-2.915,0,9.1,9.1,0,0,0-8.08,9.745,16.243,16.243,0,0,0,.528,2.867,2.678,2.678,0,0,1-.349-.715,8.117,8.117,0,0,1-.479-2.128,9.1,9.1,0,0,1,8.348-10.037,8.382,8.382,0,0,1,2.184.089A2.762,2.762,0,0,1,577.734,177.69Z" transform="translate(-507.773 -170.311)"/><path class="i" d="M573.964,190.2a2.359,2.359,0,0,1-.292-.5,8.355,8.355,0,0,1-.5-1.494,9.233,9.233,0,0,1,3.338-9.339,8.03,8.03,0,0,1,1.324-.812,1.541,1.541,0,0,1,.544-.195,19.143,19.143,0,0,0-1.681,1.275,9.647,9.647,0,0,0-3.248,9.046C573.688,189.433,574.037,190.155,573.964,190.2Z" transform="translate(-509.006 -170.4)"/><path class="i" d="M577.818,186.231a2.761,2.761,0,0,1-.56-1.267,6.976,6.976,0,0,1-.049-3.338,7.082,7.082,0,0,1,1.486-3c.56-.658,1.015-.942,1.039-.9a9.161,9.161,0,0,1-.812,1.088,8.178,8.178,0,0,0-1.315,2.9,8.363,8.363,0,0,0-.065,3.191,11.389,11.389,0,0,1,.276,1.324Z" transform="translate(-509.773 -170.374)"/><path class="d" d="M609.7,239.713c-.049.057-.731-.739-2.079-1.713a14.065,14.065,0,0,0-12.3-2.152c-1.624.463-2.509.983-2.542.909a2.337,2.337,0,0,1,.617-.406,10.909,10.909,0,0,1,1.835-.812,13.407,13.407,0,0,1,12.571,2.193,10.946,10.946,0,0,1,1.462,1.372C609.581,239.486,609.728,239.7,609.7,239.713Z" transform="translate(-512.733 -181.109)"/><path class="f" d="M546.323,257.615l-3.874,13.228s19.148,7.763,30.143,7.625c10.3-.122,13.44-3.451,17.459-10.175,4.677-7.836,8.291-17.678,9.152-23.184,0,0,5.814-25.328-16.363-23.062l-.6,19.806s-2.436,8.121-2.631,8.592c-1.624,4.377-3.8,10.792-5.879,11.572S546.323,257.615,546.323,257.615Z" transform="translate(-503.274 -178.677)"/><path class="e" d="M547.22,259.2a3.544,3.544,0,0,1,.552.065l1.567.252c1.364.236,3.338.617,5.782,1.137s5.36,1.194,8.64,1.778a54.653,54.653,0,0,0,10.89.926l-.195.13c.414-1.08.812-2.225,1.275-3.4,2.907-8.177,5.173-15.713,7.049-21.113.918-2.7,1.705-4.872,2.282-6.342.284-.747.528-1.316.682-1.705a4.759,4.759,0,0,1,.268-.585,3.052,3.052,0,0,1-.187.617l-.609,1.73c-.528,1.494-1.275,3.679-2.16,6.383-1.795,5.4-4.012,12.944-6.927,21.113-.422,1.177-.861,2.322-1.275,3.411l-.057.13h-.146a53.252,53.252,0,0,1-10.938-1.015c-3.3-.609-6.2-1.316-8.64-1.868s-4.393-.974-5.741-1.267l-1.559-.325a2.29,2.29,0,0,1-.552-.049Z" transform="translate(-504.17 -180.263)"/><path class="e" d="M542.45,279.208a5.424,5.424,0,0,1,.617.195l1.77.609c1.535.512,3.776,1.218,6.57,1.99s6.139,1.624,9.858,2.558a64,64,0,0,0,12.238,2.111,21.6,21.6,0,0,0,3.248-.081,13.146,13.146,0,0,0,3.061-.633,14.8,14.8,0,0,0,5.043-3.061,31.223,31.223,0,0,0,6.066-8.056c1.4-2.534,2.363-4.677,3.045-6.147.317-.706.577-1.275.812-1.7a3.31,3.31,0,0,1,.292-.585,3.084,3.084,0,0,1-.211.617c-.154.4-.39.983-.706,1.73-.633,1.494-1.559,3.654-2.932,6.228a30.934,30.934,0,0,1-6.066,8.2,15.161,15.161,0,0,1-5.165,3.159,13.245,13.245,0,0,1-3.159.658,21.3,21.3,0,0,1-3.305.089,63.337,63.337,0,0,1-12.311-2.152c-3.719-.942-7.065-1.827-9.85-2.647s-5.018-1.567-6.545-2.128c-.755-.284-1.348-.512-1.738-.682A2.787,2.787,0,0,1,542.45,279.208Z" transform="translate(-503.274 -187.042)"/><g class="n" transform="translate(53.826 68.097)"><path class="h" d="M560.49,265.474l11.369.268a6.5,6.5,0,0,0,2.664-.317,6.278,6.278,0,0,0,2.623-2.769,112.388,112.388,0,0,0,5.473-10.126s-3,9.525-4.872,13.675a2.176,2.176,0,0,1-2.655,1.364A51.159,51.159,0,0,1,560.49,265.474Z" transform="translate(-560.49 -252.53)"/></g><g class="n" transform="translate(55.238 87.797)"><path class="h" d="M595.078,276.79s-3.833,14.617-13.675,14.3a58,58,0,0,1-19.173-4.507l.438-.455s16.72,3.606,21.373,1.34C592.9,283.165,595.078,276.79,595.078,276.79Z" transform="translate(-562.23 -276.79)"/></g><path class="k" d="M540.146,276.335h-3.11c-2.818-.276-4.393-.317-5.181-1.072-1.056-1,.39-1.99.39-1.99s-2.038-.7-1.852-1.941c.13-.853,1.1-.95,1.1-.95s-1.8-.7-2.16-1.454c-.487-1.023.812-1.567.812-1.567-2.436-1.51-2.233-3.013-1.665-3.159a7.284,7.284,0,0,1,2.477.731c1.624.463,6.034,1.811,4.4-.625s-1.973-4.921-1.624-5.684a.918.918,0,0,1,1.681.414,10.973,10.973,0,0,0,1.153,2.728,6.822,6.822,0,0,0,1.478,1.86c.69.617,1.3,1.112,1.835,1.519l2.753,2.639Z" transform="translate(-500.581 -185.501)"/><path class="d" d="M603.657,265.406c0,.073-1.039-.406-2.729-.974a29.6,29.6,0,0,0-13.74-1.267c-1.762.252-2.842.536-2.858.463a2.915,2.915,0,0,1,.739-.268,17.4,17.4,0,0,1,2.071-.487,25.848,25.848,0,0,1,7.032-.309,26.32,26.32,0,0,1,6.854,1.624,19.07,19.07,0,0,1,1.957.861A3.245,3.245,0,0,1,603.657,265.406Z" transform="translate(-511.145 -186.298)"/><path class="d" d="M579.454,287.738a6.1,6.1,0,0,0,.585-2.379,7.447,7.447,0,0,0-.5-2.607,17.407,17.407,0,0,0-1.518-2.923,23.252,23.252,0,0,1-1.624-2.964,7.966,7.966,0,0,1-.641-2.7,4.985,4.985,0,0,1,.268-1.851,1.77,1.77,0,0,1,.325-.609,6.863,6.863,0,0,0-.292,2.436,8.31,8.31,0,0,0,.7,2.566,24.671,24.671,0,0,0,1.624,2.9,16.978,16.978,0,0,1,1.527,3.013,7.261,7.261,0,0,1,.422,2.745,4.579,4.579,0,0,1-.479,1.811,1.551,1.551,0,0,1-.4.568Z" transform="translate(-509.533 -188.036)"/><path class="d" d="M554.409,282.234a9.051,9.051,0,0,1,.171-1.981c.179-1.21.487-2.875.942-4.694a46.155,46.155,0,0,1,1.4-4.58,7.994,7.994,0,0,1,.812-1.819,10.724,10.724,0,0,1-.512,1.916c-.349,1.169-.812,2.785-1.275,4.588s-.812,3.443-1.064,4.645A9.638,9.638,0,0,1,554.409,282.234Z" transform="translate(-505.521 -187.559)"/><path class="d" d="M595.238,226.33a4.483,4.483,0,0,1,.219.812,7.571,7.571,0,0,1,.041,2.436,17.163,17.163,0,0,1-.958,3.695c-.5,1.4-1.137,2.964-1.624,4.751-1.1,3.557-1.876,7.942-2.98,12.757a53.8,53.8,0,0,1-2.233,7.438,26.729,26.729,0,0,1-4.125,7.26,18.344,18.344,0,0,1-6.545,5.165,16.119,16.119,0,0,1-7.649,1.307,34.57,34.57,0,0,1-6.935-1.2c-2.128-.56-4.06-1.161-5.863-1.746-3.549-1.186-6.342-2.355-8.25-3.2-.95-.43-1.689-.812-2.184-1.015l-.552-.284a.649.649,0,0,1-.187-.114.681.681,0,0,1,.2.073l.577.244,2.209.942c1.925.812,4.734,1.925,8.283,3.07,1.77.568,3.727,1.153,5.855,1.7a34.985,34.985,0,0,0,6.821,1.121,15.794,15.794,0,0,0,7.463-1.3,18.044,18.044,0,0,0,6.391-5.051,26.4,26.4,0,0,0,4.06-7.138,53.589,53.589,0,0,0,2.233-7.382c1.121-4.8,1.925-9.184,3.078-12.757.552-1.795,1.21-3.354,1.73-4.742a17.865,17.865,0,0,0,1.015-3.63,8.931,8.931,0,0,0-.089-3.208Z" transform="translate(-503.83 -179.509)"/></g><g transform="translate(133.14 134.747)"><path class="k" d="M274.52,200.018a2.217,2.217,0,0,1,0,2.079l-17.053,30.355a10.752,10.752,0,0,1-14.406,3.638l-9.5-5.392,6.586-11.418,7.057,4.255,17.053-22.559a21.693,21.693,0,0,0,.252-3.784,5.684,5.684,0,0,0-.357-1.908,8.761,8.761,0,0,0-1-2.176.747.747,0,0,1,.65-1.259c.65.162,2,1.713,2.615,4.06s2.168-1.121,2.753-2.363,2.582-5.01,3.1-5.132c.771-.179,1.1.609.5,1.843s-2.2,5.043-1.527,5.319c0,0,1.186.276,1.486,1.015Z" transform="translate(-164.34 -158.541)"/><path class="m" d="M280.7,197.863a5.05,5.05,0,0,1-.349,1.429c-.154.487-.317.991-.479,1.519-.106.284-.2.585-.3.885a1.226,1.226,0,0,1-.276.512.625.625,0,0,1-.706.1,2.646,2.646,0,0,1-.471-.317.909.909,0,0,1-.349-.512,1.851,1.851,0,0,1,.211-1.015l.585-1.478a4.962,4.962,0,0,1,.642-1.324,5.553,5.553,0,0,1-.365,1.429c-.154.479-.325.983-.5,1.5a1.778,1.778,0,0,0-.179.812c0,.171.357.406.593.528s.187.049.244,0a1.031,1.031,0,0,0,.179-.357c.114-.3.219-.593.325-.885l.568-1.478A4.808,4.808,0,0,1,280.7,197.863Z" transform="translate(-172.648 -160.283)"/><path class="m" d="M281.532,200.816a4.06,4.06,0,0,1-.292,1.3c-.138.455-.284.909-.43,1.38l-.138.4a.885.885,0,0,1-.3.455.633.633,0,0,1-.633,0,2.436,2.436,0,0,1-.43-.276,1.145,1.145,0,0,1-.357-.439.917.917,0,0,1,0-.568c.1-.325.2-.56.3-.812l.528-1.34a4.4,4.4,0,0,1,.593-1.194,4.14,4.14,0,0,1-.309,1.3c-.146.447-.292.9-.447,1.364-.081.252-.195.536-.26.812a.479.479,0,0,0,.227.577c.236.195.5.325.568.244a3.814,3.814,0,0,0,.309-.65q.252-.682.512-1.34A4.571,4.571,0,0,1,281.532,200.816Z" transform="translate(-172.863 -160.67)"/><path class="m" d="M282.922,202.566a4.061,4.061,0,0,1-.292,1.3c-.138.455-.284.91-.43,1.38l-.13.4a.966.966,0,0,1-.309.455.633.633,0,0,1-.633,0,2.437,2.437,0,0,1-.43-.276,1.146,1.146,0,0,1-.357-.439.918.918,0,0,1,0-.568c.1-.325.2-.56.3-.812l.528-1.34a4.4,4.4,0,0,1,.593-1.194,4.142,4.142,0,0,1-.309,1.3c-.146.447-.292.9-.447,1.364-.081.252-.195.544-.26.812a.471.471,0,0,0,.227.577c.236.195.5.325.568.244a3.812,3.812,0,0,0,.309-.65q.252-.682.512-1.34A4.759,4.759,0,0,1,282.922,202.566Z" transform="translate(-173.124 -160.999)"/><path class="m" d="M276.884,205.409a11.047,11.047,0,0,0-.3-2.436,11.367,11.367,0,0,0-1.194-2.184c0-.041.3.1.642.439a4.247,4.247,0,0,1,1.121,3.492C277.071,205.157,276.933,205.425,276.884,205.409Z" transform="translate(-172.202 -160.87)"/><path class="e" d="M204.382,153.717a7.162,7.162,0,0,0-7.991-1.454,22.233,22.233,0,0,1-3.549,1.827c-1.543.4-3.159-.089-4.742-.284s-3.459.041-4.328,1.38c-.56.861-.585,2.03-1.316,2.761-1.007,1-2.7.6-4.06,1a3.768,3.768,0,0,0-2.566,3,4.491,4.491,0,0,0,1.291,3.8,7.139,7.139,0,0,1,1.624,1.738,5.313,5.313,0,0,1-.065,3.078c-.171,1.031-.041,2.306.9,2.769a1.413,1.413,0,0,0,1.965-1.689l19.676-6.31c2.964,0,3.9-2.664,4.369-3.589a7.179,7.179,0,0,0-1.21-8.031Z" transform="translate(-153.483 -151.633)"/><path class="k" d="M182.08,162.265v2.128l.43,31.849a6.8,6.8,0,0,0,7.227,6.5h0a7.207,7.207,0,0,0,7.252-6.911c0-3.922.1-8.047.1-8.047s5.051-.812,6.1-7.43c.52-3.248.357-8.648.081-13.042a6.967,6.967,0,0,0-7.682-6.5Z" transform="translate(-154.665 -153.351)"/><path class="e" d="M206.161,173.273a.812.812,0,1,1-.275-.563A.812.812,0,0,1,206.161,173.273Z" transform="translate(-158.875 -155.556)"/><path class="e" d="M206.01,172.075c-.106.114-.747-.365-1.624-.357s-1.575.455-1.673.341.057-.244.349-.455a2.266,2.266,0,0,1,1.34-.414,2.2,2.2,0,0,1,1.316.422C205.97,171.848,206.059,172.026,206.01,172.075Z" transform="translate(-158.537 -155.308)"/><path class="e" d="M194.951,173.273a.812.812,0,1,1-.275-.563A.812.812,0,0,1,194.951,173.273Z" transform="translate(-156.768 -155.556)"/><path class="e" d="M195,172.285c-.106.114-.747-.365-1.624-.357s-1.575.455-1.673.341.057-.244.349-.463a2.339,2.339,0,0,1,1.34-.406,2.2,2.2,0,0,1,1.315.422C194.96,172.033,195.057,172.236,195,172.285Z" transform="translate(-156.468 -155.348)"/><path class="e" d="M199.742,179.045a5.457,5.457,0,0,1,1.478-.268c.227,0,.447-.073.487-.227a1.153,1.153,0,0,0-.154-.69l-.69-1.77a31.336,31.336,0,0,1-1.543-4.629,30.527,30.527,0,0,1,1.916,4.491q.341.934.658,1.778a1.389,1.389,0,0,1,.122.918.609.609,0,0,1-.382.341,1.957,1.957,0,0,1-.4.049,6.365,6.365,0,0,1-1.494.008Z" transform="translate(-157.905 -155.359)"/><path class="m" d="M198.567,193.5a16.785,16.785,0,0,1-8.827-2.355s2.144,4.523,8.738,3.906Z" transform="translate(-156.105 -159.06)"/><path class="e" d="M196.5,181.57c.146,0,.154.974,1,1.681s1.892.593,1.9.731-.235.187-.682.2a2.436,2.436,0,0,1-1.624-.552,2.128,2.128,0,0,1-.771-1.413C196.32,181.805,196.434,181.562,196.5,181.57Z" transform="translate(-157.341 -157.259)"/><path class="e" d="M195.1,167.942c-.089.252-1,.13-2.063.26s-1.933.422-2.071.195c-.065-.106.081-.333.43-.577a3.581,3.581,0,0,1,1.535-.536,3.46,3.46,0,0,1,1.624.187C194.946,167.633,195.14,167.86,195.1,167.942Z" transform="translate(-156.332 -154.569)"/><path class="e" d="M205.645,168.785c-.162.2-.812,0-1.543,0s-1.389.138-1.535-.081,0-.309.317-.5a2.1,2.1,0,0,1,1.251-.341,2.136,2.136,0,0,1,1.226.414C205.628,168.5,205.718,168.72,205.645,168.785Z" transform="translate(-158.505 -154.682)"/><path class="e" d="M203.272,164.127a9.376,9.376,0,0,1-7.885-.317c-2.964-1.364-6.391-1.973-7.122-1.356s-.812,3.622-3.662,4.588c0,0,.382,5.733-1.908,5.6s-1.949-11.637-1.949-11.637l6.31-.341,6.074-1.348,5.782.633,4.491,1.072Z" transform="translate(-154.411 -153.078)"/><path class="e" d="M180.56,159.341c0-.089.5-.292,1.137-.057s.926.723.812.771-.43-.268-.958-.447S180.576,159.439,180.56,159.341Z" transform="translate(-154.379 -153.05)"/><path class="e" d="M182.849,157c.106,0,.065.682.187,1.462s.455,1.34.374,1.4-.585-.479-.715-1.348A2.241,2.241,0,0,1,182.849,157Z" transform="translate(-154.768 -152.641)"/><path class="k" d="M182.419,172.766c-.089-.049-3.809-1.307-3.849,2.534s3.825,3.094,3.833,2.98S182.419,172.766,182.419,172.766Z" transform="translate(-154.005 -155.56)"/><path class="m" d="M181.465,177.1s-.073.041-.187.089a.6.6,0,0,1-.5,0,1.673,1.673,0,0,1-.755-1.494,2.274,2.274,0,0,1,.195-.958.812.812,0,0,1,.512-.5.341.341,0,0,1,.4.187.214.214,0,0,1,0,.187c0,.008.081-.065.057-.219a.414.414,0,0,0-.146-.244.569.569,0,0,0-.374-.106.966.966,0,0,0-.706.593,2.265,2.265,0,0,0-.244,1.072,1.73,1.73,0,0,0,.958,1.665.723.723,0,0,0,.617-.1C181.457,177.19,181.473,177.1,181.465,177.1Z" transform="translate(-154.221 -155.844)"/><path class="f" d="M191.822,202.987c2.826.162,7.568.544,16.931,6.017,2.046,1.194,23.054,15.3,23.054,15.3l-9.3,11.9-17.134-9.647,2.314,20.513,2.566,24.362-41.5-.528-1.039-24.492-.349-16.663-2.631,22.242-16.412-1.567,4.523-29.3a19.538,19.538,0,0,1,4.32-9.745,24.023,24.023,0,0,1,10.557-6.8,34.659,34.659,0,0,1,7.739-1.413l-.138-4.872s7.382.69,9.347,5.433c0,0,2.436-5.611,7.195-6.074Z" transform="translate(-148.32 -160.283)"/><path class="d" d="M186.312,271.234a6.188,6.188,0,0,1-1.137-2.436,22.168,22.168,0,0,1-.7-7.26c0-1.535.171-3.208.244-4.986a44.212,44.212,0,0,0-.106-5.636,108.005,108.005,0,0,0-2.233-12.839,77.148,77.148,0,0,1-1.933-13.042c-.1-4.06.244-7.69.057-10.695a22.169,22.169,0,0,0-1.364-6.935c-.617-1.567-1.153-2.355-1.064-2.436a6.285,6.285,0,0,1,1.51,2.209,19.83,19.83,0,0,1,1.811,7.073c.309,3.086.057,6.74.219,10.711a83.262,83.262,0,0,0,1.99,12.847A95.633,95.633,0,0,1,185.76,250.8a43.136,43.136,0,0,1,0,5.8c-.146,1.778-.284,3.443-.406,4.962a24.865,24.865,0,0,0,.284,7.089C186.012,270.324,186.409,271.185,186.312,271.234Z" transform="translate(-153.911 -161.657)"/><path class="d" d="M207.345,272.54a10.555,10.555,0,0,1-.422-2.623c-.187-1.738-.455-4.174-.771-7.17-.642-6.058-1.624-14.406-2.956-23.59-.674-4.6-1.38-8.933-2.063-12.928s-1.332-7.544-1.689-10.557a51.459,51.459,0,0,1-.447-7.284,8.8,8.8,0,0,1,.26-2.647c.195,0,.073,3.776,1.056,9.745.463,3,1.2,6.537,1.949,10.5s1.494,8.348,2.176,12.952c1.356,9.209,2.176,17.605,2.59,23.7.211,3.045.325,5.514.365,7.219a11.158,11.158,0,0,1-.049,2.688Z" transform="translate(-157.842 -161.802)"/><path class="d" d="M208.1,205.14a20.842,20.842,0,0,1,.406,2.623,55.287,55.287,0,0,0,1.778,6.984c.438,1.47.934,3.078,1.348,4.872a41.562,41.562,0,0,1,.885,5.757c.365,4.06.317,8.535.568,13.18.471,9.314,1.38,17.727,2,23.818.309,3.045.552,5.514.69,7.227a11.173,11.173,0,0,1,.1,2.672,10.662,10.662,0,0,1-.585-2.615c-.292-1.689-.674-4.141-1.1-7.17-.812-6.074-1.9-14.5-2.371-23.866-.26-4.686-.171-9.152-.471-13.155a42.579,42.579,0,0,0-.747-5.619c-.357-1.746-.812-3.354-1.177-4.872a40.425,40.425,0,0,1-1.4-7.162,7.309,7.309,0,0,1,.081-2.672Z" transform="translate(-159.524 -161.689)"/><path class="d" d="M199.772,203.8c-.365-.057-.414-1.129-.715-2.217s-.812-2.022-.536-2.266c.138-.106.439,0,.812.317a3.517,3.517,0,0,1,.958,1.624,3.475,3.475,0,0,1,0,1.876C200.146,203.584,199.943,203.828,199.772,203.8Z" transform="translate(-157.74 -160.588)"/><path class="d" d="M183.809,204.228c-.154.065-.439-.179-.642-.7a3.679,3.679,0,0,1,1.1-3.938c.447-.349.812-.406.91-.276.2.3-.512,1.161-.812,2.436S184.093,204.082,183.809,204.228Z" transform="translate(-154.835 -160.582)"/><path class="d" d="M197.629,272.229c-.114,0,.089-.95,0-2.615a25.6,25.6,0,0,0-1.624-6.894c-.487-1.429-1.064-3-1.559-4.742s-.942-3.614-1.316-5.6c-.763-3.979-1.275-8.372-1.86-12.993-1.145-9.2-2.119-17.54-2.761-23.59-.317-3.021-.552-5.465-.69-7.162a10.305,10.305,0,0,1-.081-2.647,10.922,10.922,0,0,1,.568,2.582c.284,1.681.658,4.109,1.1,7.122.869,6.009,1.981,14.333,3.126,23.55.593,4.6,1.064,8.989,1.746,12.92.341,1.965.739,3.817,1.186,5.53s.966,3.248,1.4,4.742a22.738,22.738,0,0,1,1.251,7.162,5.814,5.814,0,0,1-.479,2.631Z" transform="translate(-155.719 -161.849)"/><path class="d" d="M178.109,276c-.179,0-.487-2.5-.95-6.57s-1.1-9.68-1.762-15.892-1.113-11.872-1.307-15.965-.154-6.643,0-6.651.463,2.509.885,6.578,1.015,9.745,1.673,15.908,1.161,11.848,1.389,15.949S178.28,275.989,178.109,276Z" transform="translate(-153.139 -166.534)"/><path class="d" d="M151.8,252.582c-.171-.041.309-2.7,1.218-6.976s2.241-10.151,3.792-16.631c.812-3.248,1.543-6.31,2.233-9.119a28.691,28.691,0,0,1,2.542-7.349,10.062,10.062,0,0,1,3.654-3.825c1.1-.617,1.819-.682,1.835-.617s-.609.333-1.567,1.031a10.678,10.678,0,0,0-3.135,3.833,31.556,31.556,0,0,0-2.193,7.195l-2.136,9.144c-1.551,6.5-3.029,12.327-4.158,16.55S151.956,252.623,151.8,252.582Z" transform="translate(-148.968 -162.235)"/><path class="d" d="M173.034,212.189c.065.081-.39.5-.861,1.478a22.434,22.434,0,0,0-1.494,4.377c-.235.966-.487,2.022-.755,3.143s-.471,2.355-.739,3.654a24.159,24.159,0,0,1-1.145,4.06,42.794,42.794,0,0,1-1.908,4.06c-.7,1.348-1.4,2.655-1.941,3.93a18.515,18.515,0,0,0-1.072,3.833,53.171,53.171,0,0,0-.7,6.87c-.171,3.955-.114,6.423-.3,6.431s-.536-2.436-.6-6.448a44.564,44.564,0,0,1,.447-7.049,18.962,18.962,0,0,1,1.08-4.133c.56-1.364,1.259-2.688,1.957-4.06s1.356-2.647,1.876-3.938a24.579,24.579,0,0,0,1.169-3.857c.292-1.267.544-2.5.853-3.646s.609-2.184.918-3.151a16.891,16.891,0,0,1,1.933-4.377C172.392,212.448,172.993,212.132,173.034,212.189Z" transform="translate(-150.8 -163.013)"/><path class="d" d="M240.962,231.879c-.065.154-1.673-.382-4.02-1.705a51.1,51.1,0,0,1-8.575-6.082c-1.567-1.4-2.826-2.858-4.06-4.06a23.346,23.346,0,0,0-3.541-2.9c-2.176-1.421-3.825-1.754-3.776-1.965,0-.081.447-.089,1.194.057a10.808,10.808,0,0,1,3.037,1.137,20.09,20.09,0,0,1,3.882,2.81c1.348,1.186,2.664,2.647,4.141,3.963a83.888,83.888,0,0,0,8.21,6.269C239.605,230.9,241.035,231.708,240.962,231.879Z" transform="translate(-161.226 -163.563)"/><path class="d" d="M237.33,239.5c-.1.146-1.234-.479-3.029-1.535s-4.247-2.534-6.935-4.247a64.547,64.547,0,0,1-6.659-4.742c-1.624-1.348-2.485-2.314-2.379-2.436s1.194.585,2.915,1.73,4.125,2.688,6.805,4.393,5.083,3.305,6.756,4.564S237.436,239.351,237.33,239.5Z" transform="translate(-161.476 -165.708)"/><path class="e" d="M170.72,207.41a.811.811,0,0,1,.26.081,4.976,4.976,0,0,1,.7.349,7.592,7.592,0,0,1,2.128,1.916,10.029,10.029,0,0,1,1.787,3.849,14.024,14.024,0,0,1,.122,5.2,29.114,29.114,0,0,1-1.275,5.027c-.512,1.5-1.015,2.842-1.4,3.971s-.69,2.046-.877,2.688a5.812,5.812,0,0,1-.325.991,4.588,4.588,0,0,1,.171-1.031c.138-.658.4-1.624.755-2.745a59.128,59.128,0,0,0,2.55-8.933,14.146,14.146,0,0,0-.081-5.051,10.345,10.345,0,0,0-1.624-3.768,9.363,9.363,0,0,0-2.883-2.542Z" transform="translate(-152.53 -162.116)"/><path class="e" d="M218.5,233.015a5.44,5.44,0,0,1-.162-.991c-.1-.715-.211-1.624-.341-2.7-.292-2.371-.666-5.481-1.088-8.933s-.812-6.545-1.08-8.933c-.13-1.072-.244-1.981-.325-2.7a4.166,4.166,0,0,1-.081-1,5.6,5.6,0,0,1,.235.974c.122.633.276,1.551.455,2.688.349,2.274.812,5.425,1.2,8.933s.763,6.651.966,8.933c.106,1.145.179,2.071.211,2.712a4.353,4.353,0,0,1,.008,1.015Z" transform="translate(-160.93 -162.182)"/><path class="e" d="M189.527,202.776a1.965,1.965,0,0,0-1.389.179,2.29,2.29,0,0,0-.974,1.137,5.3,5.3,0,0,0-.317.877l-.122.5a1.178,1.178,0,0,1-.268.56.528.528,0,0,1-.365.179.715.715,0,0,1-.341-.065c-.187-.081-.317-.146-.471-.227l-.869-.422-1.462-.747a5.148,5.148,0,0,1-1.3-.812,5.814,5.814,0,0,1,1.421.52l1.5.666.877.406.455.211a.452.452,0,0,0,.26,0,3.394,3.394,0,0,0,.3-.885,5.3,5.3,0,0,1,.357-.934,2.477,2.477,0,0,1,1.186-1.234,1.665,1.665,0,0,1,1.145-.13C189.421,202.638,189.535,202.752,189.527,202.776Z" transform="translate(-154.584 -161.193)"/><path class="e" d="M200.637,203.524a22.61,22.61,0,0,1-3.2,2.655l-.268.2-.057-.333a2.613,2.613,0,0,0-.073-.414,4.872,4.872,0,0,0-1.2-2.826,4.264,4.264,0,0,0-1.088-.69,1.624,1.624,0,0,1,1.283.471,3.3,3.3,0,0,1,.91,1.218,7.227,7.227,0,0,1,.5,1.754l.073.422-.325-.13A22.5,22.5,0,0,1,200.637,203.524Z" transform="translate(-157.046 -161.12)"/><path class="e" d="M164.523,262.918a11.824,11.824,0,0,1-1.981-.552c-1.218-.374-2.9-.869-4.775-1.34s-3.589-.812-4.872-1.072a12.853,12.853,0,0,1-2.014-.455,9.1,9.1,0,0,1,2.054.171,44.978,44.978,0,0,1,4.872.958,45.613,45.613,0,0,1,4.759,1.462,9.045,9.045,0,0,1,1.957.828Z" transform="translate(-148.801 -171.905)"/><path class="e" d="M152.57,257.41a8.517,8.517,0,0,1,1.957.4c1.2.317,2.842.812,4.621,1.421.893.317,1.73.633,2.493.934a12.045,12.045,0,0,1,1.99.918c1.113.666,1.356,1.527,1.307,1.527a4.4,4.4,0,0,0-1.454-1.275,15.157,15.157,0,0,0-1.981-.812l-2.493-.893c-1.77-.617-3.386-1.145-4.564-1.527A10.509,10.509,0,0,1,152.57,257.41Z" transform="translate(-149.119 -171.513)"/><path class="e" d="M241.28,239.029a6.376,6.376,0,0,1,.69-1.575,36.748,36.748,0,0,1,2.152-3.557,38.581,38.581,0,0,1,2.542-3.289,6.684,6.684,0,0,1,1.226-1.218c.089.081-1.624,2.079-3.427,4.742S241.386,239.086,241.28,239.029Z" transform="translate(-165.791 -166.247)"/><path class="e" d="M239.76,237.153a5.124,5.124,0,0,1,.723-1.421,17.119,17.119,0,0,1,2.436-3,17.355,17.355,0,0,1,3.013-2.379,4.588,4.588,0,0,1,1.429-.707,44.993,44.993,0,0,0-4.158,3.378,46.523,46.523,0,0,0-3.443,4.125Z" transform="translate(-165.506 -166.296)"/><path class="e" d="M201.9,275.352a3.411,3.411,0,0,1-.114-.65c-.057-.471-.138-1.1-.236-1.884-.195-1.673-.471-4.02-.812-6.911-.682-5.831-1.624-13.894-2.72-22.794s-2.184-16.939-3.061-22.738c-.447-2.907-.812-5.254-1.072-6.87-.13-.812-.227-1.4-.3-1.876a3.248,3.248,0,0,1-.073-.65,3.779,3.779,0,0,1,.162.642l.374,1.852c.325,1.624.723,3.955,1.21,6.854.942,5.806,2.079,13.846,3.183,22.738s1.99,16.964,2.59,22.811c.284,2.891.512,5.254.674,6.927.065.812.122,1.421.154,1.884A5.836,5.836,0,0,1,201.9,275.352Z" transform="translate(-156.813 -162.787)"/><path class="e" d="M197.272,227.637c-.049,0-.106-.333.284-.642a.812.812,0,0,1,.812-.073.885.885,0,0,1,.487.934.812.812,0,0,1-.812.666.69.69,0,0,1-.69-.5.658.658,0,0,1,.057-.552c.073-.114.154-.138.171-.122a.818.818,0,0,0,.049.56.39.39,0,0,0,.4.227.487.487,0,0,0,.422-.357.52.52,0,0,0-.26-.512.5.5,0,0,0-.5,0C197.4,227.393,197.337,227.653,197.272,227.637Z" transform="translate(-157.514 -165.769)"/><path class="e" d="M200.292,245.065c-.049,0-.106-.341.284-.65a.812.812,0,0,1,.812-.073.885.885,0,0,1,.487.934.853.853,0,0,1-.812.674.7.7,0,0,1-.7-.512.666.666,0,0,1,.057-.552c.073-.106.154-.13.171-.114a.818.818,0,0,0,.049.56.4.4,0,0,0,.4.227.5.5,0,0,0,.422-.365.512.512,0,0,0-.755-.52C200.422,244.862,200.357,245.081,200.292,245.065Z" transform="translate(-158.081 -169.043)"/><path class="f" d="M189.476,454.505l-.162-7.235-13.553.219.13,10.557.812.041c3.744.146,19.035.479,21.528-.325C201.031,456.909,189.476,454.505,189.476,454.505Z" transform="translate(-153.477 -207.196)"/><g class="o" transform="translate(22.413 248.682)"><path class="j" d="M195.158,457.87s4.06,1.1,3.565,1.77-15.965.918-22.8.43v-.309l18.052-.13S194.37,457.919,195.158,457.87Z" transform="translate(-175.92 -457.87)"/></g><path class="e" d="M175.68,460.112h.9l2.436.065c2.079.041,4.954.065,8.121,0s6.058-.154,8.121-.26l2.436-.138.666-.049h-.674l-2.436.089c-2.079.073-4.954.162-8.121.211s-6.05.049-8.121,0h-3.07Z" transform="translate(-153.462 -209.538)"/><path class="e" d="M198.165,459.806a5.733,5.733,0,0,1,.438-1.186,5.546,5.546,0,0,1,.812-.95,1.762,1.762,0,0,0-.966.869A1.8,1.8,0,0,0,198.165,459.806Z" transform="translate(-157.684 -209.151)"/><path class="e" d="M193.208,457.616a2.961,2.961,0,0,0,.414-.528c.195-.317.317-.585.276-.609s-.219.211-.414.528S193.168,457.592,193.208,457.616Z" transform="translate(-156.755 -208.927)"/><path class="e" d="M191.839,457.01a2.057,2.057,0,0,0,.471-.325c.227-.211.4-.414.365-.447s-.244.106-.471.325S191.807,456.978,191.839,457.01Z" transform="translate(-156.498 -208.881)"/><path class="e" d="M191,455.607a1.624,1.624,0,0,0,.715.073,1.689,1.689,0,0,0,.706-.081,1.543,1.543,0,0,0-.706-.081,1.5,1.5,0,0,0-.715.089Z" transform="translate(-156.341 -208.744)"/><path class="e" d="M190.65,454.52a1.357,1.357,0,0,0,.812.219,1.421,1.421,0,0,0,.812-.122,3.956,3.956,0,0,0-.812-.041,4.24,4.24,0,0,0-.812-.057Z" transform="translate(-156.276 -208.558)"/><path class="e" d="M193.75,456.14a2.681,2.681,0,0,0,.869,0,4.87,4.87,0,0,0,.926-.219,2.07,2.07,0,0,0,.528-.227.479.479,0,0,0,.211-.268.349.349,0,0,0-.138-.349,1.624,1.624,0,0,0-1.965.5,1.526,1.526,0,0,0-.276.585.576.576,0,0,0,0,.236,2.655,2.655,0,0,1,.39-.747,1.624,1.624,0,0,1,.731-.5,1.356,1.356,0,0,1,1.039.057c.146.1.089.26-.057.357a2.89,2.89,0,0,1-.487.219,6.55,6.55,0,0,1-.893.244C194.083,456.108,193.75,456.108,193.75,456.14Z" transform="translate(-156.858 -208.636)"/><path class="e" d="M193.731,456.075a.812.812,0,0,0,.089-.6,1.365,1.365,0,0,0-.252-.633.812.812,0,0,0-.731-.43.341.341,0,0,0-.26.406.861.861,0,0,0,.154.382,2.387,2.387,0,0,0,.422.52c.276.268.487.365.5.349s-.179-.154-.422-.422a3.6,3.6,0,0,1-.374-.52c-.122-.187-.211-.512,0-.552s.447.187.577.357a1.437,1.437,0,0,1,.26.56A3.506,3.506,0,0,1,193.731,456.075Z" transform="translate(-156.637 -208.538)"/><path class="e" d="M176,455.6a8.581,8.581,0,0,1,1,0,4.267,4.267,0,0,1,3.6,2.769c.211.585.236.974.268.966a.812.812,0,0,0,0-.276,3.541,3.541,0,0,0-.162-.723,4.125,4.125,0,0,0-3.695-2.85,4.062,4.062,0,0,0-.747,0C176.049,455.559,176,455.583,176,455.6Z" transform="translate(-153.522 -208.737)"/><path class="e" d="M177.55,448.65a22.146,22.146,0,0,0-.073,2.785,21.87,21.87,0,0,0,.089,2.785,24.05,24.05,0,0,0,.073-2.785,26.324,26.324,0,0,0-.089-2.785Z" transform="translate(-153.797 -207.455)"/><path class="e" d="M184,458.685a11.369,11.369,0,0,0,3.963,0c0-.049-.885,0-1.981,0S184.041,458.636,184,458.685Z" transform="translate(-155.026 -209.337)"/><path class="e" d="M180.77,458.729s.081.187.171.39.146.382.195.374.065-.211-.049-.447S180.8,458.7,180.77,458.729Z" transform="translate(-154.419 -209.349)"/><path class="e" d="M179.52,457.218a.886.886,0,0,0,.195.309c.138.138.284.227.317.195s-.057-.171-.2-.309S179.552,457.186,179.52,457.218Z" transform="translate(-154.184 -209.065)"/><path class="e" d="M177.74,456.532c0,.041.195.041.39.106s.349.17.382.138-.081-.219-.333-.292S177.724,456.483,177.74,456.532Z" transform="translate(-153.849 -208.922)"/><path class="e" d="M176.48,456.223c0,.049.065.114.179.154s.219.041.227,0-.057-.114-.171-.154S176.5,456.182,176.48,456.223Z" transform="translate(-153.613 -208.873)"/><g class="g" transform="translate(22.323 244.427)"><path class="h" d="M175.932,454.7l13.537-.438-.049-1.632-13.61,1.21Z" transform="translate(-175.81 -452.63)"/></g><path class="f" d="M228.158,454.675l-.2-7.235-13.545.292.179,10.557h.812c3.744.13,19.043.382,21.528-.43C239.73,457.022,228.158,454.675,228.158,454.675Z" transform="translate(-160.741 -207.228)"/><g class="o" transform="translate(53.847 248.787)"><path class="j" d="M233.859,458s4.06,1.072,3.573,1.746-15.965,1-22.8.552v-.309l18.052-.219S233.072,458.057,233.859,458Z" transform="translate(-214.63 -458)"/></g><path class="e" d="M214.39,460.355h.9l2.436.057c2.079,0,4.954.041,8.121,0s6.05-.187,8.121-.3l2.436-.154.666-.057H236.4l-2.436.1c-2.079.089-4.954.195-8.121.26s-6.05.073-8.121.073h-3.135Z" transform="translate(-160.737 -209.57)"/><path class="e" d="M236.876,459.952a5.076,5.076,0,0,1,.439-1.186,5.443,5.443,0,0,1,.812-.966,1.8,1.8,0,0,0-.966.877,1.843,1.843,0,0,0-.284,1.275Z" transform="translate(-164.96 -209.175)"/><path class="e" d="M231.9,457.785a2.788,2.788,0,0,0,.422-.528,1.624,1.624,0,0,0,.276-.617,3.155,3.155,0,0,0-.422.528A1.624,1.624,0,0,0,231.9,457.785Z" transform="translate(-164.028 -208.957)"/><path class="e" d="M230.539,457.18c0,.041.244-.114.471-.325s.39-.414.357-.447-.244.114-.471.325S230.507,457.148,230.539,457.18Z" transform="translate(-163.772 -208.913)"/><path class="e" d="M229.65,455.786a1.625,1.625,0,0,0,.706.073,1.5,1.5,0,0,0,.715-.089,1.551,1.551,0,0,0-.715-.073A1.487,1.487,0,0,0,229.65,455.786Z" transform="translate(-163.605 -208.777)"/><path class="e" d="M229.34,454.7a1.339,1.339,0,0,0,.812.219,1.364,1.364,0,0,0,.812-.13,3.955,3.955,0,0,0-.812-.041,5.761,5.761,0,0,0-.812-.049Z" transform="translate(-163.547 -208.592)"/><path class="e" d="M232.44,456.3a2.21,2.21,0,0,0,.869,0,4.873,4.873,0,0,0,.926-.219,2.876,2.876,0,0,0,.528-.227.479.479,0,0,0,.2-.276.333.333,0,0,0-.138-.349,1.624,1.624,0,0,0-1.965.512,1.56,1.56,0,0,0-.268.585.479.479,0,0,0,0,.236,2.379,2.379,0,0,1,.382-.747,1.551,1.551,0,0,1,.731-.5,1.356,1.356,0,0,1,1.039.049c.138.1.089.268-.065.357a2.555,2.555,0,0,1-.479.219,5.679,5.679,0,0,1-.893.252C232.773,456.267,232.44,456.275,232.44,456.3Z" transform="translate(-164.13 -208.665)"/><path class="e" d="M232.45,456.245a.893.893,0,0,0,.089-.609,1.47,1.47,0,0,0-.252-.625.877.877,0,0,0-.739-.43.357.357,0,0,0-.26.406,1.064,1.064,0,0,0,.162.39,2.534,2.534,0,0,0,.422.512,1.234,1.234,0,0,0,.5.349,4.93,4.93,0,0,1-.422-.43,2.436,2.436,0,0,1-.374-.512c-.13-.179-.219-.512,0-.552s.447.187.585.357a1.511,1.511,0,0,1,.26.56A3.5,3.5,0,0,1,232.45,456.245Z" transform="translate(-163.913 -208.57)"/><path class="e" d="M214.64,455.855a6.446,6.446,0,0,1,1,0,4.239,4.239,0,0,1,3.606,2.753,9.232,9.232,0,0,1,.276.966V459.3a3.541,3.541,0,0,0-.162-.723,4.247,4.247,0,0,0-1.421-2,4.141,4.141,0,0,0-2.29-.812,3.932,3.932,0,0,0-.747,0A.916.916,0,0,0,214.64,455.855Z" transform="translate(-160.784 -208.789)"/><path class="e" d="M216.2,448.9a22.415,22.415,0,0,0-.057,2.785,21.694,21.694,0,0,0,.106,2.785,24.279,24.279,0,0,0,.057-2.785A23.748,23.748,0,0,0,216.2,448.9Z" transform="translate(-161.064 -207.502)"/><path class="e" d="M222.75,458.886a7.234,7.234,0,0,0,1.981.154,7.739,7.739,0,0,0,1.973-.195c0-.049-.885,0-1.973,0A15.332,15.332,0,0,0,222.75,458.886Z" transform="translate(-162.309 -209.367)"/><path class="e" d="M219.48,459s.073.187.171.382.146.382.195.382.065-.219-.049-.447S219.5,458.94,219.48,459Z" transform="translate(-161.694 -209.398)"/><path class="e" d="M218.21,457.458a.84.84,0,0,0,.2.309c.146.138.284.227.317.195s-.057-.171-.2-.309S218.242,457.426,218.21,457.458Z" transform="translate(-161.455 -209.11)"/><path class="e" d="M216.43,456.771c0,.049.195,0,.4.114s.341.162.374.138-.081-.219-.325-.3S216.422,456.73,216.43,456.771Z" transform="translate(-161.121 -208.966)"/><path class="e" d="M215.17,456.484c0,.041.065.114.179.154s.219.041.236,0-.065-.106-.179-.146S215.186,456.443,215.17,456.484Z" transform="translate(-160.884 -208.923)"/><g class="g" transform="translate(53.734 244.565)"><path class="h" d="M214.62,454.944l13.529-.512-.057-1.632-13.6,1.283Z" transform="translate(-214.49 -452.8)"/></g><path class="e" d="M172.69,285.17V422.188h21.357l1.892-118.844,7.487,118.844h21.365l-9.558-134.7Z" transform="translate(-152.9 -176.73)"/><path class="i" d="M203.1,286.43a11.761,11.761,0,0,1,.179,2.209c.057,1.364.106,3.248.138,5.327V296.9a5.278,5.278,0,0,1-.447,2.436,2.785,2.785,0,0,1-1.21,1.242,1.275,1.275,0,0,1-.65.179,3.688,3.688,0,0,0,.56-.3,2.826,2.826,0,0,0,1.039-1.226,5.359,5.359,0,0,0,.325-2.3c0-.91,0-1.9-.057-2.932v-5.327a11.63,11.63,0,0,1,.122-2.241Z" transform="translate(-158.242 -176.967)"/><path class="i" d="M198.709,288.314a.879.879,0,0,0-.3.658.715.715,0,0,0,.309.609.812.812,0,0,0,.861-.057.552.552,0,0,0,.041-.966.991.991,0,0,0-.861-.187v-.138c.171.081.26.138.252.162s-.122,0-.309,0h-.179l.162-.114a1.113,1.113,0,0,1,1.161.089.812.812,0,0,1,0,1.5,1.21,1.21,0,0,1-1.324,0,.9.9,0,0,1-.365-.9.812.812,0,0,1,.341-.56C198.6,288.3,198.7,288.29,198.709,288.314Z" transform="translate(-157.684 -177.292)"/><path class="k" d="M204.518,254.92c-.56-.739-7.309.43-7.309.43l2.436-1.868c-1.251-2.225-5.587.463-6.967,1.77a2.436,2.436,0,0,0-.682,1.34l-27.22,5.741-15.194-1.551s-.3,2.623-1.064,7.568c-.723,4.669,6.967,9.257,11.726,8.583,4.353-.609,30.956-8.177,35.487-9.469h0l.658-.187h0c1.47-.5,4.978-1.762,5.343-2.4.463-.812.341-7.105.341-7.105l2.493-1.1a1.787,1.787,0,0,0-.049-1.762Z" transform="translate(-148.348 -170.615)"/></g></g></svg>