<svg xmlns="http://www.w3.org/2000/svg" width="427.693" height="396.549" viewBox="0 0 427.693 396.549"><defs><style>.a{fill:#e0e0e0;}.b{fill:#f5f5f5;}.c{opacity:0.8;}.d{fill:#ebebeb;}.d,.k,.l{fill-rule:evenodd;}.e{fill:#263238;}.f,.l{fill:#fff;}.g,.k{fill:#27a5f0;}.h,.q{opacity:0.3;}.i{fill:#fafafa;}.j,.q,.s{fill:#4d4d4d;}.m,.s{opacity:0.4;}.n{fill:#ffbe9d;}.o{fill:#eb996e;}.p{fill:#455a64;}.r{opacity:0.2;}</style></defs><g transform="translate(-19.85 -23.263)"><g transform="translate(60.594 23.263)"><path class="a" d="M423.887,132.151a4.46,4.46,0,0,1,1.394.437,5.967,5.967,0,0,1,2.407,8.558,5.659,5.659,0,0,1-1.134,1.319,5.575,5.575,0,0,1-1.533.929,6.1,6.1,0,0,1-3.717.372,6.031,6.031,0,0,1-3.234-1.942,5.493,5.493,0,0,1-.929-1.533,5.4,5.4,0,0,1-.455-1.673,6,6,0,0,1,.455-3.15,5.9,5.9,0,0,1,5.371-3.559,4.367,4.367,0,0,1,1.449.2c0,.046-.52-.1-1.44-.065a5.863,5.863,0,0,0-3.559,1.4,5.7,5.7,0,0,0-1.57,2.137,5.845,5.845,0,0,0-.4,3,5.435,5.435,0,0,0,.446,1.58,5.351,5.351,0,0,0,.929,1.45,5.659,5.659,0,0,0,3.057,1.858,5.742,5.742,0,0,0,3.54-.344,5.175,5.175,0,0,0,1.45-.929,5.074,5.074,0,0,0,1.078-1.245,5.724,5.724,0,0,0,.929-2.88,5.826,5.826,0,0,0-3.122-5.389C424.408,132.281,423.878,132.2,423.887,132.151Z" transform="translate(-88.702 -30.959)"/><path class="a" d="M427.775,125.044a1.655,1.655,0,0,1,0-.2v-3.113l.046.056-5.361-1.171.093-.046-1.412,3v.056h-.065a13.389,13.389,0,0,0-3.494.623h-.111l-2.444-2.351h.186l-4.646,2.955v-.167l1.115,3.122v.074l-.056.065a13.628,13.628,0,0,0-2.035,2.9v.074h-3.4l.139-.121c-.372,1.682-.78,3.494-1.189,5.361l-.084-.177,2.992,1.412h.084v.093a13.525,13.525,0,0,0,.6,3.484v.093l-.074.074-2.341,2.351v-.2l2.936,4.646-.2-.074,3.122-1.115h.093l.084.065a13.128,13.128,0,0,0,2.88,2.035h0c.046.065-.084-.149.093.149h0V152.3l-.13-.167,5.352,1.208-.186.093c.474-1.013.929-2.007,1.422-3l.046-.084h.1a13.231,13.231,0,0,0,3.475-.6h.093l.074.074,2.351,2.341h-.2l4.646-2.927-.065.177-1.115-3.122V146.2l.065-.074a13.38,13.38,0,0,0,2.044-2.89v-.074h3.4l-.13.111c.427-1.858.827-3.661,1.208-5.361l.074.149-2.992-1.431H434.8v-.074a13.206,13.206,0,0,0-.595-3.494v-.112c.855-.855,1.617-1.626,2.351-2.351v.13l-2.918-4.646h.093l-3.131,1.087h0a14.59,14.59,0,0,0-2.128-1.635l-.576-.344-.186-.121.2.093.585.316a13.43,13.43,0,0,1,2.174,1.617h-.056l3.113-1.134h.056v.056l2.955,4.646.046.074-.056.056-2.23,2.249v-.111a13.308,13.308,0,0,1,.622,3.559l-.065-.1,3,1.412.093.046v.1c-.372,1.691-.771,3.466-1.189,5.352v.111h-3.447l.13-.074a13.937,13.937,0,0,1-2.081,2.964v-.158c.362,1.022.743,2.063,1.115,3.122l.046.121-.111.065L427.97,152.4l-.112.065-.093-.093-2.332-2.314h.167a13.491,13.491,0,0,1-3.568.623l.139-.093c-.465.985-.929,1.988-1.422,2.992l-.056.121h-.13l-5.352-1.143h-.13v-3.447h0c.177.3.046.084.093.149h0a13.473,13.473,0,0,1-2.955-2.081h.167l-3.122,1.106-.13.046-.065-.111-2.936-4.646-.074-.111.093-.093,2.341-2.351v.167a13.788,13.788,0,0,1-.623-3.568l.093.139-2.973-1.468-.112-.056v-.121l1.208-5.352v-.121h3.429l-.13.074a13.807,13.807,0,0,1,2.091-2.945v.139l-1.106-3.131v-.093l.093-.065,4.646-2.927h.084l.065.065,2.351,2.351H417.5a13.409,13.409,0,0,1,3.549-.6l-.084.056c.52-1.078,1-2.091,1.431-2.992V120.5h.065l5.343,1.236h.046v3.094a2.024,2.024,0,0,1-.074.214Z" transform="translate(-87.869 -30.151)"/><path class="a" d="M457.075,409.168v-3.949c0-2.574,0-6.355-.046-11.206,0-9.691-.046-23.675-.074-40.827l.149.149-96.754.046h0l.2-.2v55.982l-.186-.186,69.594.084,19.986.056h.074l-19.949.056-69.687.084h-.177V353h97.116v.158c0,17.2-.056,31.2-.074,40.883V408.09A3.013,3.013,0,0,1,457.075,409.168Z" transform="translate(-84.705 -46.621)"/><path class="a" d="M457.133,360.475c0,.112-21.64.2-48.316.2s-48.316-.084-48.316-.2,21.631-.2,48.316-.2S457.133,360.364,457.133,360.475Z" transform="translate(-84.725 -47.137)"/><rect class="b" width="29.891" height="29.891" transform="translate(283.989 322.574)"/><path class="a" d="M453.61,375.721a1.621,1.621,0,0,1-.437,0H451.91l-4.646.056-15.294.065-15.294-.065-4.646-.056h-1.264a1.621,1.621,0,0,1-.437,0,2,2,0,0,1,.437,0h1.264l4.646-.065,15.294-.056,15.294.056,4.646.065h1.264a2,2,0,0,1,.437,0Z" transform="translate(-88.255 -48.222)"/><path class="a" d="M454.569,382.907a2.041,2.041,0,0,1-.446,0h-1.292l-4.739.065-15.628.056-15.638-.056-4.739-.065H410.8a2.041,2.041,0,0,1-.446,0,1.652,1.652,0,0,1,.446-.046h1.292l4.739-.056,15.638-.065,15.628.065,4.739.056h1.292a1.655,1.655,0,0,1,.446.046Z" transform="translate(-88.256 -48.728)"/><path class="a" d="M454.569,390.091a1.652,1.652,0,0,1-.446,0h-1.292l-4.739.056-15.628.065-15.638-.065-4.739-.056H410.8a1.652,1.652,0,0,1-.446,0,2.046,2.046,0,0,1,.446,0h1.292l4.739-.065,15.638-.056L448.12,390l4.739.065h1.292A2.044,2.044,0,0,1,454.569,390.091Z" transform="translate(-88.256 -49.24)"/><path class="a" d="M454.569,397.277a2.044,2.044,0,0,1-.446,0h-1.292l-4.739.065-15.628.056-15.638-.056-4.739-.065H410.8a2.044,2.044,0,0,1-.446,0,1.65,1.65,0,0,1,.446-.047h1.292l4.739-.056,15.638-.065,15.628.065,4.739.056h1.292a1.652,1.652,0,0,1,.446.046Z" transform="translate(-88.256 -49.746)"/><circle class="b" cx="40.214" cy="40.214" r="40.214" transform="translate(35.709 56.872) rotate(-45)"/><path class="a" d="M181.571,84a8.662,8.662,0,0,1-1.422.093l-3.912.074c-3.317,0-7.935.084-13.148.084h-.26V81.4c0-5.826,0-11.094.074-14.867,0-1.858.065-3.364.084-4.525a9.487,9.487,0,0,1,.1-1.654,10.827,10.827,0,0,1,.1,1.654c0,1.161,0,2.685.084,4.525,0,3.819.074,9.087.074,14.867v2.611l-.251-.26c5.213,0,9.831,0,13.148.084l3.912.084a7.508,7.508,0,0,1,1.412.084Z" transform="translate(-70.722 -25.89)"/><path class="a" d="M163.208,48.3a11.3,11.3,0,0,1,.26,3.373,11.391,11.391,0,0,1-.26,3.382,11.392,11.392,0,0,1-.26-3.382,11.3,11.3,0,0,1,.26-3.373Z" transform="translate(-70.729 -25.036)"/><path class="a" d="M182.641,54.13a10.871,10.871,0,0,1-2.174,2.546,10.75,10.75,0,0,1-2.537,2.165A10.937,10.937,0,0,1,180.1,56.3,11.224,11.224,0,0,1,182.641,54.13Z" transform="translate(-71.792 -25.449)"/><path class="a" d="M194.045,66.73a13.882,13.882,0,0,1-2.787,1.858A14.153,14.153,0,0,1,188.34,70.2a8.975,8.975,0,0,1,2.648-2.053,8.7,8.7,0,0,1,3.057-1.412Z" transform="translate(-72.529 -26.342)"/><path class="a" d="M200.532,85.4a20.284,20.284,0,0,1-4.646.26,20.284,20.284,0,0,1-4.646-.26,20.944,20.944,0,0,1,4.646-.26,20.943,20.943,0,0,1,4.646.26Z" transform="translate(-72.735 -27.644)"/><path class="a" d="M131.827,84.738a18.639,18.639,0,0,1-4.348.26,18.7,18.7,0,0,1-4.348-.26,18.7,18.7,0,0,1,4.348-.26A18.64,18.64,0,0,1,131.827,84.738Z" transform="translate(-67.91 -27.597)"/><path class="a" d="M136.834,98.68a19.884,19.884,0,0,1-3.289,2.983,19.653,19.653,0,0,1-3.614,2.574,18.981,18.981,0,0,1,3.289-2.983A18.341,18.341,0,0,1,136.834,98.68Z" transform="translate(-68.392 -28.605)"/><path class="a" d="M149,109.44a30.044,30.044,0,0,1-2.239,3.875,30.848,30.848,0,0,1-2.369,3.8,14.412,14.412,0,0,1,1.923-4.07A14.5,14.5,0,0,1,149,109.44Z" transform="translate(-69.416 -29.368)"/><path class="a" d="M163.208,122.612a20.943,20.943,0,0,1-.26-4.646,20.943,20.943,0,0,1,.26-4.646,20.943,20.943,0,0,1,.26,4.646,20.943,20.943,0,0,1-.26,4.646Z" transform="translate(-70.728 -29.642)"/><path class="a" d="M184.074,116.252a13.343,13.343,0,0,1-3.8-2.6,13.723,13.723,0,0,1-3.094-3.4,41.764,41.764,0,0,1,3.438,3.01A42.607,42.607,0,0,1,184.074,116.252Z" transform="translate(-71.739 -29.425)"/><path class="a" d="M194.193,105.473a16.047,16.047,0,0,1-3.057-2.676,16.046,16.046,0,0,1-2.676-3.057,16.122,16.122,0,0,1,3.048,2.685,16.121,16.121,0,0,1,2.685,3.048Z" transform="translate(-72.538 -28.68)"/><path class="a" d="M136.517,71.047a12.237,12.237,0,0,1-2.695-2.323A12.238,12.238,0,0,1,131.5,66.03a12.237,12.237,0,0,1,2.695,2.323,12.237,12.237,0,0,1,2.323,2.695Z" transform="translate(-68.503 -26.292)"/><path class="a" d="M148.906,58.017a11.615,11.615,0,0,1-2.648-2.221A11.735,11.735,0,0,1,144,53.12a11.689,11.689,0,0,1,2.639,2.267,11.642,11.642,0,0,1,2.267,2.63Z" transform="translate(-69.388 -25.378)"/><g class="c" transform="translate(266.279 27.435)"><path class="d" d="M395.307,61.617a27.186,27.186,0,0,1,5.817,4.079l6.179-2.2,5.807,9.171-4.646,4.646a26.462,26.462,0,0,1,1.208,6.969l5.928,2.787L413.2,97.7h-6.5a26.592,26.592,0,0,1-4.07,5.789l2.2,6.179-9.171,5.807-4.646-4.646a26.472,26.472,0,0,1-6.969,1.217l-2.787,5.919-10.592-2.369v-6.56a26.312,26.312,0,0,1-5.789-4.079l-6.179,2.2-5.891-9.143,4.646-4.646a26.613,26.613,0,0,1-1.245-6.932l-5.928-2.787,2.379-10.592h6.56a26.315,26.315,0,0,1,4.079-5.789l-2.2-6.179,9.171-5.807,4.646,4.646a26.612,26.612,0,0,1,6.978-1.217l2.787-5.919,10.592,2.379v6.5Zm-9.338,12.469a11.633,11.633,0,1,0,7.3,5.139,11.642,11.642,0,0,0-7.3-5.139Z" transform="translate(-350.28 -52.79)"/></g><path class="b" d="M63.7,161.373h68.758s-6.077-11.057-23.768-9.45c-16.892,1.542-17.756-5.436-26.351-6.3S66.562,151.357,63.7,161.373Z" transform="translate(-63.7 -31.925)"/><path class="b" d="M223.8,296.093h55.629s-4.915-8.948-19.234-7.647c-13.677,1.245-14.374-4.4-21.371-5.1S226.114,287.982,223.8,296.093Z" transform="translate(-75.041 -41.683)"/></g><g transform="translate(19.85 414.716)"><path class="e" d="M447.543,444.8c0,.13-95.7.242-213.837.242S19.85,444.969,19.85,444.8s95.7-.242,213.856-.242S447.543,444.672,447.543,444.8Z" transform="translate(-19.85 -444.56)"/></g><g transform="translate(42.289 136.135)"><rect class="f" width="134.988" height="90.389" transform="translate(247.073 0.362)"/><path class="g" d="M444.886,235.482v-6.411c0-4.181,0-10.323-.056-18.174,0-15.712-.056-38.281-.1-65.794l.2.186-134.979.056h0l.242-.242v90.379l-.223-.223,97.255.111,27.782.056h.093l-27.735.056-97.395.112h-.223V144.74h.251l134.979.056h.2v.2c0,27.568-.074,50.175-.1,65.905,0,7.842,0,13.937-.046,18.137v4.739A9.358,9.358,0,0,1,444.886,235.482Z" transform="translate(-62.825 -144.74)"/><path class="g" d="M309.91,153.792c0-.139,30.2-.242,67.438-.242s67.439.1,67.439.242-30.188.242-67.439.242S309.91,153.968,309.91,153.792Z" transform="translate(-62.837 -145.364)"/><g class="h" transform="translate(250.223 3.271)"><path class="g" d="M315.474,149.347a1.078,1.078,0,1,1-.312-.768A1.087,1.087,0,0,1,315.474,149.347Z" transform="translate(-313.3 -148.26)"/></g><g class="h" transform="translate(253.93 3.271)"><path class="g" d="M319.464,149.347a1.078,1.078,0,1,1-.312-.768,1.087,1.087,0,0,1,.312.768Z" transform="translate(-317.29 -148.26)"/></g><g class="h" transform="translate(257.582 3.271)"><path class="g" d="M323.394,149.347a1.078,1.078,0,1,1-.312-.768A1.087,1.087,0,0,1,323.394,149.347Z" transform="translate(-321.22 -148.26)"/></g><rect class="g" width="36.005" height="36.005" transform="translate(258.678 17.849)"/><path class="g" d="M430.487,174.882c0,.139-14.049.242-31.368.242s-31.368-.1-31.368-.242,14.049-.242,31.368-.242S430.487,174.751,430.487,174.882Z" transform="translate(-66.934 -146.858)"/><path class="g" d="M430.487,182.092c0,.13-14.049.242-31.368.242s-31.368-.111-31.368-.242,14.049-.242,31.368-.242S430.487,181.989,430.487,182.092Z" transform="translate(-66.934 -147.369)"/><path class="g" d="M430.487,189.292c0,.13-14.049.242-31.368.242s-31.368-.112-31.368-.242,14.049-.242,31.368-.242S430.487,189.152,430.487,189.292Z" transform="translate(-66.934 -147.879)"/><path class="g" d="M404.833,196.492a7.97,7.97,0,0,1-1.459.093l-3.977.074c-3.354.046-7.991.074-13.1.074s-9.756,0-13.11-.074l-3.977-.074a7.97,7.97,0,0,1-1.459-.093,7.971,7.971,0,0,1,1.459-.093l3.977-.074c3.354-.046,7.991-.074,13.11-.074s9.747,0,13.1.074l3.977.074A7.971,7.971,0,0,1,404.833,196.492Z" transform="translate(-66.934 -148.389)"/><g class="h" transform="translate(260.927 65.998)"><rect class="g" width="16.92" height="16.92"/></g><rect class="g" width="16.92" height="16.92" transform="translate(291.617 65.998)"/><rect class="g" width="16.92" height="16.92" transform="translate(322.307 65.998)"/><rect class="g" width="16.92" height="16.92" transform="translate(352.997 65.998)"/><g class="h" transform="translate(258.678 17.849)"><rect class="f" width="36.005" height="36.005"/></g><g class="h" transform="translate(291.617 65.998)"><rect class="f" width="16.92" height="16.92"/></g><g class="h" transform="translate(322.307 65.998)"><rect class="f" width="16.92" height="16.92"/></g><g class="h" transform="translate(352.997 65.998)"><rect class="f" width="16.92" height="16.92"/></g><rect class="f" width="120.252" height="48.846" transform="translate(0.195 32.92)"/><path class="g" d="M164.447,229V215.875c0-8.427,0-20.627-.074-35.717l.13.13-120.243.056h0l.2-.186V229l-.186-.186,86.217.084,25.013.056h.084L130.616,229l-86.347.084H44V180h.2l120.243.065h.139v.13c0,15.127-.056,27.345-.074,35.8v12.2A3.974,3.974,0,0,1,164.447,229Z" transform="translate(-44 -147.238)"/><path class="g" d="M44.34,187.245c0-.1,26.881-.2,60.024-.2s60.042.093,60.042.2-26.881.186-60.042.186S44.34,187.347,44.34,187.245Z" transform="translate(-44.024 -147.737)"/><g class="h" transform="translate(3.605 35.689)"><path class="g" d="M49.627,184.023a.873.873,0,1,1-.873-.873A.873.873,0,0,1,49.627,184.023Z" transform="translate(-47.88 -183.15)"/></g><g class="h" transform="translate(6.616 35.689)"><path class="g" d="M52.867,184.023a.873.873,0,1,1-.873-.873A.873.873,0,0,1,52.867,184.023Z" transform="translate(-51.12 -183.15)"/></g><g class="h" transform="translate(9.542 35.689)"><path class="g" d="M56.017,184.023a.873.873,0,1,1-.873-.873A.873.873,0,0,1,56.017,184.023Z" transform="translate(-54.27 -183.15)"/></g><rect class="g" width="29.046" height="29.046" transform="translate(10.416 47.443)"/><path class="g" d="M159.589,204.166c0,.1-14.95.2-33.385.2s-33.385-.093-33.385-.2,14.95-.186,33.385-.186S159.589,204.064,159.589,204.166Z" transform="translate(-47.458 -148.936)"/><path class="g" d="M159.589,210.535c0,.1-14.95.186-33.385.186s-33.385-.084-33.385-.186,14.95-.2,33.385-.2S159.589,210.433,159.589,210.535Z" transform="translate(-47.458 -149.387)"/><path class="g" d="M135.8,216.911a3.2,3.2,0,0,1-.437,0h-1.254l-4.6.056-15.2.056-15.192-.056-4.646-.056H93.217a3.449,3.449,0,0,1-.437,0,1.515,1.515,0,0,1,.437,0h1.254l4.646-.065,15.192-.056,15.2.056,4.6.065h1.254A1.459,1.459,0,0,1,135.8,216.911Z" transform="translate(-47.456 -149.844)"/><g class="h" transform="translate(10.416 47.443)"><rect class="b" width="29.046" height="29.046"/></g></g><g transform="translate(181.476 74.613)"><path class="b" d="M265.716,114.057c-2.016-1.347-4.785-.53-6.8.818s-3.717,3.187-5.993,4.06c-4.237,1.645-9.8-.307-13.092,2.787-2.091,1.988-2.3,5.259-3.9,7.666-2.695,4.051-9.162,5.575-9.71,10.407-.325,2.787,1.9,5.519,4.646,6.309a9.933,9.933,0,0,0,8.084-1.617c2.787-1.858,4.934-4.646,8.074-5.705s7.182-.177,9.719-2.416,2.156-6.374,3.977-9.236a18.584,18.584,0,0,1,3.856-3.772,7.518,7.518,0,0,0,2.9-4.432c.232-1.793-.5-4.85-1.738-4.915" transform="translate(-196.093 -80.996)"/><path class="e" d="M212.378,326.559c.121-.065.492.307.846.836s.548,1.031.437,1.106-.483-.3-.846-.836S212.266,326.634,212.378,326.559Z" transform="translate(-195.112 -96.098)"/><path class="e" d="M208.1,317.54a5.956,5.956,0,0,1,1.106,2.063,5.891,5.891,0,0,1,.66,2.239,11.391,11.391,0,0,1-1.765-4.3Z" transform="translate(-194.811 -95.459)"/><path class="e" d="M205.777,307.82a11.308,11.308,0,0,1,.846,4.571,5.742,5.742,0,0,1-.66-2.239,5.872,5.872,0,0,1-.186-2.332Z" transform="translate(-194.644 -94.771)"/><path class="e" d="M205.406,297.83a11.513,11.513,0,0,1-.065,4.646,5.519,5.519,0,0,1-.214-2.323,5.575,5.575,0,0,1,.279-2.323Z" transform="translate(-194.598 -94.063)"/><path class="e" d="M206.924,288a5.8,5.8,0,0,1-.251,2.323,5.955,5.955,0,0,1-.725,2.221,5.807,5.807,0,0,1,.251-2.323,6.02,6.02,0,0,1,.725-2.221Z" transform="translate(-194.657 -93.367)"/><path class="e" d="M210.5,278.65a10.936,10.936,0,0,1-1.858,4.237,5.864,5.864,0,0,1,.734-2.221C209.9,279.486,210.378,278.585,210.5,278.65Z" transform="translate(-194.85 -92.704)"/><path class="e" d="M215.938,270.31a5.891,5.891,0,0,1-1.189,2.016,6.7,6.7,0,0,1-1.57,1.728c-.13-.084.409-.985,1.18-2.016S215.8,270.226,215.938,270.31Z" transform="translate(-195.17 -92.113)"/><path class="e" d="M222.625,262.909c.1.093-.539.929-1.422,1.858s-1.682,1.6-1.784,1.515.539-.929,1.431-1.858S222.532,262.807,222.625,262.909Z" transform="translate(-195.613 -91.589)"/><path class="e" d="M229.661,255.789c.1.093-.558.929-1.459,1.858s-1.71,1.58-1.8,1.487.557-.929,1.459-1.858S229.568,255.7,229.661,255.789Z" transform="translate(-196.107 -91.084)"/><path class="e" d="M236.265,248.25a5.835,5.835,0,0,1-1.292,1.951c-.818,1-1.561,1.738-1.663,1.645a6.206,6.206,0,0,1,1.292-1.951C235.41,248.946,236.153,248.175,236.265,248.25Z" transform="translate(-196.597 -90.55)"/><path class="e" d="M241.428,239.67a5.055,5.055,0,0,1-.781,2.211A5.147,5.147,0,0,1,239.3,243.8a6.634,6.634,0,0,1,.929-2.146,6.9,6.9,0,0,1,1.2-1.988Z" transform="translate(-197.022 -89.943)"/><path class="e" d="M243.941,230a4.729,4.729,0,0,1-.046,2.341,4.906,4.906,0,0,1-.715,2.239,7.071,7.071,0,0,1,.242-2.314,7.247,7.247,0,0,1,.52-2.267Z" transform="translate(-197.296 -89.258)"/><path class="e" d="M243.278,220.07a4.767,4.767,0,0,1,.688,2.239,4.9,4.9,0,0,1,0,2.351,7.042,7.042,0,0,1-.5-2.276,7.192,7.192,0,0,1-.186-2.314Z" transform="translate(-197.302 -88.555)"/><path class="e" d="M239.35,210.92c.111-.074.79.734,1.4,1.858a4.878,4.878,0,0,1,.8,2.211,7.332,7.332,0,0,1-1.227-1.979,7.582,7.582,0,0,1-.976-2.091Z" transform="translate(-197.025 -87.906)"/><path class="e" d="M232.38,203.82a4.915,4.915,0,0,1,2.007,1.217c.994.836,1.645,1.673,1.552,1.765s-.929-.576-1.858-1.394S232.3,203.932,232.38,203.82Z" transform="translate(-196.531 -87.403)"/><path class="e" d="M223.29,199.759a4.841,4.841,0,0,1,2.3.427,4.776,4.776,0,0,1,2.091,1.078,7.432,7.432,0,0,1-2.249-.623,6.866,6.866,0,0,1-2.146-.883Z" transform="translate(-195.888 -87.115)"/><path class="e" d="M213.35,199.269a4.646,4.646,0,0,1,2.3-.483,4.767,4.767,0,0,1,2.341.242,7.758,7.758,0,0,1-2.314.242A7.433,7.433,0,0,1,213.35,199.269Z" transform="translate(-195.183 -87.043)"/><path class="e" d="M204.13,202.833c-.084-.111.715-.808,1.858-1.422a4.46,4.46,0,0,1,2.221-.771,8.141,8.141,0,0,1-2,1.189A7.758,7.758,0,0,1,204.13,202.833Z" transform="translate(-194.53 -87.178)"/><path class="e" d="M197.26,209.9a4.73,4.73,0,0,1,1.143-2.053c.79-1.031,1.607-1.71,1.7-1.617a7.461,7.461,0,0,1-1.319,1.914C198.013,209.128,197.372,209.965,197.26,209.9Z" transform="translate(-194.044 -87.574)"/><path class="e" d="M193.884,219.176a4.571,4.571,0,0,1,.177-2.342,4.646,4.646,0,0,1,.929-2.174,7.7,7.7,0,0,1-.437,2.286,7.6,7.6,0,0,1-.669,2.23Z" transform="translate(-193.799 -88.171)"/><path class="e" d="M194.989,229.026a4.646,4.646,0,0,1-.929-2.174,4.525,4.525,0,0,1-.186-2.342,8.409,8.409,0,0,1,.66,2.23A8.075,8.075,0,0,1,194.989,229.026Z" transform="translate(-193.798 -88.869)"/><path class="e" d="M199.943,237.642c-.1.093-.873-.632-1.626-1.691a4.9,4.9,0,0,1-1.087-2.081c.121-.065.734.771,1.477,1.8A7.154,7.154,0,0,1,199.943,237.642Z" transform="translate(-194.041 -89.532)"/><path class="e" d="M207.234,244.457a5.213,5.213,0,0,1-2-1.226c-1.013-.808-1.71-1.6-1.617-1.7a6.848,6.848,0,0,1,1.914,1.329C206.528,243.658,207.317,244.345,207.234,244.457Z" transform="translate(-194.493 -90.075)"/><path class="e" d="M215.864,249.489a11.15,11.15,0,0,1-4.144-2.109,6.02,6.02,0,0,1,2.184.836,5.826,5.826,0,0,1,1.96,1.273Z" transform="translate(-195.068 -90.489)"/><path class="e" d="M225.356,252.591a5.092,5.092,0,0,1-2.332-.279,4.971,4.971,0,0,1-2.174-.883,7.091,7.091,0,0,1,2.3.418,6.617,6.617,0,0,1,2.211.743Z" transform="translate(-195.715 -90.776)"/><path class="e" d="M235.306,253.178a8.465,8.465,0,0,1-4.646.093,6.831,6.831,0,0,1,2.314-.2,7.071,7.071,0,0,1,2.332.111Z" transform="translate(-196.41 -90.889)"/><path class="e" d="M244.947,250.62a8.307,8.307,0,0,1-4.367,1.57,6.949,6.949,0,0,1,2.137-.929A6.822,6.822,0,0,1,244.947,250.62Z" transform="translate(-197.112 -90.719)"/><path class="e" d="M253.339,245.15c.093.1-.613.929-1.645,1.672a5.028,5.028,0,0,1-2.035,1.161c-.074-.121.734-.762,1.747-1.542a7.341,7.341,0,0,1,1.933-1.292Z" transform="translate(-197.755 -90.331)"/><path class="e" d="M259.917,237.59a5.036,5.036,0,0,1-1.143,2.044c-.771,1.041-1.542,1.756-1.645,1.672a7.166,7.166,0,0,1,1.264-1.961C259.155,238.314,259.8,237.515,259.917,237.59Z" transform="translate(-198.284 -89.795)"/><path class="e" d="M264.328,228.59a4.925,4.925,0,0,1-.567,2.276c-.483,1.208-1.05,2.1-1.171,2.035a6.913,6.913,0,0,1,.715-2.211A7.144,7.144,0,0,1,264.328,228.59Z" transform="translate(-198.672 -89.158)"/><path class="e" d="M266.352,218.8a8.864,8.864,0,0,1-.632,4.6,15.22,15.22,0,0,1,.632-4.6Z" transform="translate(-198.893 -88.465)"/><path class="e" d="M266.133,208.809a5.574,5.574,0,0,1,.427,2.3,5.964,5.964,0,0,1-.065,2.341,11.513,11.513,0,0,1-.362-4.646Z" transform="translate(-198.916 -87.756)"/><path class="e" d="M264,199.05a5.677,5.677,0,0,1,.846,2.184,5.771,5.771,0,0,1,.372,2.3,5.844,5.844,0,0,1-.846-2.184A5.744,5.744,0,0,1,264,199.05Z" transform="translate(-198.771 -87.066)"/><path class="e" d="M260.14,189.81c.121-.065.678.827,1.236,1.988a5.715,5.715,0,0,1,.725,2.23A13.658,13.658,0,0,1,260.14,189.81Z" transform="translate(-198.498 -86.411)"/><path class="e" d="M255.22,181.1c.121-.074.734.771,1.384,1.858a5.723,5.723,0,0,1,.929,2.128,5.974,5.974,0,0,1-1.384-1.858,6.04,6.04,0,0,1-.929-2.128Z" transform="translate(-198.149 -85.794)"/><path class="e" d="M250.26,172.41c.121-.065.715.8,1.338,1.914a5.984,5.984,0,0,1,.929,2.156,5.957,5.957,0,0,1-1.338-1.923A5.715,5.715,0,0,1,250.26,172.41Z" transform="translate(-197.798 -85.178)"/><path class="e" d="M246.35,163.21a11.2,11.2,0,0,1,1.626,4.358,5.575,5.575,0,0,1-1.041-2.1A5.779,5.779,0,0,1,246.35,163.21Z" transform="translate(-197.521 -84.527)"/><path class="e" d="M244.637,153.38a6.5,6.5,0,0,1,.409,2.3,6.773,6.773,0,0,1,.084,2.323,4.934,4.934,0,0,1-.558-2.276A5.083,5.083,0,0,1,244.637,153.38Z" transform="translate(-197.388 -83.83)"/><path class="e" d="M245.418,143.43a7.025,7.025,0,0,1-.167,2.323,6.57,6.57,0,0,1-.511,2.276,5.185,5.185,0,0,1,0-2.351,5.036,5.036,0,0,1,.678-2.249Z" transform="translate(-197.397 -83.125)"/><path class="e" d="M248.6,134a6.782,6.782,0,0,1-.743,2.211,6.96,6.96,0,0,1-1.05,2.081A8.706,8.706,0,0,1,248.6,134Z" transform="translate(-197.554 -82.457)"/><path class="e" d="M254.093,125.709c.1.093-.511.929-1.292,1.942s-1.44,1.858-1.552,1.738a4.924,4.924,0,0,1,1.171-2.035C253.211,126.332,254,125.626,254.093,125.709Z" transform="translate(-197.868 -81.87)"/><path class="e" d="M261.539,119.13c.074.112-.734.771-1.738,1.552a6.923,6.923,0,0,1-1.942,1.292c-.093-.1.623-.929,1.645-1.672A5.055,5.055,0,0,1,261.539,119.13Z" transform="translate(-198.336 -81.404)"/><path class="e" d="M270.395,114.61a6.969,6.969,0,0,1-2.072,1.069,6.708,6.708,0,0,1-2.193.771c-.065-.121.818-.7,2.007-1.208a4.878,4.878,0,0,1,2.258-.632Z" transform="translate(-198.922 -81.084)"/><path class="e" d="M277.826,112.762c0,.13-.474.335-1.1.446s-1.161.112-1.189,0,.465-.334,1.1-.455S277.826,112.632,277.826,112.762Z" transform="translate(-199.589 -80.946)"/><path class="g" d="M298.38,82.99A30.423,30.423,0,0,1,324.4,80.2s1.236,12.507-10.871,22.449" transform="translate(-201.207 -78.528)"/><path class="g" d="M261.35,106.267c.465.7,12.311,19.735,12.311,19.735l35.559-21.91A12.451,12.451,0,0,0,312.7,86.086h0a12.441,12.441,0,0,0-16.939-2.918Z" transform="translate(-198.584 -78.707)"/><path class="e" d="M274.539,128.655l-.8,13.4s23.043-11.15,17.292-23.564Z" transform="translate(-199.461 -81.359)"/><path class="e" d="M276.908,96.115S261.28,89.221,248.42,99.33l12.014,7.842Z" transform="translate(-197.668 -79.611)"/><path class="e" d="M277.3,108.181,255.07,122.119s.762,2.4,1.357,2.193,17.217-10.035,22.634-13.241a1.673,1.673,0,0,0,.437-2.5h0a1.682,1.682,0,0,0-2.193-.39Z" transform="translate(-198.139 -80.611)"/><circle class="i" cx="7.117" cy="7.117" r="7.117" transform="translate(91.064 22.325) rotate(-76.76)"/><path class="e" d="M307.561,96.291a12.984,12.984,0,0,0-.316-1.71,7.043,7.043,0,0,0-2.6-3.81,6.894,6.894,0,0,0-2.927-1.273,6.987,6.987,0,0,0-3.624.316,6.875,6.875,0,0,0-3.233,10.546,6.9,6.9,0,0,0,3.2,2.416,7,7,0,0,0,3.624.316,6.894,6.894,0,0,0,2.927-1.273,7.08,7.08,0,0,0,2.6-3.81c.288-1.078.26-1.719.316-1.719a1.5,1.5,0,0,1,0,.465,5.734,5.734,0,0,1-.158,1.3,7.182,7.182,0,0,1-5.64,5.426,7.321,7.321,0,1,1,3.066-12.98,7.089,7.089,0,0,1,2.639,4.07,5.732,5.732,0,0,1,.158,1.3A1.4,1.4,0,0,1,307.561,96.291Z" transform="translate(-200.826 -79.267)"/><path class="e" d="M317.013,100.471c-.093,0-.2-1.384-.743-3.549a27.876,27.876,0,0,0-1.236-3.717,27.2,27.2,0,0,0-5.166-8A27.5,27.5,0,0,0,307,82.547c-1.756-1.384-2.973-2.053-2.927-2.137a4.115,4.115,0,0,1,.883.418,10.765,10.765,0,0,1,.994.585c.372.251.808.511,1.254.864a23.034,23.034,0,0,1,2.983,2.62,24.855,24.855,0,0,1,5.259,8.139,24.075,24.075,0,0,1,1.161,3.8c.139.548.2,1.059.269,1.505a10.212,10.212,0,0,1,.121,1.143,3.426,3.426,0,0,1,.019.985Z" transform="translate(-201.61 -78.661)"/><path class="e" d="M314.939,101.5c-.093,0-.2-1.4-.762-3.605a28.821,28.821,0,0,0-1.254-3.772,29.733,29.733,0,0,0-2.258-4.311,30.115,30.115,0,0,0-2.973-3.847,27.8,27.8,0,0,0-2.918-2.722c-1.775-1.422-3.01-2.109-2.964-2.193a4.181,4.181,0,0,1,.929.437,9.525,9.525,0,0,1,.994.6,10.094,10.094,0,0,1,1.273.929,25.51,25.51,0,0,1,3.01,2.63,27.682,27.682,0,0,1,3.057,3.893,28.308,28.308,0,0,1,2.258,4.4,24.889,24.889,0,0,1,1.18,3.865c.139.558.2,1.078.269,1.524a9.012,9.012,0,0,1,.13,1.161,4.5,4.5,0,0,1,.028,1Z" transform="translate(-201.45 -78.707)"/></g><g transform="translate(35.873 266.134)"><path class="g" d="M81.331,416.18c-.8-3.159,1.292-6.318,3.624-8.595s5.11-4.311,6.337-7.331c1.979-4.887-.613-11.252,2.787-15.322,1.97-2.4,5.5-3.178,7.247-5.742a13.063,13.063,0,0,0,1.6-4.581,46.634,46.634,0,0,1,11.726-21.649,40.372,40.372,0,0,1-4.646,20.9c-1.366,2.565-3.038,5.064-3.494,7.935-.762,4.646,1.858,9.468.65,14.04-1.347,5.222-7.238,8.7-7.554,14.077-.26,4.562,3.717,8.576,3.364,13.129a12.209,12.209,0,0,1-2.053,5.389c-3.642,5.807-8.818,9.812-16.651,9.635l-9.608.279Z" transform="translate(-39.756 -289.489)"/><g class="h" transform="translate(34.904 63.471)"><path class="j" d="M81.331,416.18c-.8-3.159,1.292-6.318,3.624-8.595s5.11-4.311,6.337-7.331c1.979-4.887-.613-11.252,2.787-15.322,1.97-2.4,5.5-3.178,7.247-5.742a13.063,13.063,0,0,0,1.6-4.581,46.634,46.634,0,0,1,11.726-21.649,40.372,40.372,0,0,1-4.646,20.9c-1.366,2.565-3.038,5.064-3.494,7.935-.762,4.646,1.858,9.468.65,14.04-1.347,5.222-7.238,8.7-7.554,14.077-.26,4.562,3.717,8.576,3.364,13.129a12.209,12.209,0,0,1-2.053,5.389c-3.642,5.807-8.818,9.812-16.651,9.635l-9.608.279Z" transform="translate(-74.66 -352.96)"/></g><path class="e" d="M70.048,436.033a7.488,7.488,0,0,1-2.648-.074,16.171,16.171,0,0,1-3.113-.8,13.429,13.429,0,0,1-3.847-2.137,5.306,5.306,0,0,1-1.57-2.118,9.98,9.98,0,0,1-.437-2.871,30.157,30.157,0,0,0-.2-3.113,8.511,8.511,0,0,0-1.161-3.094c-1.115-2-2.992-3.884-3.577-6.6s-.158-5.575.307-8.409.929-6.021-.177-9.031-3.1-5.733-4.135-9.124-.52-7.1-.725-10.732a14.123,14.123,0,0,0-1.217-5.343c-.771-1.7-1.858-3.308-2.667-5.1-1.682-3.633-1.961-7.731-2.407-11.754-.214-2.026-.437-4.079-.65-6.142a29.984,29.984,0,0,0-1.041-6.151,53.473,53.473,0,0,0-2.258-5.956,19.512,19.512,0,0,1-1.1-3.113,31,31,0,0,1-.3-3.308,38.849,38.849,0,0,1,.3-6.644c.269-2.211.688-4.413.929-6.634v-.381l.046-.437.39.2a14.727,14.727,0,0,1,5.148,4.395,23.592,23.592,0,0,1,3.15,5.872c1.58,4.135,2.128,8.465,2.918,12.59s1.784,8.2,3.875,11.642c1.05,1.719,2.314,3.289,3.419,4.962a13.724,13.724,0,0,1,2.351,5.482c.539,4.07-1.719,7.628-1.273,11.224a12.534,12.534,0,0,0,1.784,4.99c.864,1.542,1.858,2.964,2.843,4.4a27.585,27.585,0,0,1,2.555,4.441A13.937,13.937,0,0,1,66.74,392c.214,3.243-.26,6.309,0,9.217a21.12,21.12,0,0,0,2.323,7.907c1.143,2.369,2.425,4.516,3.494,6.588A32.525,32.525,0,0,1,74,418.787a14.671,14.671,0,0,1,.827,3.038,19.057,19.057,0,0,1,0,5.482,13.8,13.8,0,0,1-2.787,6.978,6.319,6.319,0,0,1-.781.836,3.663,3.663,0,0,1-.632.53l-.548.381a12.214,12.214,0,0,0,1.858-1.858,13.937,13.937,0,0,0,2.648-6.922,19.01,19.01,0,0,0-.093-5.408,14.587,14.587,0,0,0-.836-2.973c-.4-.994-.929-2-1.44-3.029-1.087-2.053-2.379-4.19-3.549-6.578a21.538,21.538,0,0,1-2.407-8.047c-.242-2.964.223-6.04,0-9.208a13.519,13.519,0,0,0-1.134-4.646,27.587,27.587,0,0,0-2.527-4.358c-.929-1.431-1.988-2.862-2.88-4.432a13.157,13.157,0,0,1-1.8-5.2c-.437-3.837,1.8-7.433,1.245-11.2a13.008,13.008,0,0,0-2.286-5.222c-1.087-1.645-2.36-3.215-3.438-4.971-2.156-3.54-3.2-7.684-3.968-11.837s-1.347-8.437-2.9-12.488a22.913,22.913,0,0,0-3.066-5.714,14.17,14.17,0,0,0-4.925-4.209l.446-.251-.046.39c-.26,2.249-.669,4.451-.929,6.634a37.816,37.816,0,0,0-.3,6.551c.056,1.069.121,2.193.279,3.206a20.629,20.629,0,0,0,1.059,3,54.153,54.153,0,0,1,2.286,6.021,30.53,30.53,0,0,1,1.031,6.235c.223,2.063.437,4.116.65,6.142.437,4.042.715,8.074,2.332,11.577.808,1.747,1.858,3.354,2.657,5.12a14.867,14.867,0,0,1,1.264,5.575c.186,3.717-.316,7.331.669,10.62s3.057,6,4.1,9.115.623,6.374.149,9.245-.929,5.705-.353,8.26,2.351,4.46,3.494,6.5a8.818,8.818,0,0,1,1.18,3.215,28.805,28.805,0,0,1,.186,3.15,9.487,9.487,0,0,0,.39,2.788,5.148,5.148,0,0,0,1.477,2.035A13.221,13.221,0,0,0,64.315,435a16.325,16.325,0,0,0,3.066.855,13.147,13.147,0,0,0,1.951.2A6.942,6.942,0,0,1,70.048,436.033Z" transform="translate(-37.095 -286.94)"/><path class="e" d="M40.59,323.15a1.207,1.207,0,0,1,.093.288c.046.232.121.511.2.864.186.762.4,1.9.753,3.336s1.236,3.038,1.97,5.027,1.533,4.256,2.239,6.82,1.357,5.417,2.016,8.465a35.588,35.588,0,0,0,3.02,9.44c.78,1.561,1.654,3.15,2.351,4.878a22.848,22.848,0,0,1,1.357,5.519,112.115,112.115,0,0,0,2,11.633c1.858,7.879,3.717,15.387,5.306,22.226s3.178,12.952,4.451,18.128,2.239,9.292,2.945,12.228l.771,3.336c.074.353.139.641.186.873a1.441,1.441,0,0,1,0,.3,1.106,1.106,0,0,1-.1-.288l-.251-.855c-.214-.8-.511-1.9-.929-3.308l-3.141-12.181c-1.3-5.166-2.853-11.3-4.571-18.091S57.8,387.439,55.893,379.55a110.924,110.924,0,0,1-1.914-11.717,21.77,21.77,0,0,0-1.3-5.389c-.669-1.682-1.533-3.261-2.314-4.841a36.042,36.042,0,0,1-3-9.505c-.641-3.057-1.245-5.9-1.933-8.455s-1.412-4.85-2.146-6.82a47.14,47.14,0,0,1-1.858-5.092c-.334-1.477-.5-2.592-.641-3.364-.065-.353-.111-.65-.149-.883A1.2,1.2,0,0,1,40.59,323.15Z" transform="translate(-37.343 -287.377)"/><path class="g" d="M70.232,433.762c-6.253-3.763-7.991-15.09-5.333-21.891s7.275-13.008,8.019-20.256c.576-5.575-1.217-11.317.112-16.725,1.8-7.359,9.022-13.008,8.985-20.59,0-4.246-2.416-8.26-2.2-12.506.269-5.2,4.283-9.292,6.783-13.882,3.828-7,4.125-15.294,5.463-23.155s4.386-16.279,11.382-20.107c.994,6.69,2.732,11.28,2.128,20.33-.223,3.243-4.033,9.45-4.59,16.567-.325,4.256-.567,8.52-.846,12.785s-.576,8.362-2.081,12.237c-1.152,2.964-3,5.649-3.865,8.715-1.626,5.77.437,12.033-.929,17.877-1.115,4.952-4.571,9.2-5.306,14.216-1.022,7.062,3.5,14.421,1.124,21.148-1.18,3.336-3.94,6-4.739,9.45-.623,2.676,0,5.51-.539,8.2-.929,4.33-9.2,7.647-13.612,7.359" transform="translate(-38.979 -284.65)"/><path class="e" d="M102.174,291.73a1.961,1.961,0,0,1,0,.381,9.872,9.872,0,0,1-.149,1.1c-.149.929-.316,2.379-.65,4.209s-1.329,3.912-2.1,6.4-1.626,5.361-2.351,8.585-1.347,6.774-2,10.6a43.613,43.613,0,0,1-3.289,11.986c-.929,2-1.858,4-2.639,6.132a27.874,27.874,0,0,0-1.366,6.774A135.856,135.856,0,0,1,85.71,362.5c-1.979,9.886-3.856,19.308-5.575,27.875L75.34,413.088c-1.384,6.43-2.509,11.642-3.289,15.294-.4,1.775-.706,3.168-.929,4.153l-.251,1.078a2.053,2.053,0,0,1-.111.362,2.2,2.2,0,0,1,0-.372c.056-.279.121-.641.2-1.1.2-.994.465-2.388.818-4.172.734-3.661,1.793-8.892,3.094-15.34s2.908-14.188,4.646-22.737l5.575-27.875a139.366,139.366,0,0,0,1.923-14.551,28.117,28.117,0,0,1,1.412-6.913c.771-2.174,1.784-4.19,2.676-6.17,1.914-3.921,2.6-8.028,3.3-11.847s1.319-7.433,2.091-10.611,1.6-6.1,2.444-8.585,1.8-4.562,2.184-6.355.585-3.224.771-4.172c.084-.455.158-.808.2-1.087A2.332,2.332,0,0,1,102.174,291.73Z" transform="translate(-39.479 -285.152)"/></g><g transform="translate(375.365 252.15)"><rect class="g" width="6.476" height="20.925" transform="translate(0 16.874)"/><rect class="g" width="6.476" height="29.529" transform="translate(11.921 8.26)"/><rect class="g" width="6.476" height="33.552" transform="translate(24.604 4.237)"/><rect class="g" width="6.476" height="37.798" transform="translate(37.296)"/></g><g transform="translate(115.693 243.23)"><path class="e" d="M166.965,316.985a4.46,4.46,0,0,1,1.394.437,5.967,5.967,0,0,1,2.407,8.558,6.067,6.067,0,0,1-2.667,2.3,5.993,5.993,0,0,1-6.978-1.57,5.714,5.714,0,0,1-.929-1.533,5.4,5.4,0,0,1-.455-1.672,6,6,0,0,1,.455-3.15,5.9,5.9,0,0,1,5.371-3.559,4.3,4.3,0,0,1,1.449.2,6.827,6.827,0,0,0-1.44-.065,5.807,5.807,0,0,0-3.559,1.4,5.7,5.7,0,0,0-1.57,2.137,5.845,5.845,0,0,0-.4,3,5.436,5.436,0,0,0,.446,1.58,5.352,5.352,0,0,0,.929,1.449,5.705,5.705,0,0,0,6.6,1.477,5.176,5.176,0,0,0,1.449-.929,5.323,5.323,0,0,0,1.087-1.245,5.807,5.807,0,0,0-2.211-8.27A6.281,6.281,0,0,0,166.965,316.985Z" transform="translate(-125.599 -264.023)"/><path class="e" d="M170.849,309.84a1.637,1.637,0,0,1,0-.2v-3.113l.046.056-5.361-1.171.093-.046-1.412,3v.056h-.065a13.39,13.39,0,0,0-3.494.623h-.065l-.046-.046-2.36-2.332h.028l-4.646,2.955.056-.158,1.115,3.122v.074l-.056.065a13.631,13.631,0,0,0-2.035,2.9v.074h-3.317l.139-.121c-.372,1.682-.78,3.494-1.189,5.352l-.084-.177,2.992,1.422.084.046v.093a13.937,13.937,0,0,0,.6,3.484v.093l-.074.074-2.341,2.351v-.2l2.936,4.646-.2-.074,3.122-1.115h.1l.074.065a13.126,13.126,0,0,0,2.88,2.035h0c.046.065-.084-.149.093.149h0v3.308l-.13-.167,5.352,1.208-.186.093c.474-1.013.929-2.007,1.422-3l.046-.084h.1a13.168,13.168,0,0,0,3.475-.6h.1l.065.065,2.351,2.351h-.2l4.646-2.927-.065.177c-.381-1.059-.743-2.1-1.115-3.122v-.084l.065-.074a13.38,13.38,0,0,0,2.044-2.89v-.074h3.4l-.13.111c.427-1.858.827-3.661,1.208-5.361l.074.149L178,321.455h-.065v-.074a13.2,13.2,0,0,0-.595-3.494v-.112l2.351-2.351v.13l-2.918-4.646h.093L173.739,312h0a14.589,14.589,0,0,0-2.128-1.635l-.576-.344-.186-.121.2.093.585.316a13.838,13.838,0,0,1,2.174,1.607h-.056l3.113-1.134h.056v.056l2.955,4.646v.065l-.056.065-2.332,2.351v-.112a13.3,13.3,0,0,1,.623,3.559l-.065-.1,3,1.412.093.046v.1c-.372,1.691-.771,3.466-1.189,5.352v.112h-3.429l.13-.074a13.623,13.623,0,0,1-2.081,2.955v-.149c.362,1.022.743,2.063,1.115,3.122l.046.121-.111.065-4.646,2.936-.111.074-.093-.093-2.351-2.341h.167a13.49,13.49,0,0,1-3.568.623l.139-.093c-.465.985-.929,1.988-1.422,2.992l-.056.121h-.13l-5.352-1.2h-.13v-3.568h0c.177.3,0,.084.093.149h0a13.471,13.471,0,0,1-2.955-2.081h.167l-3.122,1.106-.13.046-.065-.112-2.936-4.646-.074-.112.093-.093,2.341-2.351v.167a13.788,13.788,0,0,1-.623-3.568l.093.13-2.964-1.375-.111-.056v-.121l1.208-5.352v-.121h3.549l-.121.074a13.464,13.464,0,0,1,2.081-2.945v.139l-1.106-3.131v-.1l.093-.056,4.646-2.927.084-.046.074.065,2.341,2.351h-.111a13.407,13.407,0,0,1,3.549-.6l-.084.056,1.44-2.992v-.065h.065l5.343,1.236h.046v3.094a2.016,2.016,0,0,1-.13.26Z" transform="translate(-124.762 -263.205)"/><path class="k" d="M159.8,264.952a15.016,15.016,0,0,1,3.233,2.276L166.492,266l3.243,5.12-2.583,2.6a15.134,15.134,0,0,1,.678,3.9l3.308,1.57-1.329,5.891h-3.661a15.053,15.053,0,0,1-2.286,3.233l1.236,3.456-5.129,3.243-2.6-2.5a15.135,15.135,0,0,1-3.893.678l-1.57,3.308-5.919-1.329v-3.661a14.866,14.866,0,0,1-3.233-2.286l-3.456,1.236-3.252-5.129,2.592-2.592a15.275,15.275,0,0,1-.678-3.9l-3.308-1.57,1.319-5.919h3.652a14.793,14.793,0,0,1,2.276-3.233l-1.217-3.475,5.12-3.252,2.6,2.592a15.135,15.135,0,0,1,3.9-.678l1.57-3.308,5.919,1.329v3.661Zm-5.222,6.969a6.5,6.5,0,1,0,4.075,2.868,6.5,6.5,0,0,0-4.075-2.868Z" transform="translate(-123.825 -260)"/><g class="c" transform="translate(10.825)"><path class="l" d="M159.8,264.952a15.016,15.016,0,0,1,3.233,2.276L166.492,266l3.243,5.12-2.583,2.6a15.134,15.134,0,0,1,.678,3.9l3.308,1.57-1.329,5.891h-3.661a15.053,15.053,0,0,1-2.286,3.233l1.236,3.456-5.129,3.243-2.6-2.5a15.135,15.135,0,0,1-3.893.678l-1.57,3.308-5.919-1.329v-3.661a14.866,14.866,0,0,1-3.233-2.286l-3.456,1.236-3.252-5.129,2.592-2.592a15.275,15.275,0,0,1-.678-3.9l-3.308-1.57,1.319-5.919h3.652a14.793,14.793,0,0,1,2.276-3.233l-1.217-3.475,5.12-3.252,2.6,2.592a15.135,15.135,0,0,1,3.9-.678l1.57-3.308,5.919,1.329v3.661Zm-5.222,6.969a6.5,6.5,0,1,0,4.075,2.868,6.5,6.5,0,0,0-4.075-2.868Z" transform="translate(-134.65 -260)"/></g><path class="k" d="M137.569,302.648a8.641,8.641,0,0,1,1.858,1.319l2.016-.715,1.858,2.983-1.505,1.514a8.791,8.791,0,0,1,.4,2.267l1.923.929-.678,3.438H141.3a8.787,8.787,0,0,1-1.319,1.858l.715,2.007-2.992,1.858L136.2,318.6a8.918,8.918,0,0,1-2.276.39L133,320.924l-3.447-.781v-2.128a8.511,8.511,0,0,1-1.858-1.329l-2.016.715-1.858-2.983,1.505-1.515a8.78,8.78,0,0,1-.39-2.267L123,309.709l.771-3.447h2.016a8.967,8.967,0,0,1,1.329-1.858L126.4,302.4l2.983-1.858,1.515,1.515a8.407,8.407,0,0,1,2.267-.4l.929-1.923,3.447.771v2.137Zm-3.038,4.051a3.791,3.791,0,1,0,2.862,4.525,3.791,3.791,0,0,0-2.862-4.525Z" transform="translate(-123 -262.814)"/><g class="m" transform="translate(0 36.916)"><path class="l" d="M137.569,302.648a8.641,8.641,0,0,1,1.858,1.319l2.016-.715,1.858,2.983-1.505,1.514a8.791,8.791,0,0,1,.4,2.267l1.923.929-.678,3.438H141.3a8.787,8.787,0,0,1-1.319,1.858l.715,2.007-2.992,1.858L136.2,318.6a8.918,8.918,0,0,1-2.276.39L133,320.924l-3.447-.781v-2.128a8.511,8.511,0,0,1-1.858-1.329l-2.016.715-1.858-2.983,1.505-1.515a8.78,8.78,0,0,1-.39-2.267L123,309.709l.771-3.447h2.016a8.967,8.967,0,0,1,1.329-1.858L126.4,302.4l2.983-1.858,1.515,1.515a8.407,8.407,0,0,1,2.267-.4l.929-1.923,3.447.771v2.137Zm-3.038,4.051a3.791,3.791,0,1,0,2.862,4.525,3.791,3.791,0,0,0-2.862-4.525Z" transform="translate(-123 -299.73)"/></g></g><g transform="translate(160.488 188.822)"><path class="e" d="M359.186,262.791a9.087,9.087,0,0,0,6.569-9.059c-.112-1.858-.79-3.587-.715-5.408.121-2.788,2-5.213,3.41-7.666s2.351-5.677.706-7.982c-1.059-1.5-2.945-2.165-4.237-3.466a13.674,13.674,0,0,1-2.546-4.7c-.688-1.663-1.552-3.382-3.113-4.265s-3.949-.5-4.59,1.18" transform="translate(-184.206 -202.743)"/><path class="e" d="M337.157,215.656c2.787-1.775,3.456-5.872,1.942-8.8s-4.711-4.711-7.963-5.24a15.182,15.182,0,0,0-13.073,4.33c-1.793,1.858-3.252,4.265-5.686,5.11-2.137.753-4.506.074-6.755.372a10.221,10.221,0,0,0-7.145,5.148,21.965,21.965,0,0,0-2.537,8.688c-.325,2.788-.548,5.807-2.462,7.824s-4.841,2.388-7.164,3.791a9.812,9.812,0,0,0-2.918,13.4c.929,1.338,2.249,2.574,2.351,4.2s-.855,2.787-1.31,4.237a6.616,6.616,0,0,0,5.668,8.214c1.933.112,4-.641,5.733.223s2.36,2.936,3.456,4.516a8.3,8.3,0,0,0,10.1,2.6c1.422-.7,2.788-1.858,4.339-1.738s2.787,1.449,4.367,1.747c2.035.39,3.958-1.106,5.166-2.787s2.053-3.661,3.6-5.036c2.026-1.8,4.869-2.239,7.433-3.122a20.953,20.953,0,0,0,11.81-29.343" transform="translate(-179.051 -201.444)"/><path class="n" d="M345.161,220.207a4.451,4.451,0,0,1,3.968,4.525h0l-2.657,60.089c-.111,7.1-10.481,11.085-18.081,10.908h0c-7.675-.177-7.916-3.94-8.019-10.695-.158-11.28-.139-15.517-.149-15.452s-9.691-1.626-11.67-14.281c-.985-6.3-.65-16.613-.1-25.041.5-7.591,5.575-16.892,13.11-16.074Z" transform="translate(-180.895 -202.343)"/><path class="e" d="M311.44,240.188A1.635,1.635,0,0,0,313,241.833a1.552,1.552,0,0,0,1.672-1.459,1.617,1.617,0,0,0-1.552-1.645,1.561,1.561,0,0,0-1.682,1.459Z" transform="translate(-181.144 -204.085)"/><path class="e" d="M310.838,237.14c.2.214,1.431-.7,3.178-.688s3.02.883,3.215.669-.112-.474-.669-.883a4.451,4.451,0,0,0-2.574-.8,4.246,4.246,0,0,0-2.527.808C310.922,236.657,310.736,237.047,310.838,237.14Z" transform="translate(-181.099 -203.852)"/><path class="e" d="M330.17,240.188a1.635,1.635,0,0,0,1.561,1.645,1.552,1.552,0,0,0,1.672-1.459,1.617,1.617,0,0,0-1.561-1.645,1.552,1.552,0,0,0-1.672,1.459Z" transform="translate(-182.471 -204.085)"/><path class="e" d="M329.308,237.53c.2.214,1.431-.7,3.178-.688s3.02.929,3.215.669-.111-.474-.669-.883a4.45,4.45,0,0,0-2.574-.8,4.311,4.311,0,0,0-2.527.808C329.392,237.056,329.206,237.437,329.308,237.53Z" transform="translate(-182.408 -203.88)"/><path class="e" d="M322.125,250.471a11.515,11.515,0,0,0-2.788-.52c-.446-.046-.873-.139-.929-.437a2.24,2.24,0,0,1,.307-1.319c.418-1.078.864-2.211,1.319-3.391,1.858-4.832,3.178-8.808,2.983-8.873s-1.858,3.782-3.717,8.6c-.437,1.2-.864,2.332-1.264,3.419a2.546,2.546,0,0,0-.242,1.747,1.106,1.106,0,0,0,.734.65,3.076,3.076,0,0,0,.762.111,11.5,11.5,0,0,0,2.834.009Z" transform="translate(-181.59 -203.887)"/><path class="o" d="M321.11,273.469A32.224,32.224,0,0,0,338.067,269s-4.293,8.92-16.957,7.7Z" transform="translate(-181.829 -206.23)"/><path class="g" d="M323.224,256.02a3.159,3.159,0,0,1,2.787-1.161,2.834,2.834,0,0,1,1.979,1.069,1.858,1.858,0,0,1,.139,2.081,2.137,2.137,0,0,1-2.3.576,6.8,6.8,0,0,1-2.23-1.338,2.174,2.174,0,0,1-.492-.52.585.585,0,0,1,0-.65" transform="translate(-181.964 -205.227)"/><path class="e" d="M327.575,252.89c-.288,0-.3,1.858-1.923,3.224s-3.642,1.124-3.652,1.394c0,.112.446.362,1.3.39a4.646,4.646,0,0,0,3.048-1.059,4.088,4.088,0,0,0,1.487-2.695C327.9,253.355,327.686,252.881,327.575,252.89Z" transform="translate(-181.892 -205.088)"/><path class="e" d="M328.469,234.271c.167.474,1.914.251,3.958.5s3.717.818,3.977.39c.13-.2-.158-.65-.827-1.115a7,7,0,0,0-6.049-.678C328.776,233.667,328.395,234.048,328.469,234.271Z" transform="translate(-182.35 -203.678)"/><path class="e" d="M311.537,231.695c.307.4,1.515,0,2.955,0s2.676.269,2.955-.139c.13-.2-.065-.6-.6-.976a4.246,4.246,0,0,0-4.757.139C311.574,231.091,311.407,231.5,311.537,231.695Z" transform="translate(-181.148 -203.461)"/><path class="e" d="M338.8,216.07a12.293,12.293,0,0,1,10.026-1.858c3.373.929,6.17,4.014,6.29,7.433.074,2.23-.929,4.646.1,6.625s3.261,2.695,4.915,4.088a7.545,7.545,0,0,1,1.747,9.124c-1.384,2.537-4.283,4.395-4.525,7.257-.232,2.695,2.035,4.971,2.592,7.619.6,2.918-1.013,5.937-3.326,7.879s-5.25,3.01-8.112,4.033c-2.23.808-4.646,1.626-6.941,1.1a7.108,7.108,0,0,1-5.2-5.928A9.673,9.673,0,0,1,339,255.8c1.626-1.793,3.912-3.308,4.3-5.677.6-3.717-3.782-6.7-3.512-10.416.139-1.914,1.5-3.5,2.62-5.083s2.109-3.559,1.412-5.352c-.929-2.341-3.967-2.955-5.826-4.646a5.677,5.677,0,0,1-1.552-5.751,5.854,5.854,0,0,1,4.59-3.912" transform="translate(-182.898 -202.323)"/><path class="e" d="M337.515,212.887a8.651,8.651,0,0,1-10.221,8.548c-1.933-.353-4.051-1.329-5.724-.3s-1.858,3.717-3.391,5.083c-2.23,1.942-5.77.121-8.6.929-2.184.65-3.549,2.732-5.008,4.5s-3.624,3.429-5.817,2.787a25.672,25.672,0,0,1,.873-5.835,8.632,8.632,0,0,1,3.308-4.748,31.9,31.9,0,0,0,2.787-1.635c1.858-1.459,2.239-4.014,3.354-6.058a9.5,9.5,0,0,1,7.229-4.794c2.49-.251,5.055.492,7.433-.121,1.793-.446,3.364-1.607,5.175-1.961,3.54-.669,6.829,1.858,9.394,4.395" transform="translate(-180.245 -201.992)"/><path class="p" d="M363.7,243.626a2.658,2.658,0,0,0,.288-1.459,3.717,3.717,0,0,0-2.555-2.927,18.954,18.954,0,0,0-2.787-.753,8.093,8.093,0,0,1-3.15-1.3,4.4,4.4,0,0,1-1.635-3.382,33.626,33.626,0,0,1,.2-3.977,9.011,9.011,0,0,0-.1-1.951,4.164,4.164,0,0,0-.743-1.663,6.374,6.374,0,0,0-3.048-1.747,13.2,13.2,0,0,1-3.1-1.338,10.351,10.351,0,0,1-2.286-1.858,10.629,10.629,0,0,1-2.23-3.605,6.508,6.508,0,0,1-.325-1.106c-.056-.26-.074-.39-.056-.4s.167.53.548,1.44a11.252,11.252,0,0,0,7.591,6.458,6.7,6.7,0,0,1,3.271,1.858,4.646,4.646,0,0,1,.855,1.858,9.585,9.585,0,0,1,.112,2.063,36.416,36.416,0,0,0-.2,3.93,3.967,3.967,0,0,0,1.44,3.066,7.832,7.832,0,0,0,2.964,1.254,18.317,18.317,0,0,1,2.787.827,4.515,4.515,0,0,1,1.97,1.468,3.428,3.428,0,0,1,.641,1.738,2.277,2.277,0,0,1-.232,1.152C363.818,243.533,363.707,243.635,363.7,243.626Z" transform="translate(-183.319 -202.487)"/><path class="p" d="M285.081,250.681l-.214-.1a1.5,1.5,0,0,1-.474-.474,2.555,2.555,0,0,1,.26-2.5,3.28,3.28,0,0,1,1.357-1.3,17.414,17.414,0,0,1,2.035-.855,6.346,6.346,0,0,0,2.128-1.208,4.646,4.646,0,0,0,1.217-2.4c.2-.929.269-1.988.446-3.066a6.681,6.681,0,0,1,1.254-3.2c1.468-1.933,3.884-2.964,5.686-4.785a8.883,8.883,0,0,0,1.979-3.354,23.377,23.377,0,0,0,.929-4.051c.39-2.787.79-5.891,2.657-8.437a6.133,6.133,0,0,1,3.819-2.462,13.417,13.417,0,0,1,4.4.1,15.563,15.563,0,0,0,4.116.242,5.352,5.352,0,0,0,3.364-1.738c1.728-1.858,2.713-4.367,4.841-5.649a8.084,8.084,0,0,1,6.393-.883,7.1,7.1,0,0,1,4.2,3.271,7.936,7.936,0,0,1,1.1,3.9,6.922,6.922,0,0,1-.4,2.527,4.119,4.119,0,0,1-.381.818s.112-.288.288-.846a7.433,7.433,0,0,0,.307-2.49,7.9,7.9,0,0,0-1.134-3.772,6.829,6.829,0,0,0-4.07-3.076,7.731,7.731,0,0,0-6.086.929,8.91,8.91,0,0,0-2.444,2.518,29.046,29.046,0,0,1-2.286,3.094,6.4,6.4,0,0,1-1.617,1.273,6.132,6.132,0,0,1-2.016.623,16.223,16.223,0,0,1-4.237-.232,13.009,13.009,0,0,0-4.246-.111,5.714,5.714,0,0,0-3.522,2.286,11.735,11.735,0,0,0-1.812,3.968,39.317,39.317,0,0,0-.771,4.256,23.309,23.309,0,0,1-.929,4.125,9.171,9.171,0,0,1-2.1,3.512c-1.9,1.858-4.293,2.9-5.686,4.729a6.4,6.4,0,0,0-1.208,3c-.177,1.059-.251,2.1-.483,3.085a4.8,4.8,0,0,1-1.338,2.546,6.5,6.5,0,0,1-2.239,1.236,17.661,17.661,0,0,0-2.026.808,3.187,3.187,0,0,0-1.3,1.189,2.518,2.518,0,0,0-.334,2.36A2.184,2.184,0,0,0,285.081,250.681Z" transform="translate(-179.213 -201.644)"/><path class="g" d="M251.328,344.4l22.439-2.053s13.807-36.377,30.83-45.194l11.029,19.262-23.61,44.349H245.93Z" transform="translate(-176.503 -208.224)"/><path class="q" d="M251.328,344.4l22.439-2.053s13.807-36.377,30.83-45.194l11.029,19.262-23.61,44.349H245.93Z" transform="translate(-176.503 -208.224)"/><path class="i" d="M261.28,358.464a33.589,33.589,0,0,1,4.2-7.024A35.383,35.383,0,0,1,261.28,358.464Z" transform="translate(-177.591 -212.07)"/><path class="i" d="M278,358.046a34.575,34.575,0,0,1-5.11-6.346,16.157,16.157,0,0,1,2.741,3.02A17.654,17.654,0,0,1,278,358.046Z" transform="translate(-178.413 -212.088)"/><path class="i" d="M281.342,349.111a18.073,18.073,0,0,1,0-5.891,18.073,18.073,0,0,1,0,5.891Z" transform="translate(-178.995 -211.487)"/><path class="i" d="M272.554,363.35a5.966,5.966,0,0,1-2.146-1.106c-1.115-.734-1.951-1.412-1.858-1.524a6.28,6.28,0,0,1,2.146,1.115C271.755,362.56,272.628,363.238,272.554,363.35Z" transform="translate(-178.105 -212.727)"/><path class="i" d="M286.46,327.57a19.9,19.9,0,0,1-1.552,4.051,19.613,19.613,0,0,1-1.988,3.856,18.9,18.9,0,0,1,1.542-4.051,19.932,19.932,0,0,1,2-3.856Z" transform="translate(-179.123 -210.379)"/><path class="i" d="M296.224,311.71c.074.1-.725.846-1.793,1.663a6.365,6.365,0,0,1-2.091,1.273c-.074-.112.725-.855,1.793-1.663A6.179,6.179,0,0,1,296.224,311.71Z" transform="translate(-179.79 -209.255)"/><path class="g" d="M332.64,357.985l11.577-46.746a15.889,15.889,0,0,1,18.249-11.828h0a15.916,15.916,0,0,1,12.9,18.091l-7.08,45.687a22.858,22.858,0,0,1-18.973,18.518l-9.2,1.431Z" transform="translate(-182.646 -208.366)"/><path class="e" d="M370.144,295.965a10.537,10.537,0,0,0-4.135-2.072,10.992,10.992,0,0,0-4.98,0,13.482,13.482,0,0,0-5.417,2.788,26.3,26.3,0,0,0-6.5,9.124c-.623,1.31-1.1,2.388-1.431,3.131a7.041,7.041,0,0,1-.567,1.143,6.607,6.607,0,0,1,.39-1.208c.288-.771.706-1.858,1.292-3.215a37.1,37.1,0,0,1,2.379-4.562,20.36,20.36,0,0,1,4.116-4.785,13.567,13.567,0,0,1,5.621-2.89,11.029,11.029,0,0,1,5.166.065A8.874,8.874,0,0,1,369.215,295a5.714,5.714,0,0,1,.7.641A2.72,2.72,0,0,1,370.144,295.965Z" transform="translate(-183.671 -207.94)"/><path class="e" d="M300.17,307.5a2.472,2.472,0,0,1-.325.437l-.985,1.189c-.864,1.031-2.081,2.537-3.475,4.479a47.88,47.88,0,0,0-7.907,16.781c-1.607,7.127-1.691,13.8-1.961,18.583-.121,2.4-.232,4.339-.334,5.677-.056.632-.1,1.143-.139,1.542a3.648,3.648,0,0,1-.074.539,1.858,1.858,0,0,1,0-.539c0-.409,0-.929.046-1.552,0-1.4.1-3.326.177-5.677.186-4.776.2-11.475,1.858-18.676a46.161,46.161,0,0,1,8.093-16.864c1.44-1.933,2.7-3.419,3.605-4.414.446-.5.818-.873,1.059-1.124a2.922,2.922,0,0,1,.362-.381Z" transform="translate(-179.267 -208.957)"/><path class="g" d="M374.276,305.17c-1.273-8.362-5.882-10.36-10.667-12.962-1.561-.855-9.1-2.787-15.071-4.246-.576-3.614-1.6-10.1-1.858-11.466-.316-1.923-30.439,2.88-30.82,3.605-.251.474-.929,7.981-1.384,13.008l-7.21,2.518-9.375,11.968-4.9,6.95a37.389,37.389,0,0,0-6.067,13.361,72.712,72.712,0,0,0-1.347,16.186l-1.459,30.662,63.071,17.821,4.832-31.09,16.26-22.133C369.668,330.405,375.837,315.446,374.276,305.17Z" transform="translate(-179.208 -206.729)"/><path class="e" d="M323.14,294.316a9.49,9.49,0,0,1-.418-2.128c-.2-1.319-.437-3.15-.669-5.175-.111-1-.214-1.961-.316-2.862a23.232,23.232,0,0,1-.167-2.36,2.788,2.788,0,0,1,.455-1.57c.242-.316.446-.4.465-.381s-.139.167-.307.483a3.038,3.038,0,0,0-.269,1.468c0,.65.167,1.431.269,2.314s.223,1.858.353,2.853c.232,2.026.418,3.865.53,5.194a9.439,9.439,0,0,1,.074,2.165Z" transform="translate(-181.861 -206.997)"/><path class="e" d="M331.783,292.324a7.377,7.377,0,0,1-.669-1.951,30.794,30.794,0,0,1-.929-9.868,7.582,7.582,0,0,1,.3-2.035c.149,0-.121,3.131.242,6.959S331.931,292.287,331.783,292.324Z" transform="translate(-182.467 -206.901)"/><path class="e" d="M347.821,289.969a32.274,32.274,0,0,0-.177-6.932,30.8,30.8,0,0,0-2.174-6.588,6.049,6.049,0,0,1,1.106,1.756,17.654,17.654,0,0,1,1.691,9.747A6.689,6.689,0,0,1,347.821,289.969Z" transform="translate(-183.554 -206.757)"/><path class="i" d="M302,319.9a28.8,28.8,0,0,1,5.529-7.368q-2.583,3.817-5.529,7.368Z" transform="translate(-180.475 -209.313)"/><path class="i" d="M316.876,307.538a29.735,29.735,0,0,1-4.646-6.058,15.924,15.924,0,0,1,2.5,2.88A15.3,15.3,0,0,1,316.876,307.538Z" transform="translate(-181.2 -208.531)"/><path class="i" d="M332.73,300.22a26.653,26.653,0,0,1-2.964,3,28.065,28.065,0,0,1-3.076,2.89,14.279,14.279,0,0,1,2.741-3.233A13.936,13.936,0,0,1,332.73,300.22Z" transform="translate(-182.224 -208.441)"/><path class="i" d="M328.381,290.4a8.678,8.678,0,0,1-2.314-1.765,9.105,9.105,0,0,1-2-2.137,9.235,9.235,0,0,1,2.323,1.775,8.957,8.957,0,0,1,1.988,2.128Z" transform="translate(-182.039 -207.469)"/><path class="i" d="M342.215,283.24a10.984,10.984,0,0,1-3.131.929,11.353,11.353,0,0,1-3.224.446,11.2,11.2,0,0,1,3.122-.929,11.4,11.4,0,0,1,3.234-.446Z" transform="translate(-182.874 -207.238)"/><path class="i" d="M345.462,304.894a10.918,10.918,0,0,1-.409-3.243,11.283,11.283,0,0,1,.074-3.261,10.918,10.918,0,0,1,.409,3.243,11.282,11.282,0,0,1-.074,3.261Z" transform="translate(-183.519 -208.312)"/><path class="i" d="M340.186,315.417a17.374,17.374,0,0,1-1.635-3.717,17.933,17.933,0,0,1-1.171-3.93,35.475,35.475,0,0,1,2.788,7.684Z" transform="translate(-182.981 -208.976)"/><path class="i" d="M326.3,322.937a19.269,19.269,0,0,1-1.784-3.93,18.883,18.883,0,0,1-1.338-4.116,20.135,20.135,0,0,1,1.784,3.94,19.709,19.709,0,0,1,1.338,4.107Z" transform="translate(-181.975 -209.481)"/><path class="i" d="M313.377,331.459a33,33,0,0,1-1.617-7.879,16.965,16.965,0,0,1,1.041,3.893,17.14,17.14,0,0,1,.576,3.986Z" transform="translate(-181.166 -210.096)"/><path class="i" d="M297.736,331.859a33.01,33.01,0,0,1-3.456-7.1A33.01,33.01,0,0,1,297.736,331.859Z" transform="translate(-179.928 -210.18)"/><path class="i" d="M297.078,342.34a20.693,20.693,0,0,1-3.772,2.128,19.373,19.373,0,0,1-4,1.7,19.7,19.7,0,0,1,3.782-2.137,19.437,19.437,0,0,1,3.986-1.691Z" transform="translate(-179.576 -211.425)"/><path class="i" d="M297.718,357.529a10.47,10.47,0,0,1-1.31-3.391,10.36,10.36,0,0,1-.548-3.577,19.049,19.049,0,0,1,1.013,3.456,19.339,19.339,0,0,1,.846,3.512Z" transform="translate(-180.04 -212.007)"/><path class="i" d="M294.213,368.7a16.8,16.8,0,0,1-3.029-2.453,15.3,15.3,0,0,1-2.7-2.787,16.8,16.8,0,0,1,3.029,2.453,15.3,15.3,0,0,1,2.7,2.788Z" transform="translate(-179.517 -212.921)"/><path class="i" d="M314.379,361.56c0,.139-2.1.753-4.59,1.858s-4.386,2.239-4.469,2.118a14.716,14.716,0,0,1,4.274-2.565,14.487,14.487,0,0,1,4.785-1.412Z" transform="translate(-180.71 -212.787)"/><path class="i" d="M308.925,355.593a12.737,12.737,0,0,1-1.366-3.187,12.394,12.394,0,0,1-.929-3.336,12.562,12.562,0,0,1,1.357,3.178,12.238,12.238,0,0,1,.938,3.345Z" transform="translate(-180.803 -211.902)"/><path class="i" d="M320.791,342.57a27.114,27.114,0,0,1-2.537,4.488,27.964,27.964,0,0,1-2.955,4.274,55.751,55.751,0,0,1,5.491-8.715Z" transform="translate(-181.417 -211.441)"/><path class="i" d="M333.821,343.179a18.714,18.714,0,0,1-3.094-4.218,19.138,19.138,0,0,1-2.267-4.711c.13-.056,1.208,2.007,2.685,4.469S333.933,343.1,333.821,343.179Z" transform="translate(-182.35 -210.852)"/><path class="i" d="M341.457,331a9.2,9.2,0,0,1-3.54.632,9.292,9.292,0,0,1-3.577-.279,23.836,23.836,0,0,1,3.559-.2,24.8,24.8,0,0,1,3.559-.149Z" transform="translate(-182.766 -210.621)"/><path class="i" d="M359.822,316.39a54,54,0,0,1-9.292,4.441,55.886,55.886,0,0,1,9.292-4.441Z" transform="translate(-183.913 -209.587)"/><path class="i" d="M361.76,306.523a35.972,35.972,0,0,1,3.717-7.433,17.657,17.657,0,0,1-1.635,3.819,18.345,18.345,0,0,1-2.081,3.614Z" transform="translate(-184.708 -208.361)"/><path class="i" d="M373.317,313.742a31,31,0,0,1-1.412-4.228,30.73,30.73,0,0,1-1.245-4.274,24.93,24.93,0,0,1,2.657,8.5Z" transform="translate(-185.339 -208.797)"/><path class="i" d="M374.732,324.07a14.487,14.487,0,0,1-4.079,1.487,14.021,14.021,0,0,1-4.293.66,31.445,31.445,0,0,1,4.172-1.124A31.8,31.8,0,0,1,374.732,324.07Z" transform="translate(-185.034 -210.131)"/><path class="i" d="M355.208,335.111c-.139,0,.26-2.286.372-5.1s-.074-5.1.065-5.12a15.3,15.3,0,0,1,.418,5.138,15.081,15.081,0,0,1-.855,5.083Z" transform="translate(-184.242 -210.189)"/><path class="i" d="M350.73,347.5a22.867,22.867,0,0,1-6.04-7.285c.121-.074,1.347,1.645,3.02,3.652a44.6,44.6,0,0,1,3.02,3.633Z" transform="translate(-183.499 -211.275)"/><path class="i" d="M370.8,345.488a18.824,18.824,0,0,1-3.875,1.858,19.633,19.633,0,0,1-4.06,1.431,39.079,39.079,0,0,1,7.935-3.317Z" transform="translate(-184.786 -211.646)"/><path class="i" d="M364.146,367.611a55.244,55.244,0,0,1,.1-10.221,53.165,53.165,0,0,1-.1,10.221Z" transform="translate(-184.864 -212.491)"/><path class="i" d="M348.65,366.286A29.734,29.734,0,0,1,351.224,356c.13.046-.576,2.3-1.282,5.138S348.789,366.314,348.65,366.286Z" transform="translate(-183.78 -212.393)"/><path class="i" d="M348.578,373.076c0,.139-2.3.362-5.129.836a51.118,51.118,0,0,1-5.129.855,18.935,18.935,0,0,1,5.045-1.338,18.5,18.5,0,0,1,5.213-.353Z" transform="translate(-183.048 -213.599)"/><path class="i" d="M332.2,368.767a19.2,19.2,0,0,1,2.787-3.206,18.294,18.294,0,0,1,3.1-2.862,19.194,19.194,0,0,1-2.788,3.206,18.7,18.7,0,0,1-3.1,2.862Z" transform="translate(-182.614 -212.867)"/><path class="i" d="M320.9,379.447a31.381,31.381,0,0,1-1.254-3.633,32.891,32.891,0,0,1-1.3-3.624A14.866,14.866,0,0,1,320.9,379.447Z" transform="translate(-181.633 -213.54)"/><path class="i" d="M338.3,385.911a51.392,51.392,0,0,1-9.134-4.051,26.192,26.192,0,0,1,4.646,1.8,27.138,27.138,0,0,1,4.488,2.249Z" transform="translate(-182.4 -214.225)"/><path class="i" d="M307.76,383.9a12.541,12.541,0,0,1,.873-3.4,12.932,12.932,0,0,1,1.329-3.243,12.63,12.63,0,0,1-.873,3.4,13.556,13.556,0,0,1-1.329,3.243Z" transform="translate(-180.883 -213.899)"/><path class="i" d="M327.451,387.822c0,.139-2.667-.288-5.956-.455s-5.956,0-5.965-.186a21.157,21.157,0,0,1,5.993-.3A20.9,20.9,0,0,1,327.451,387.822Z" transform="translate(-181.434 -214.574)"/><path class="e" d="M332.639,355.535a1.307,1.307,0,0,1,0-.372,3.43,3.43,0,0,1,.158-1.05,2.3,2.3,0,0,1,1-1.384,3.243,3.243,0,0,1,2.267-.372l-.186.112c1.013-3.568,2.639-8.771,4.265-14.606,1.524-5.463,2.555-10.49,3.271-14.142.353-1.756.632-3.215.855-4.321a11.509,11.509,0,0,1,.362-1.57,9.192,9.192,0,0,1-.177,1.608c-.149,1.031-.39,2.518-.706,4.348a142.949,142.949,0,0,1-3.141,14.207c-1.626,5.844-3.308,11.029-4.423,14.569l-.046.139H336a2.983,2.983,0,0,0-2.072.279,2.23,2.23,0,0,0-.976,1.217A10.89,10.89,0,0,0,332.639,355.535Z" transform="translate(-182.645 -209.689)"/><path class="e" d="M353.706,371.091c-.074,0-.65-1.226-1.858-3.1A32.065,32.065,0,0,0,339.211,356.5c-1.979-.994-3.289-1.45-3.261-1.533a4.537,4.537,0,0,1,.929.251,20.794,20.794,0,0,1,2.462.976,29.009,29.009,0,0,1,12.785,11.614,21.016,21.016,0,0,1,1.2,2.36A3.1,3.1,0,0,1,353.706,371.091Z" transform="translate(-182.88 -212.32)"/><g class="r" transform="translate(153.367 141.972)"><path class="j" d="M336.53,354.24a32.391,32.391,0,0,1,9.793,1.775c3.336,1.245,6.42,3.642,7.647,6.987a2.277,2.277,0,0,1-.177,2.407,1.71,1.71,0,0,1-1.756.288,4.579,4.579,0,0,1-1.542-1.059c-2.044-1.858-4.172-3.568-6.281-5.389s-5.194-3.717-7.944-4.153" transform="translate(-336.27 -354.24)"/></g><path class="e" d="M327.431,347.365a4.229,4.229,0,0,1-.929.557A16.241,16.241,0,0,1,323.649,349a19.057,19.057,0,0,1-18.713-4.859,17.01,17.01,0,0,1-1.97-2.332,4.164,4.164,0,0,1-.576-.929c.074-.056.929,1.3,2.787,3.048a19.708,19.708,0,0,0,18.379,4.776C325.981,348.053,327.384,347.273,327.431,347.365Z" transform="translate(-180.503 -211.322)"/><g class="r" transform="translate(122.343 130.246)"><path class="j" d="M302.88,341.62c1.57,3.4,3.4,6.829,6.374,9.115a10.22,10.22,0,0,0,5.863,2.453c3.1.056,5.77-2.063,8.139-4.07-7.675,1.208-16.316-2.276-20.376-7.5" transform="translate(-302.88 -341.62)"/></g><path class="e" d="M339.755,291.544c-.149,0,0-3.2-.353-7.09s-1.143-6.987-1-7.024a7.479,7.479,0,0,1,.641,2,34.148,34.148,0,0,1,.836,4.98,34.815,34.815,0,0,1,.13,5.055,8,8,0,0,1-.251,2.081Z" transform="translate(-183.052 -206.827)"/><path class="g" d="M217.7,426.44s-10.1,2.184-19.113.827c-8.455-1.264-27.382.046-27.373,11.15,0,12.423,25.245,9.357,35.085,7.387s19.652-3.717,19.652-3.717Z" transform="translate(-171.21 -217.383)"/><path class="e" d="M196.691,442.9a21.5,21.5,0,0,1-1.217-4.321,21.187,21.187,0,0,1-.743-4.432,21.5,21.5,0,0,1,1.18,4.321,21.186,21.186,0,0,1,.781,4.432Z" transform="translate(-172.876 -217.929)"/><path class="e" d="M200.456,443.069a41.758,41.758,0,0,1-1.226-8.938,21.037,21.037,0,0,1,.855,4.432,21.724,21.724,0,0,1,.372,4.506Z" transform="translate(-173.195 -217.927)"/><path class="e" d="M204.056,441.755a16.463,16.463,0,0,1-.706-3.875,15.8,15.8,0,0,1-.232-3.93,32.518,32.518,0,0,1,.929,7.8Z" transform="translate(-173.468 -217.915)"/><path class="e" d="M209.62,440.475a9.078,9.078,0,0,1-1.292-3.326,8.929,8.929,0,0,1-.372-3.559,26.421,26.421,0,0,1,.836,3.438,24.981,24.981,0,0,1,.827,3.447Z" transform="translate(-173.81 -217.889)"/><path class="e" d="M211,435.467a4.237,4.237,0,0,1,1.319-.093,11.335,11.335,0,0,1,3.54.7,4.188,4.188,0,0,1,1.1.585,1.663,1.663,0,0,1,.678,1.236,1.858,1.858,0,0,1-2.286,1.663,4.72,4.72,0,0,1-2.63-1.858,8.223,8.223,0,0,1-.381-9.542,1.338,1.338,0,0,1,.743-.455,1.05,1.05,0,0,1,.846.27,2.267,2.267,0,0,1,.632,1.357,6.774,6.774,0,0,1-.13,2.518,6.932,6.932,0,0,1-1.71,3.187,4.977,4.977,0,0,1-.734.66,1.041,1.041,0,0,1-.3.177s.353-.316.929-.929a7.256,7.256,0,0,0,1.515-3.141,6.561,6.561,0,0,0,.065-2.388,1.914,1.914,0,0,0-.511-1.1.65.65,0,0,0-.976.167,7.87,7.87,0,0,0,.418,8.948,4.283,4.283,0,0,0,2.342,1.728,1.449,1.449,0,0,0,1.8-1.208,1.282,1.282,0,0,0-.52-.929,3.633,3.633,0,0,0-.976-.558,12.311,12.311,0,0,0-3.429-.818C211.427,435.486,211,435.5,211,435.467Z" transform="translate(-174.028 -217.471)"/><path class="e" d="M225.07,440.457l-.251.084-.762.186-2.927.669c-2.546.558-6.244,1.347-10.834,2.23s-10.072,1.858-16.223,2.722a43.523,43.523,0,0,1-9.747.492,21.368,21.368,0,0,1-5.1-.976,14.451,14.451,0,0,1-2.453-1.1,7.433,7.433,0,0,1-2.146-1.728h0a5.147,5.147,0,0,1-.873-1.05,6.5,6.5,0,0,1-.511-5.436,8.7,8.7,0,0,1,3.233-4.237,16.726,16.726,0,0,1,4.6-2.276c.808-.232,1.589-.511,2.388-.688s1.589-.372,2.379-.483c6.328-.994,12.079-.492,16.874-.492,2.4.046,4.562,0,6.458-.13a44.836,44.836,0,0,0,4.832-.613l1.747-.372,1.254-.353.771-.214a1.013,1.013,0,0,1,.269-.056,1.631,1.631,0,0,1-.251.1l-.762.26-1.245.4-1.738.418a43.319,43.319,0,0,1-4.86.7c-1.9.139-4.079.232-6.5.2-4.794.046-10.546-.427-16.79.585-.78.112-1.552.325-2.341.492s-1.552.455-2.351.678a16.2,16.2,0,0,0-4.469,2.221,8.242,8.242,0,0,0-3.057,4,6.068,6.068,0,0,0,.465,5.027,4.711,4.711,0,0,0,.79.929h0a7.321,7.321,0,0,0,2,1.589,13.78,13.78,0,0,0,2.36,1.059,20.765,20.765,0,0,0,4.99.929,44.009,44.009,0,0,0,9.654-.455c6.132-.808,11.624-1.784,16.214-2.62s8.3-1.58,10.862-2.081l2.945-.576.762-.139a.856.856,0,0,1,.353.093Z" transform="translate(-171.328 -217.397)"/><path class="e" d="M189.131,446.667a16.364,16.364,0,0,1-.251-2.583c-.112-1.589-.3-3.791-.623-6.2s-.715-4.581-1.031-6.151a15.489,15.489,0,0,1-.437-2.555,12.078,12.078,0,0,1,.771,2.481,56.472,56.472,0,0,1,1.18,6.16,57.957,57.957,0,0,1,.483,6.244,12.645,12.645,0,0,1-.093,2.6Z" transform="translate(-172.314 -217.577)"/><path class="s" d="M217.89,426.979l6.4,16.028,4.962-.92-9.505-15.647Z" transform="translate(-174.517 -217.383)"/><path class="e" d="M298,377.707c-1.031.334-67.16-18.193-93.9-25.71a25.376,25.376,0,0,0-20.683,3.131l-.325.2a25.385,25.385,0,0,0-10.936,27.085h0a25.422,25.422,0,0,0,11.466,15.907c17.654,10.806,54.96,33.533,56.1,33.087,1.5-.576,48.1-1.784,48.1-1.784l-56.075-40.335,26.676,17.245L298,377.735Z" transform="translate(-171.23 -212.042)"/><path class="n" d="M248.03,357.525l14.058-7.275,13.789,8.641,51.606,1.691,7.433,25.087-74.7-17.32s-13.594,1.208-14.616-1.858S248.03,357.525,248.03,357.525Z" transform="translate(-176.466 -211.985)"/><path class="e" d="M293.21,399.99l-6.95,22.839.864,6.959h0a35.708,35.708,0,0,0,47.09,3.168h0a34.983,34.983,0,0,0,13.677-27.875l-.1-23.842Z" transform="translate(-179.36 -214.181)"/><path class="p" d="M246.475,399.547c-.074.1-8.139-5.779-18.007-13.138s-17.812-13.417-17.728-13.519,8.139,5.77,18.016,13.129S246.559,399.436,246.475,399.547Z" transform="translate(-174.01 -213.589)"/><path class="o" d="M261.28,355.15a55.661,55.661,0,0,1-6.876,2.462,57.6,57.6,0,0,1-7.024,2,54.96,54.96,0,0,1,6.876-2.462A57.058,57.058,0,0,1,261.28,355.15Z" transform="translate(-176.606 -212.333)"/><path class="o" d="M262.239,359.759a13.641,13.641,0,0,1-2.4.455c-1.477.242-3.512.6-5.742,1.115s-4.218,1.078-5.659,1.505a15.119,15.119,0,0,1-2.351.641,10.547,10.547,0,0,1,2.239-.929,50.668,50.668,0,0,1,11.466-2.639A11.585,11.585,0,0,1,262.239,359.759Z" transform="translate(-176.514 -212.658)"/><path class="o" d="M261.012,364a63.388,63.388,0,0,1-7.74,1.784,65.482,65.482,0,0,1-7.842,1.31,65.427,65.427,0,0,1,7.749-1.784A65.835,65.835,0,0,1,261.012,364Z" transform="translate(-176.468 -212.959)"/><path class="p" d="M237.579,321.729,250.541,364.4a1.245,1.245,0,0,0,1.087.873l35.308,2.648a1.236,1.236,0,0,1,1.152,1.236v2.2a1.236,1.236,0,0,1-1.264,1.236l-96.633-1.858a1.236,1.236,0,0,1-1.134-.8l-16.985-44.5a1.236,1.236,0,0,1,1.1-1.682l63.1-2.946A1.245,1.245,0,0,1,237.579,321.729Z" transform="translate(-171.265 -209.9)"/><path class="a" d="M213.133,341.565a3.066,3.066,0,0,0-1.914,2.174,2.936,2.936,0,0,0,1.254,2.657,3.178,3.178,0,0,0,3.531.13,2.936,2.936,0,0,0,.929-3.559,3.2,3.2,0,0,0-3.828-1.4" transform="translate(-174.044 -211.356)"/><path class="e" d="M229.341,436.991l-10.221-16.8L294.2,361.348a30.16,30.16,0,0,1,16.4-6.718h0a30.17,30.17,0,0,1,32.8,32.521l-1.2,14.356-49.784,16.047Z" transform="translate(-174.604 -212.287)"/><path class="p" d="M326.4,400.36a2.062,2.062,0,0,1-.2.186l-.613.5-2.388,1.914-1.738,1.366c-.632.5-1.384.929-2.156,1.515l-2.49,1.71c-.446.3-.929.623-1.366.929l-1.5.929c-2.035,1.217-4.237,2.611-6.736,3.875-1.236.65-2.5,1.357-3.828,2.016l-4.153,1.961a202.934,202.934,0,0,1-18.983,7.563c-13.714,4.729-26.388,8.13-35.466,10.881-2.276.669-4.33,1.3-6.132,1.858s-3.345,1.031-4.646,1.459l-2.9.929-.762.232a1.332,1.332,0,0,1-.269.065l.251-.112.743-.279,2.88-1.031c1.245-.455,2.787-.929,4.59-1.542s3.837-1.245,6.1-1.933c9.059-2.843,21.724-6.29,35.41-11.011,6.857-2.332,13.241-4.934,18.955-7.508l4.144-1.942c1.338-.65,2.6-1.347,3.837-1.988,2.5-1.245,4.7-2.62,6.746-3.81l1.5-.883c.474-.3.929-.613,1.375-.929l2.592-1.682c.771-.53,1.524-.985,2.165-1.477l1.756-1.338,2.444-1.858.65-.465Z" transform="translate(-175.38 -215.535)"/><path class="p" d="M334.1,408.81a2.928,2.928,0,0,1-.753.4c-.5.223-1.236.53-2.156.864a54.394,54.394,0,0,1-7.359,2.137,55.412,55.412,0,0,1-7.591,1.078c-.976.065-1.775.093-2.323.093a3.353,3.353,0,0,1-.855-.046,29.055,29.055,0,0,1,3.15-.39,75.167,75.167,0,0,0,7.517-1.208c2.871-.623,5.491-1.384,7.35-1.979A29.179,29.179,0,0,1,334.1,408.81Z" transform="translate(-181.259 -216.134)"/><path class="p" d="M291.206,364.91c.084.112-15.982,12.739-35.884,28.2s-36.107,27.931-36.182,27.819,15.982-12.73,35.884-28.2S291.131,364.808,291.206,364.91Z" transform="translate(-174.605 -213.024)"/><path class="g" d="M288.284,431.477c-3.6-1.914-7.638-.781-11.085.381-2.3.771-4.646,2-7.006,1.338-1.682-.474-2.936-1.858-4.228-3.02a26.518,26.518,0,0,0-19.4-6.959,7.972,7.972,0,0,0-5.333,2.407c-3.54,3.837-.873,8.818,2.3,12.079a34.909,34.909,0,0,0,21.1,10.221c6.588.688,15.647-.223,22.3-3.085,4.116-1.765,6.225-6.625,4.07-10.546A6.773,6.773,0,0,0,288.284,431.477Z" transform="translate(-176.051 -217.152)"/><g class="m" transform="translate(63.685 209.092)"><path class="j" d="M288.3,434.777c-3.605-1.914-7.647-.78-11.094.381-2.3.771-4.646,2-7.006,1.338-1.682-.474-2.936-1.858-4.228-3.02a26.518,26.518,0,0,0-19.4-6.959,7.972,7.972,0,0,0-5.333,2.407,6.243,6.243,0,0,0-1.487,2.695,14.04,14.04,0,0,0,3.782,6.281,34.908,34.908,0,0,0,21.1,10.221c6.588.688,15.647-.223,22.3-3.085a8.149,8.149,0,0,0,4.748-5.659,6.876,6.876,0,0,0-3.41-4.562Z" transform="translate(-239.75 -426.477)"/></g><path class="e" d="M291.724,439.328a6.132,6.132,0,0,0-.883-2.137,7.025,7.025,0,0,0-1.923-1.858,7.768,7.768,0,0,0-3.317-1.264c-2.667-.316-5.77.808-9.208,1.738a15.081,15.081,0,0,1-5.575.929,7.433,7.433,0,0,1-2.88-1,17.72,17.72,0,0,1-2.472-1.858,25.821,25.821,0,0,0-9.849-5.854,25.188,25.188,0,0,0-4.9-1.134,15.314,15.314,0,0,0-4.367,0,9.691,9.691,0,0,0-3.364,1.171,8.854,8.854,0,0,0-2.091,1.682c-.929,1.161-1.273,1.951-1.329,1.914a7.6,7.6,0,0,1,1.189-2.035,8.362,8.362,0,0,1,2.063-1.858,9.552,9.552,0,0,1,3.466-1.282,15.173,15.173,0,0,1,4.46,0,25.9,25.9,0,0,1,4.99,1.106,29.556,29.556,0,0,1,5.166,2.286,21.159,21.159,0,0,1,2.518,1.635c.808.632,1.561,1.319,2.341,1.988a17.649,17.649,0,0,0,2.407,1.858,7.034,7.034,0,0,0,2.685.929c1.858.251,3.717-.4,5.417-.846,3.429-.929,6.578-2.016,9.375-1.654A7.74,7.74,0,0,1,291,437.172a5.027,5.027,0,0,1,.669,1.626,2.535,2.535,0,0,1,.056.53Z" transform="translate(-176.053 -217.374)"/><path class="e" d="M291.724,439.328a6.132,6.132,0,0,0-.883-2.137,7.025,7.025,0,0,0-1.923-1.858,7.768,7.768,0,0,0-3.317-1.264c-2.667-.316-5.77.808-9.208,1.738a15.081,15.081,0,0,1-5.575.929,7.433,7.433,0,0,1-2.88-1,17.72,17.72,0,0,1-2.472-1.858,25.821,25.821,0,0,0-9.849-5.854,25.188,25.188,0,0,0-4.9-1.134,15.314,15.314,0,0,0-4.367,0,9.691,9.691,0,0,0-3.364,1.171,8.854,8.854,0,0,0-2.091,1.682c-.929,1.161-1.273,1.951-1.329,1.914a7.6,7.6,0,0,1,1.189-2.035,8.362,8.362,0,0,1,2.063-1.858,9.552,9.552,0,0,1,3.466-1.282,15.173,15.173,0,0,1,4.46,0,25.9,25.9,0,0,1,4.99,1.106,29.556,29.556,0,0,1,5.166,2.286,21.159,21.159,0,0,1,2.518,1.635c.808.632,1.561,1.319,2.341,1.988a17.649,17.649,0,0,0,2.407,1.858,7.034,7.034,0,0,0,2.685.929c1.858.251,3.717-.4,5.417-.846,3.429-.929,6.578-2.016,9.375-1.654A7.74,7.74,0,0,1,291,437.172a5.027,5.027,0,0,1,.669,1.626,2.535,2.535,0,0,1,.056.53Z" transform="translate(-176.053 -217.374)"/><path class="e" d="M247.63,438.886a9.532,9.532,0,0,1,1.858-1.273,50.706,50.706,0,0,1,4.767-2.546,52.711,52.711,0,0,1,5.008-2.053,9.8,9.8,0,0,1,2.156-.6,12.082,12.082,0,0,1-2.035.929c-1.273.53-3.02,1.273-4.925,2.165s-3.587,1.765-4.8,2.407a11.224,11.224,0,0,1-2.026.976Z" transform="translate(-176.624 -217.806)"/><path class="e" d="M249,442.734a65.333,65.333,0,0,1,7.034-3.67,66.054,66.054,0,0,1,7.247-3.233,65.349,65.349,0,0,1-7.034,3.67A64.336,64.336,0,0,1,249,442.734Z" transform="translate(-176.721 -218.048)"/><path class="e" d="M263.709,444.129c-.074.112-3.912-2.174-8.567-5.11s-8.362-5.417-8.362-5.529,3.9,2.174,8.567,5.12S263.8,444.017,263.709,444.129Z" transform="translate(-176.563 -217.882)"/><path class="e" d="M266.376,440.251A12.255,12.255,0,0,1,264.518,439c-1.124-.818-2.685-1.942-4.432-3.15s-3.336-2.276-4.5-3.048a11.375,11.375,0,0,1-1.858-1.319,10.544,10.544,0,0,1,2.016,1.031c1.208.7,2.853,1.728,4.646,2.936s3.289,2.388,4.367,3.28A8.955,8.955,0,0,1,266.376,440.251Z" transform="translate(-177.056 -217.74)"/></g></g></svg>