<svg xmlns="http://www.w3.org/2000/svg" width="129.93" height="126.12" viewBox="0 0 129.93 126.12"><defs><style>.a{fill:#27a5f0;}.b,.f,.t{fill:#fff;}.b{opacity:0.9;isolation:isolate;}.c,.e,.g,.v{fill:#4d4d4d;}.c,.d,.f,.j,.k{opacity:0.2;}.g{opacity:0.1;}.h,.k,.u{fill:#fafafa;}.h,.v{opacity:0.5;}.i,.j,.l,.m,.q,.r{fill:none;}.i{stroke:#27a5f0;stroke-miterlimit:10;}.j{stroke:#4d4d4d;stroke-width:2px;}.j,.l,.m,.q,.r{stroke-linecap:round;stroke-linejoin:round;}.l,.m{stroke:#fafafa;}.m{stroke-dasharray:5.198 5.198;}.n{fill:#b97964;}.o{fill:#263238;}.p{fill:#a24e3f;}.q,.r{stroke:#222221;}.q{stroke-width:0.75px;}.s{fill:#222221;}.t{opacity:0.4;}</style></defs><g transform="translate(-39.215 -57.205)"><g transform="translate(39.215 80.738)"><path class="a" d="M89.449,155.149c18.883-9.167,57.886-50.67,75.231-17.564,14.515,27.7-17.588,53.691-36.808,63.2-25,12.372-61.751,7.487-81.534-15.9-8.508-10.07-11.577-24.307,3.264-26.957,5.007-.9,13.508,2.368,19.168,2.083A53.422,53.422,0,0,0,89.449,155.149Z" transform="translate(-39.215 -124.975)"/><path class="b" d="M89.449,155.149c18.883-9.167,57.886-50.67,75.231-17.564,14.515,27.7-17.588,53.691-36.808,63.2-25,12.372-61.751,7.487-81.534-15.9-8.508-10.07-11.577-24.307,3.264-26.957,5.007-.9,13.508,2.368,19.168,2.083A53.422,53.422,0,0,0,89.449,155.149Z" transform="translate(-39.215 -124.975)"/></g><g transform="translate(82.756 57.205)"><path class="a" d="M181.94,137.678c-.767,1.865-5.285,1.736-10.018-.215s-7.952-5.046-7.185-6.91c.181-.431.695-2.045,1.208-2.268,1.764-.747,5.122.931,8.758,2.431,3.386,1.389,7.257,2.3,7.858,4.132C182.923,135.966,182.159,137.147,181.94,137.678Z" transform="translate(-164.617 -103.483)"/><path class="c" d="M182.549,134.895a3.917,3.917,0,0,1-.622,2.83,2.585,2.585,0,0,1-2.2,1.257,3.95,3.95,0,0,1-.424.049,11.6,11.6,0,0,1-2.573-.135,2.318,2.318,0,0,1-.368-.059,20.457,20.457,0,0,1-2.941-.757l-.347-.118c-.385-.135-.781-.285-1.177-.448s-.771-.347-1.142-.51l-.319-.153a20.681,20.681,0,0,1-2.524-1.479l-.285-.2a11.336,11.336,0,0,1-1.92-1.715c-.087-.1-.167-.191-.243-.288a2.671,2.671,0,0,1-.747-2.566c.194-.462.611-2.042,1.208-2.271a4.143,4.143,0,0,1,2.247,0l.347.083a54.01,54.01,0,0,1,6.157,2.354c2.632,1.087,5.747,2.215,7.275,3.518a3.47,3.47,0,0,1,.26.243A3.123,3.123,0,0,1,182.549,134.895Z" transform="translate(-164.605 -103.529)"/><g class="d" transform="translate(0.866 24.417)"><path class="e" d="M170.322,127.687l-.16.292-2.82,5.046c-.087-.1-.167-.191-.243-.288l2.709-4.841.212-.375Z" transform="translate(-167.1 -127.52)"/></g><g class="d" transform="translate(3.03 26.483)"><path class="e" d="M176.521,133.63l-2.906,5.209-.285-.2,2.889-5.167Z" transform="translate(-173.33 -133.47)"/></g><g class="d" transform="translate(8.471 29.445)"><path class="e" d="M192.094,142.184l-2.747,4.92-.347-.118L191.778,142Z" transform="translate(-189 -142)"/></g><g class="d" transform="translate(5.839 28.056)"><path class="e" d="M184.66,138.184l-2.92,5.233-.319-.153L184.358,138Z" transform="translate(-181.42 -138)"/></g><g class="d" transform="translate(11.76 30.407)"><path class="e" d="M201.515,144.944l-2.677,4.785a2.318,2.318,0,0,1-.368-.059l2.74-4.9Z" transform="translate(-198.47 -144.77)"/></g><path class="a" d="M183.773,135.164c-.767,1.865-5.23,1.792-9.966-.163s-7.952-5.046-7.181-6.91,5.23-1.788,9.966.163S184.54,133.289,183.773,135.164Z" transform="translate(-165.849 -102.594)"/><path class="f" d="M185.936,136.877c-.542,1.316-4.021,1.132-7.768-.413s-6.344-3.868-5.8-5.184,4.021-1.132,7.771.413S186.481,135.561,185.936,136.877Z" transform="translate(-169.624 -104.984)"/><path class="a" d="M253.13,103.391c1.236,1.594-1.118,5.452-5.171,8.587s-8.334,4.386-9.567,2.778c-.285-.368-1.438-1.6-1.368-2.177.233-1.9,3.354-3.976,6.466-6.386,2.9-2.243,5.6-5.153,7.494-4.761C252.133,101.686,252.779,102.94,253.13,103.391Z" transform="translate(-211.875 -86.051)"/><path class="c" d="M251,101.54a3.963,3.963,0,0,1,2.146,1.945,2.593,2.593,0,0,1,0,2.535c-.049.128-.108.257-.17.389a11.5,11.5,0,0,1-1.389,2.167c-.073.1-.153.191-.233.288a20.394,20.394,0,0,1-2.125,2.181l-.267.233c-.309.267-.635.535-.972.8s-.674.507-1.014.74c-.094.069-.194.135-.288.2a20.341,20.341,0,0,1-2.542,1.451c-.108.056-.212.1-.313.149a11.459,11.459,0,0,1-2.448.813c-.125.028-.247.049-.368.066a2.637,2.637,0,0,1-2.6-.629c-.306-.4-1.469-1.545-1.368-2.174a4.094,4.094,0,0,1,1.115-1.955c.076-.087.16-.174.247-.264a51.888,51.888,0,0,1,5.1-4.167c2.254-1.736,4.782-3.886,6.667-4.559a3.538,3.538,0,0,1,.347-.108A3.275,3.275,0,0,1,251,101.54Z" transform="translate(-211.889 -86.145)"/><g class="d" transform="translate(26.042 24.042)"><path class="e" d="M239.9,126.44l.174.285,2.972,4.955c-.125.028-.247.049-.368.066l-2.851-4.764-.222-.347Z" transform="translate(-239.6 -126.44)"/></g><g class="d" transform="translate(28.882 23.215)"><path class="e" d="M248.079,124.06l3.063,5.1c-.108.056-.212.1-.313.149l-3.049-5.077Z" transform="translate(-247.78 -124.06)"/></g><g class="d" transform="translate(34.129 20.069)"><path class="e" d="M263.189,115l2.9,4.834-.267.233-2.931-4.889Z" transform="translate(-262.89 -115)"/></g><g class="d" transform="translate(31.688 21.531)"><path class="e" d="M256.162,119.21l3.084,5.136c-.094.069-.194.135-.288.2l-3.1-5.16Z" transform="translate(-255.86 -119.21)"/></g><g class="d" transform="translate(36.567 17.725)"><path class="e" d="M270.209,108.25l2.82,4.705c-.073.1-.153.191-.233.288l-2.886-4.813Z" transform="translate(-269.91 -108.25)"/></g><ellipse class="a" cx="9.275" cy="3.65" rx="9.275" ry="3.65" transform="translate(23.231 24.473) rotate(-37.76)"/><ellipse class="f" cx="7.341" cy="2.58" rx="7.341" ry="2.58" transform="translate(25.567 24.013) rotate(-37.76)"/><path class="a" d="M195.417,72.025c-.4,2.285-5.521,3.25-11.327,2.209s-10.185-3.726-9.778-6.011c.094-.531.257-2.465.8-2.851,1.8-1.271,5.99-.208,10.449.583,4.167.74,8.726.8,9.855,2.719C196.1,69.855,195.531,71.372,195.417,72.025Z" transform="translate(-170.923 -62.151)"/><path class="c" d="M195.41,68.754a4.473,4.473,0,0,1,0,3.337c-.142.82-.938,1.5-2.16,1.955-.149.059-.306.108-.465.156a13.435,13.435,0,0,1-2.931.483,2.538,2.538,0,0,0-.427.024,23.866,23.866,0,0,1-3.5-.128l-.406-.052c-.469-.059-.951-.128-1.434-.215s-.951-.184-1.413-.292c-.132-.028-.264-.063-.4-.094a23.244,23.244,0,0,1-3.2-1.042c-.128-.049-.25-.1-.372-.153a13.219,13.219,0,0,1-2.584-1.462c-.122-.087-.233-.174-.347-.264-1.076-.879-1.629-1.823-1.472-2.7.1-.569.188-2.431.8-2.851a4.526,4.526,0,0,1,2.528-.556h.417a60.986,60.986,0,0,1,7.507,1.135c3.229.576,7.011,1.08,9.046,2.17a3.82,3.82,0,0,1,.347.208A3.7,3.7,0,0,1,195.41,68.754Z" transform="translate(-170.917 -62.228)"/><g class="d" transform="translate(4.853 2.203)"><path class="e" d="M180.969,63.665l-.111.365L178.927,70.4c-.122-.087-.233-.174-.347-.264l1.854-6.108.146-.476Z" transform="translate(-178.58 -63.55)"/></g><g class="d" transform="translate(7.784 3.974)"><path class="e" d="M189.381,68.772l-1.99,6.56c-.128-.049-.25-.1-.372-.153L189,68.65Z" transform="translate(-187.02 -68.65)"/></g><g class="d" transform="translate(14.6 6.034)"><path class="e" d="M208.942,74.7l-1.886,6.212-.406-.052,1.906-6.278Z" transform="translate(-206.65 -74.58)"/></g><g class="d" transform="translate(11.357 5.075)"><path class="e" d="M199.709,71.945l-2,6.6c-.132-.028-.264-.062-.4-.094l2.014-6.629Z" transform="translate(-197.31 -71.82)"/></g><g class="d" transform="translate(18.507 6.308)"><path class="e" d="M220.164,75.485l-1.837,6.046a2.539,2.539,0,0,0-.427.024l1.879-6.184Z" transform="translate(-217.9 -75.37)"/></g><ellipse class="a" cx="4.202" cy="10.681" rx="4.202" ry="10.681" transform="translate(2.995 8.273) rotate(-79.91)"/><ellipse class="f" cx="2.969" cy="8.452" rx="2.969" ry="8.452" transform="translate(5.624 7.492) rotate(-79.91)"/></g><g transform="translate(47.082 91.36)"><path class="a" d="M171.776,253.629l-35.735,2.083a10.529,10.529,0,0,0-3.657.889L93.568,273.964a3.25,3.25,0,0,0-1.875,3.632l6.414,30.332a3.281,3.281,0,0,0,4.688,2.215l38.312-19.126,35.378-1.184a3.066,3.066,0,0,0,2.948-3.535L174.7,257.254C174.453,255.754,173.314,253.584,171.776,253.629Z" transform="translate(-81.293 -219.576)"/><path class="g" d="M171.776,253.629l-35.735,2.083a10.529,10.529,0,0,0-3.657.889L93.568,273.964a3.25,3.25,0,0,0-1.875,3.632l6.414,30.332a3.281,3.281,0,0,0,4.688,2.215l38.312-19.126,35.378-1.184a3.066,3.066,0,0,0,2.948-3.535L174.7,257.254C174.453,255.754,173.314,253.584,171.776,253.629Z" transform="translate(-81.293 -219.576)"/><rect class="a" width="25.505" height="49.653" transform="matrix(0.735, -0.678, 0.678, 0.735, 0.001, 31.59)"/><path class="h" d="M114.273,233.27,95.518,250.556,61.87,214.049,74.176,202.7l6.448-5.945,1.073,1.167Z" transform="translate(-61.87 -182.455)"/><rect class="i" width="22.505" height="46.444" transform="matrix(0.735, -0.678, 0.678, 0.735, 2.327, 31.788)"/><ellipse class="a" cx="4.674" cy="5.862" rx="4.674" ry="5.862" transform="matrix(0.735, -0.678, 0.678, 0.735, 18.681, 39.827)"/><path class="g" d="M118.454,235.739l-6.664,2.3L97.31,202.7l6.448-5.945,1.073,1.167Z" transform="translate(-85.004 -182.455)"/><rect class="a" width="25.505" height="49.653" transform="translate(10.771 8.694) rotate(-19.93)"/><rect class="h" width="25.505" height="49.653" transform="translate(10.771 8.694) rotate(-19.93)"/><rect class="i" width="22.505" height="46.444" transform="translate(12.838 9.776) rotate(-19.93)"/><ellipse class="a" cx="4.674" cy="5.862" rx="4.674" ry="5.862" transform="translate(24.817 23.509) rotate(-19.93)"/><path class="a" d="M174.576,257.179l-35.246,1.986a10.091,10.091,0,0,0-3.615.885L97.47,277.316a3.247,3.247,0,0,0-1.84,3.625l6.414,30.346a3.247,3.247,0,0,0,4.632,2.226l37.746-19.019,34.891-1.1a3.038,3.038,0,0,0,2.9-3.525l-4.747-29.04C177.222,259.311,176.1,257.137,174.576,257.179Z" transform="translate(-83.861 -221.893)"/><line class="j" y1="1.861" x2="30.242" transform="translate(56.903 40.723)"/><line class="j" x2="5.525" y2="25.377" transform="translate(53.282 43.366)"/><path class="k" d="M109.23,346.43l3.9,19.519S116.112,358.205,109.23,346.43Z" transform="translate(-92.784 -280.153)"/><path class="k" d="M110.7,319.935c.135.347,34.607-14.445,34.607-14.445a18.14,18.14,0,0,1-9.5,16.46C125.43,327.766,110.7,319.935,110.7,319.935Z" transform="translate(-93.744 -253.429)"/><circle class="a" cx="1.493" cy="1.493" r="1.493" transform="translate(38.36 64.097)"/><path class="c" d="M210.41,305.49s4.275,6.434,3.24,17.394" transform="translate(-158.83 -253.429)"/><g class="d" transform="translate(14.796 42.585)"><line class="l" y1="0.351" x2="0.795" transform="translate(0 15.675)"/><line class="m" y1="14.23" x2="32.19" transform="translate(2.445 0.715)"/><line class="l" y1="0.351" x2="0.792" transform="translate(35.461)"/></g><line class="j" y1="1.865" x2="30.242" transform="translate(57.917 46.425)"/><line class="j" y1="1.865" x2="30.242" transform="translate(59.279 53.54)"/></g><g transform="translate(117.003 75.292)"><path class="n" d="M276.2,169.56s-.76,8.1-3.771,8.8a9.084,9.084,0,0,1-5.556-.556l-2.448-1.882-1.195,4.167s1.306,1.774,4.032.545c0,0,4.861,2.139,7.549,0s3.549-8.008,3.549-8.008Z" transform="translate(-263.23 -148.632)"/><path class="o" d="M304.928,126.3s-2.1-3.58-1.146-10.07,6.4-7.292,8.5-6.823,3.82,2.486,5.25,6.327,1.958,4.841,4.344,4.167,8.733-2.778,10.5-.906a4.389,4.389,0,0,1,1.191,3.959s8.83-2.146,8.067,5.73-13.508,15.227-25.63,7.445S304.928,126.3,304.928,126.3Z" transform="translate(-289.538 -109.292)"/><path class="o" d="M302.906,213.143s-2.4,20.637-2.32,30.315,3.518,32.485,3.518,32.485h4.24s-.559-18.237-.479-24.477,1.2-16.564,1.2-16.564,1.358,9.278,2.959,12.556,10.48,14.88,16.64,18.481l2.879-2.643s-6.4-7.917-8.8-11.838-4.556-5.032-5.438-12.324.642-18.956-1.917-25.995Z" transform="translate(-287.613 -177.079)"/><path class="c" d="M320.839,251.221,319,238.14a41.031,41.031,0,0,0,1.41,17.463Z" transform="translate(-299.39 -193.398)"/><path class="n" d="M313.23,396.795l.142,4.052,2.844.236.142-.378V396.51Z" transform="translate(-295.868 -296.774)"/><path class="a" d="M309.34,392.538l.26,1.517,4.882.118.309-1.823Z" transform="translate(-293.328 -294.059)"/><path class="a" d="M377.59,358.076l4.525-4.216,1,1.587L379.225,359Z" transform="translate(-337.879 -268.934)"/><path class="n" d="M383.87,361.724l2.986,2.514,1.917-2.254-2.452-2.535Z" transform="translate(-341.978 -272.583)"/><path class="o" d="M392,366.053l1.806,1.111a.663.663,0,0,1,.149,1c-1.309,1.479-4.653,5.236-4.986,5.5-.413.347-.913-.236-1.042-.757a6.039,6.039,0,0,0,1.042-2.063,14.756,14.756,0,0,0,0-1.868.615.615,0,0,1,.146-.427l2.018-2.368A.667.667,0,0,1,392,366.053Z" transform="translate(-344.628 -276.825)"/><path class="o" d="M308.657,408.961l.375,2.083a.663.663,0,0,1-.649.781c-1.976,0-7,.021-7.424-.049-.524-.087-.431-.837-.122-1.274a5.874,5.874,0,0,0,2.222-.608,15.009,15.009,0,0,0,1.389-1.236.621.621,0,0,1,.417-.177l3.108-.073A.67.67,0,0,1,308.657,408.961Z" transform="translate(-287.613 -304.541)"/><path class="a" d="M313.234,163.732l4.334-3.042s-1.153-4.611-2.861-4.841-10.188-1.844-15.581,0c0,0-1.938.552-2.535,5.993l2.306.736s.826,10.188,1.337,11.758h12.306S312.678,165.576,313.234,163.732Z" transform="translate(-285.006 -139.113)"/><path class="n" d="M333.881,174.7a46.875,46.875,0,0,1,1.934,7.209,42.327,42.327,0,0,1-4.91-2.268l-.764-2.743-2.584-1.261-.767,2.083,2.156,2.674s5.879,5.5,8.858,4.243-1.177-11.855-1.177-11.855Z" transform="translate(-304.719 -150.734)"/><path class="n" d="M312.837,116.775a13.437,13.437,0,0,0-1.389,5.441c.115,2.441,1.347,3.438,3.691,3.782,0,0,1,3.125-1.625,3.441-.2.024-.271.819-.257.948.069.507.573.785,1.042.9a7.049,7.049,0,0,0,1.5.167,3.5,3.5,0,0,0,2.8-1.247c.056-.066.583-.74.583-.74s-1.254-.622-.813-4.691a3.379,3.379,0,0,0,1.313-1.625,2.042,2.042,0,0,0,1-1.222c.188-.813-.531-1.938-1.844-.813,0,0-2.472-1.25-3.41-5.629A4.386,4.386,0,0,1,312.837,116.775Z" transform="translate(-294.701 -113.338)"/><path class="p" d="M315.754,129.924l.212-1.6-1.135,1.257A1.118,1.118,0,0,0,315.754,129.924Z" transform="translate(-296.912 -121.713)"/><path class="q" d="M319.39,135.223a2.031,2.031,0,0,0,1.774-.583" transform="translate(-299.889 -125.838)"/><path class="r" d="M322.84,121.737a1.57,1.57,0,0,1,1.552.413" transform="translate(-302.141 -117.377)"/><path class="r" d="M314.984,120.825s-.695-.108-1,.285" transform="translate(-296.357 -116.811)"/><path class="s" d="M323.123,127.033c-.031.243-.187.42-.347.4s-.267-.233-.236-.476.188-.42.347-.4S323.154,126.79,323.123,127.033Z" transform="translate(-301.941 -120.561)"/><ellipse class="s" cx="0.441" cy="0.295" rx="0.441" ry="0.295" transform="matrix(0.129, -0.992, 0.992, 0.129, 17.768, 6.296)"/><path class="s" d="M322.529,126.11l-.549-.24a.347.347,0,0,0,.549.24Z" transform="translate(-301.579 -120.113)"/><path class="s" d="M314.689,124.63l-.549-.24a.347.347,0,0,0,.549.24Z" transform="translate(-296.462 -119.147)"/><path class="a" d="M305.84,208.863v1.448l13.334.111-.358-1.722Z" transform="translate(-291.044 -174.181)"/><path class="t" d="M305.84,208.863v1.448l13.334.111-.358-1.722Z" transform="translate(-291.044 -174.181)"/></g><g transform="translate(101.896 93.238)"><path class="a" d="M249.79,170.681l-7.334,25.509a4.445,4.445,0,0,1-3.82,3.2,4.535,4.535,0,0,1-1.674-.153l-14.018-4.032a4.455,4.455,0,0,1-3.049-5.5l7.337-25.516a4.452,4.452,0,0,1,5.5-3.042l14.029,4.028A4.452,4.452,0,0,1,249.79,170.681Z" transform="translate(-219.724 -160.972)"/><path class="c" d="M249.79,170.681l-7.334,25.509a4.445,4.445,0,0,1-3.82,3.2,4.535,4.535,0,0,1-1.674-.153l-14.018-4.032a4.455,4.455,0,0,1-3.049-5.5l7.337-25.516a4.452,4.452,0,0,1,5.5-3.042l14.029,4.028A4.452,4.452,0,0,1,249.79,170.681Z" transform="translate(-219.724 -160.972)"/><path class="a" d="M248.572,171.552l-7.334,25.512a4.434,4.434,0,0,1-2.608,2.9,4.535,4.535,0,0,1-1.674-.153l-14.011-4.032a4.455,4.455,0,0,1-3.049-5.5l7.337-25.516a3.175,3.175,0,0,1,4.282-2.736l14,4.045A4.452,4.452,0,0,1,248.572,171.552Z" transform="translate(-219.724 -161.542)"/><path class="h" d="M248.572,171.552l-7.334,25.512a4.434,4.434,0,0,1-2.608,2.9,4.535,4.535,0,0,1-1.674-.153l-14.011-4.032a4.455,4.455,0,0,1-3.049-5.5l7.337-25.516a3.175,3.175,0,0,1,4.282-2.736l14,4.045A4.452,4.452,0,0,1,248.572,171.552Z" transform="translate(-219.724 -161.542)"/><rect class="u" width="1.559" height="19.911" transform="translate(7.631 11.756) rotate(15.74)"/><path class="u" d="M233.85,216.162l-1.5-.434,5.4-19.158,1.5.431Z" transform="translate(-227.966 -184.209)"/><path class="u" d="M240.13,217.968l-1.5-.431,5.4-19.158,1.5.431Z" transform="translate(-232.065 -185.39)"/><rect class="v" width="1.559" height="19.911" transform="translate(20.697 15.508) rotate(15.74)"/><path class="u" d="M277.746,188.489l-.729,2.6-.889-.25a1.691,1.691,0,0,1-1.167-2.083l.486-1.736,1.8.514a.764.764,0,0,1,.5.955Z" transform="translate(-255.739 -177.975)"/><path class="u" d="M278.5,180.724l-1.8-.514.538-1.9a1.688,1.688,0,0,1,2.083-1.167l.924.26-.806,2.8a.753.753,0,0,1-.945.521Z" transform="translate(-256.915 -171.485)"/><path class="u" d="M283.585,189.941l1.806.517-.479,1.7a1.681,1.681,0,0,1-2.083,1.167l-.938-.264.747-2.6a.76.76,0,0,1,.948-.521Z" transform="translate(-260.303 -179.861)"/><path class="u" d="M288.357,180.62l-.545,1.931-1.806-.517a.764.764,0,0,1-.521-.941l.806-2.8.9.253A1.684,1.684,0,0,1,288.357,180.62Z" transform="translate(-262.631 -172.276)"/></g></g></svg>